<svg width="14" height="14" viewBox="0 0 14 14" fill="none" xmlns="http://www.w3.org/2000/svg">
<path d="M6.46154 1.03704V0.518519C6.46154 0.380999 6.51827 0.249112 6.61925 0.151871C6.72023 0.0546295 6.85719 0 7 0C7.14281 0 7.27977 0.0546295 7.38075 0.151871C7.48173 0.249112 7.53846 0.380999 7.53846 0.518519V1.03704C7.53846 1.17456 7.48173 1.30644 7.38075 1.40368C7.27977 1.50093 7.14281 1.55556 7 1.55556C6.85719 1.55556 6.72023 1.50093 6.61925 1.40368C6.51827 1.30644 6.46154 1.17456 6.46154 1.03704ZM11.8462 3.11111C11.9169 3.11116 11.9869 3.0978 12.0523 3.07177C12.1177 3.04575 12.1771 3.00758 12.2271 2.95944L12.7656 2.44093C12.8666 2.34363 12.9234 2.21167 12.9234 2.07407C12.9234 1.93648 12.8666 1.80452 12.7656 1.70722C12.6645 1.60993 12.5275 1.55527 12.3846 1.55527C12.2417 1.55527 12.1047 1.60993 12.0037 1.70722L11.4652 2.22574C11.3898 2.29826 11.3385 2.39069 11.3176 2.49132C11.2968 2.59196 11.3075 2.69628 11.3483 2.79108C11.3891 2.88587 11.4582 2.96688 11.5468 3.02385C11.6354 3.08082 11.7396 3.11119 11.8462 3.11111ZM1.77288 2.95944C1.82291 3.00762 1.88231 3.04584 1.94767 3.07191C2.01304 3.09798 2.0831 3.1114 2.15385 3.1114C2.2246 3.1114 2.29466 3.09798 2.36002 3.07191C2.42539 3.04584 2.48478 3.00762 2.53481 2.95944C2.58484 2.91127 2.62452 2.85408 2.6516 2.79113C2.67867 2.72819 2.69261 2.66072 2.69261 2.59259C2.69261 2.52446 2.67867 2.457 2.6516 2.39405C2.62452 2.33111 2.58484 2.27392 2.53481 2.22574L1.99635 1.70722C1.89531 1.60993 1.75827 1.55527 1.61538 1.55527C1.4725 1.55527 1.33546 1.60993 1.23442 1.70722C1.13339 1.80452 1.07662 1.93648 1.07662 2.07407C1.07662 2.21167 1.13339 2.34363 1.23442 2.44093L1.77288 2.95944ZM14 11.4074V12.963C14 13.238 13.8865 13.5018 13.6846 13.6963C13.4826 13.8907 13.2087 14 12.9231 14H1.07692C0.791305 14 0.517386 13.8907 0.315423 13.6963C0.113461 13.5018 0 13.238 0 12.963V11.4074C0 11.1324 0.113461 10.8686 0.315423 10.6741C0.517386 10.4796 0.791305 10.3704 1.07692 10.3704V8.2963C1.0769 7.54361 1.23159 6.79836 1.53207 6.10351C1.83254 5.40866 2.27287 4.77795 2.82767 4.24774C3.38246 3.71753 4.04075 3.2983 4.76458 3.01423C5.48842 2.73016 6.26348 2.58686 7.0451 2.59259C10.286 2.61593 12.9231 5.20398 12.9231 8.36111V10.3704C13.2087 10.3704 13.4826 10.4796 13.6846 10.6741C13.8865 10.8686 14 11.1324 14 11.4074ZM7.44962 5.69657C8.72779 5.90333 9.69231 7.02074 9.69231 8.2963C9.69231 8.43382 9.74904 8.5657 9.85002 8.66294C9.951 8.76019 10.088 8.81481 10.2308 8.81481C10.3736 8.81481 10.5105 8.76019 10.6115 8.66294C10.7125 8.5657 10.7692 8.43382 10.7692 8.2963C10.7692 6.52037 9.41837 4.96287 7.62731 4.6738C7.55726 4.66187 7.48546 4.66342 7.41604 4.67837C7.34662 4.69332 7.28097 4.72136 7.22287 4.76088C7.16477 4.8004 7.11538 4.85061 7.07755 4.90862C7.03972 4.96662 7.0142 5.03127 7.00246 5.09883C6.99072 5.16639 6.993 5.23552 7.00916 5.30222C7.02533 5.36893 7.05506 5.43189 7.09664 5.48747C7.13821 5.54305 7.19081 5.59014 7.2514 5.62603C7.31198 5.66192 7.37935 5.6859 7.44962 5.69657ZM12.9231 12.963V11.4074H1.07692V12.963H12.9231Z" fill="#D74E30"/>
</svg>
