<svg width="15" height="15" viewBox="0 0 15 15" fill="none" xmlns="http://www.w3.org/2000/svg">
<path d="M13.9985 5.82789C13.7482 5.56625 13.4892 5.29664 13.3916 5.05957C13.3013 4.84242 13.2959 4.4825 13.2906 4.13387C13.2807 3.48574 13.27 2.75129 12.7594 2.24062C12.2487 1.72996 11.5143 1.71934 10.8661 1.70937C10.5175 1.70406 10.1576 1.69875 9.94043 1.60844C9.70402 1.51082 9.43375 1.25184 9.17211 1.00148C8.71391 0.561211 8.19328 0.0625 7.5 0.0625C6.80672 0.0625 6.28676 0.561211 5.82789 1.00148C5.56625 1.25184 5.29664 1.51082 5.05957 1.60844C4.84375 1.69875 4.4825 1.70406 4.13387 1.70937C3.48574 1.71934 2.75129 1.72996 2.24062 2.24062C1.72996 2.75129 1.72266 3.48574 1.70937 4.13387C1.70406 4.4825 1.69875 4.84242 1.60844 5.05957C1.51082 5.29598 1.25184 5.56625 1.00148 5.82789C0.561211 6.28609 0.0625 6.80672 0.0625 7.5C0.0625 8.19328 0.561211 8.71324 1.00148 9.17211C1.25184 9.43375 1.51082 9.70336 1.60844 9.94043C1.69875 10.1576 1.70406 10.5175 1.70937 10.8661C1.71934 11.5143 1.72996 12.2487 2.24062 12.7594C2.75129 13.27 3.48574 13.2807 4.13387 13.2906C4.4825 13.2959 4.84242 13.3013 5.05957 13.3916C5.29598 13.4892 5.56625 13.7482 5.82789 13.9985C6.28609 14.4388 6.80672 14.9375 7.5 14.9375C8.19328 14.9375 8.71324 14.4388 9.17211 13.9985C9.43375 13.7482 9.70336 13.4892 9.94043 13.3916C10.1576 13.3013 10.5175 13.2959 10.8661 13.2906C11.5143 13.2807 12.2487 13.27 12.7594 12.7594C13.27 12.2487 13.2807 11.5143 13.2906 10.8661C13.2959 10.5175 13.3013 10.1576 13.3916 9.94043C13.4892 9.70402 13.7482 9.43375 13.9985 9.17211C14.4388 8.71391 14.9375 8.19328 14.9375 7.5C14.9375 6.80672 14.4388 6.28676 13.9985 5.82789ZM10.5321 6.28211L6.81336 10.0009C6.76402 10.0503 6.70543 10.0894 6.64094 10.1162C6.57644 10.1429 6.50731 10.1567 6.4375 10.1567C6.36769 10.1567 6.29856 10.1429 6.23406 10.1162C6.16957 10.0894 6.11098 10.0503 6.06164 10.0009L4.46789 8.40711C4.36821 8.30743 4.3122 8.17222 4.3122 8.03125C4.3122 7.89028 4.36821 7.75507 4.46789 7.65539C4.56757 7.55571 4.70278 7.4997 4.84375 7.4997C4.98472 7.4997 5.11993 7.55571 5.21961 7.65539L6.4375 8.87395L9.78039 5.53039C9.82975 5.48103 9.88835 5.44188 9.95284 5.41517C10.0173 5.38845 10.0864 5.3747 10.1562 5.3747C10.2261 5.3747 10.2952 5.38845 10.3597 5.41517C10.4242 5.44188 10.4828 5.48103 10.5321 5.53039C10.5815 5.57975 10.6206 5.63835 10.6473 5.70284C10.674 5.76733 10.6878 5.83645 10.6878 5.90625C10.6878 5.97605 10.674 6.04517 10.6473 6.10966C10.6206 6.17415 10.5815 6.23275 10.5321 6.28211Z" fill="#002FD8"/>
</svg>
