<svg width="142" height="8" viewBox="0 0 142 8" fill="none" xmlns="http://www.w3.org/2000/svg">
<path d="M1 3.49997C0.72384 3.49997 0.499968 3.72384 0.499968 4C0.499968 4.27616 0.72384 4.50003 1 4.50003V3.49997ZM141.354 4.35358C141.549 4.1583 141.549 3.8417 141.354 3.64642L138.171 0.464242C137.976 0.268967 137.66 0.268967 137.464 0.464242C137.269 0.659516 137.269 0.976119 137.464 1.17139L140.293 4L137.464 6.82861C137.269 7.02388 137.269 7.34048 137.464 7.53576C137.66 7.73103 137.976 7.73103 138.171 7.53576L141.354 4.35358ZM1 4.50003H141V3.49997H1V4.50003Z" fill="#7B68EE"/>
</svg>
