<svg width="22" height="22" viewBox="0 0 22 22" fill="none" xmlns="http://www.w3.org/2000/svg">
<path fill-rule="evenodd" clip-rule="evenodd" d="M4.40078 18.15V3.85001H4.12578C3.90698 3.85001 3.69714 3.76309 3.54242 3.60838C3.3877 3.45366 3.30078 3.24382 3.30078 3.02501C3.30078 2.80621 3.3877 2.59637 3.54242 2.44165C3.69714 2.28693 3.90698 2.20001 4.12578 2.20001H17.8758C18.0946 2.20001 18.3044 2.28693 18.4591 2.44165C18.6139 2.59637 18.7008 2.80621 18.7008 3.02501C18.7008 3.24382 18.6139 3.45366 18.4591 3.60838C18.3044 3.76309 18.0946 3.85001 17.8758 3.85001H17.6008V18.15H17.8758C18.0946 18.15 18.3044 18.2369 18.4591 18.3916C18.6139 18.5464 18.7008 18.7562 18.7008 18.975C18.7008 19.1938 18.6139 19.4037 18.4591 19.5584C18.3044 19.7131 18.0946 19.8 17.8758 19.8H14.0258C13.807 19.8 13.5971 19.7131 13.4424 19.5584C13.2877 19.4037 13.2008 19.1938 13.2008 18.975V16.225C13.2008 16.0062 13.1139 15.7964 12.9591 15.6416C12.8044 15.4869 12.5946 15.4 12.3758 15.4H9.62578C9.40698 15.4 9.19714 15.4869 9.04242 15.6416C8.8877 15.7964 8.80078 16.0062 8.80078 16.225V18.975C8.80078 19.1938 8.71386 19.4037 8.55914 19.5584C8.40443 19.7131 8.19458 19.8 7.97578 19.8H4.12578C3.90698 19.8 3.69714 19.7131 3.54242 19.5584C3.3877 19.4037 3.30078 19.1938 3.30078 18.975C3.30078 18.7562 3.3877 18.5464 3.54242 18.3916C3.69714 18.2369 3.90698 18.15 4.12578 18.15H4.40078ZM7.70078 6.05001C7.70078 5.90414 7.75873 5.76425 7.86187 5.6611C7.96502 5.55796 8.10491 5.50001 8.25078 5.50001H9.35078C9.49665 5.50001 9.63655 5.55796 9.73969 5.6611C9.84284 5.76425 9.90078 5.90414 9.90078 6.05001V7.15001C9.90078 7.29588 9.84284 7.43578 9.73969 7.53892C9.63655 7.64207 9.49665 7.70001 9.35078 7.70001H8.25078C8.10491 7.70001 7.96502 7.64207 7.86187 7.53892C7.75873 7.43578 7.70078 7.29588 7.70078 7.15001V6.05001ZM8.25078 9.90001C8.10491 9.90001 7.96502 9.95796 7.86187 10.0611C7.75873 10.1642 7.70078 10.3041 7.70078 10.45V11.55C7.70078 11.6959 7.75873 11.8358 7.86187 11.9389C7.96502 12.0421 8.10491 12.1 8.25078 12.1H9.35078C9.49665 12.1 9.63655 12.0421 9.73969 11.9389C9.84284 11.8358 9.90078 11.6959 9.90078 11.55V10.45C9.90078 10.3041 9.84284 10.1642 9.73969 10.0611C9.63655 9.95796 9.49665 9.90001 9.35078 9.90001H8.25078ZM12.1008 6.05001C12.1008 5.90414 12.1587 5.76425 12.2619 5.6611C12.365 5.55796 12.5049 5.50001 12.6508 5.50001H13.7508C13.8967 5.50001 14.0365 5.55796 14.1397 5.6611C14.2428 5.76425 14.3008 5.90414 14.3008 6.05001V7.15001C14.3008 7.29588 14.2428 7.43578 14.1397 7.53892C14.0365 7.64207 13.8967 7.70001 13.7508 7.70001H12.6508C12.5049 7.70001 12.365 7.64207 12.2619 7.53892C12.1587 7.43578 12.1008 7.29588 12.1008 7.15001V6.05001ZM12.6508 9.90001C12.5049 9.90001 12.365 9.95796 12.2619 10.0611C12.1587 10.1642 12.1008 10.3041 12.1008 10.45V11.55C12.1008 11.6959 12.1587 11.8358 12.2619 11.9389C12.365 12.0421 12.5049 12.1 12.6508 12.1H13.7508C13.8967 12.1 14.0365 12.0421 14.1397 11.9389C14.2428 11.8358 14.3008 11.6959 14.3008 11.55V10.45C14.3008 10.3041 14.2428 10.1642 14.1397 10.0611C14.0365 9.95796 13.8967 9.90001 13.7508 9.90001H12.6508Z" fill="white"/>
</svg>
