<svg width="22" height="22" viewBox="0 0 22 22" fill="none" xmlns="http://www.w3.org/2000/svg">
<g clip-path="url(#clip0_1557_2023)">
<path d="M16.4565 21.9845C16.192 21.93 15.9246 21.8864 15.6635 21.8192C13.3297 21.2179 11.7683 19.0993 11.8624 16.6668C11.9531 14.3279 13.7251 12.3275 16.0634 11.9236C19.2797 11.3681 22.1638 13.9354 21.9922 17.2028C21.8648 19.6329 19.9569 21.666 17.5422 21.9455C17.494 21.9512 17.4481 21.9707 17.4004 21.9839H16.4554L16.4565 21.9845ZM16.9288 17.4702C17.5657 17.4702 18.2027 17.4748 18.8402 17.4685C19.1856 17.465 19.4238 17.2269 19.4209 16.9096C19.418 16.6003 19.1856 16.3644 18.8505 16.3627C17.5692 16.357 16.2878 16.3593 15.0064 16.3615C14.8004 16.3615 14.6312 16.4465 14.5198 16.6261C14.2857 17.0048 14.5508 17.461 15.0179 17.4673C15.6549 17.4759 16.2918 17.4696 16.9293 17.4696L16.9288 17.4702ZM16.9391 14.4237C16.3165 14.4237 15.6939 14.4226 15.0707 14.4237C14.6857 14.4249 14.4395 14.6389 14.4361 14.97C14.4332 15.3011 14.6799 15.5301 15.0598 15.5312C16.305 15.5341 17.5508 15.5341 18.796 15.5312C19.1753 15.5301 19.4232 15.3005 19.4203 14.97C19.4175 14.6389 19.1701 14.4243 18.7857 14.4237C18.17 14.422 17.5548 14.4237 16.9391 14.4237ZM16.9253 19.4069C17.5479 19.4069 18.1705 19.408 18.7937 19.4069C19.1747 19.4057 19.422 19.1854 19.4209 18.8531C19.4197 18.5306 19.177 18.3011 18.8109 18.2999C17.5582 18.2959 16.3056 18.2959 15.0535 18.2999C14.6765 18.3011 14.4303 18.5369 14.4372 18.8686C14.4447 19.1917 14.6885 19.4057 15.0581 19.4069C15.6807 19.4086 16.3033 19.4069 16.9265 19.4069H16.9253Z" fill="#7B68EE"/>
<path d="M0 20.7819C0.0981246 20.441 0.200266 20.1019 0.293226 19.7593C0.846397 17.7136 2.59198 16.3456 4.70482 16.3066C5.08412 16.2997 5.46342 16.2934 5.84214 16.3094C5.95634 16.314 6.09233 16.3674 6.17554 16.4443C6.57091 16.8115 6.98521 17.149 7.47928 17.3745C8.54315 17.8599 9.54391 17.6843 10.485 17.0514C10.7742 16.8569 11.0296 16.6119 11.3073 16.399C11.3819 16.3416 11.4823 16.3186 11.5902 16.271C11.5902 16.4885 11.5919 16.6514 11.5902 16.8144C11.5712 18.2381 12.0487 19.4724 12.9949 20.5328C13.0707 20.6177 13.1183 20.7543 13.1246 20.8702C13.1458 21.2403 13.1424 21.6122 13.1481 21.9835H4.29683C4.29912 21.3052 4.30486 20.6264 4.30199 19.9481C4.29969 19.4362 3.9313 19.0604 3.45158 19.0673C2.97932 19.0741 2.62239 19.4483 2.6201 19.9475C2.61723 20.6258 2.6201 21.3046 2.62067 21.9829H0.77352C0.391925 21.8503 0.13485 21.5921 0 21.2117C0 21.0682 0 20.9253 0 20.7819Z" fill="#7B68EE"/>
<path d="M4.03821 21.9845H2.87793C2.88137 21.9064 2.88768 21.8278 2.88768 21.7498C2.88826 21.1788 2.88195 20.6084 2.89228 20.0375C2.89457 19.9003 2.92613 19.75 2.98868 19.6295C3.10058 19.416 3.37085 19.3219 3.59808 19.3822C3.86319 19.4527 4.02903 19.6685 4.03132 19.9721C4.03764 20.6429 4.03592 21.3131 4.03764 21.9839L4.03821 21.9845Z" fill="#7B68EE"/>
<path d="M4.03821 21.9845C4.03649 21.3137 4.03821 20.6434 4.0319 19.9726C4.02903 19.6685 3.86319 19.4533 3.59866 19.3827C3.37142 19.3219 3.10115 19.4166 2.98925 19.6301C2.92613 19.7506 2.89515 19.9003 2.89285 20.0381C2.88252 20.6084 2.88883 21.1794 2.88826 21.7504C2.88826 21.8284 2.88195 21.907 2.8785 21.985H2.62086C2.62086 21.3068 2.61741 20.6279 2.62028 19.9497C2.62258 19.4499 2.97893 19.0763 3.45176 19.0694C3.93148 19.0625 4.29988 19.4384 4.30217 19.9503C4.30504 20.6285 4.2993 21.3074 4.29701 21.9856H4.03936L4.03821 21.9845Z" fill="white"/>
<path d="M13.4049 21.9844V20.9458C13.5988 21.0893 13.7652 21.2155 13.9362 21.3366C14.0349 21.4066 14.1336 21.4858 14.2444 21.5282C14.4619 21.6109 14.5789 21.7474 14.5646 21.9844H13.4043H13.4049Z" fill="#7B68EE"/>
<path d="M3.73572 8.35722C3.73572 7.86315 3.74146 7.36966 3.73343 6.8756C3.72884 6.58122 3.82754 6.3339 4.0628 6.16634C4.28201 6.01026 4.51096 5.83869 4.7623 5.76237C5.47959 5.54489 5.90938 5.04221 6.2313 4.40986C6.2445 4.38461 6.25598 4.35821 6.2686 4.33239C6.37361 4.11778 6.42411 4.11433 6.62667 4.23599C7.25042 4.61127 7.85868 5.01984 8.51227 5.33487C9.71616 5.91501 11.0015 6.21569 12.3408 6.26734C13.0719 6.29546 13.4047 6.6386 13.3996 7.37597C13.3933 8.28434 13.4231 9.19616 13.3577 10.1005C13.2073 12.168 11.5065 13.9882 9.45794 14.3371C6.73398 14.8007 4.27455 13.0936 3.80803 10.3696C3.69555 9.7126 3.73687 9.02917 3.70703 8.35837C3.71621 8.35837 3.72539 8.35779 3.73515 8.35722H3.73572Z" fill="#7B68EE"/>
<path d="M14.3084 8.0329C14.1862 7.97437 14.088 7.89518 13.9813 7.88199C13.6743 7.84354 13.641 7.65819 13.6646 7.40227C13.6967 7.05912 13.6405 6.73089 13.4115 6.45315C13.1693 6.15935 12.8572 6.01704 12.4767 6.0027C10.4965 5.92638 8.6889 5.32386 7.05176 4.20834C6.93929 4.13202 6.83371 4.04537 6.72067 3.9702C6.46072 3.7969 6.20537 3.86691 6.05445 4.14063C5.9305 4.36557 5.81516 4.59854 5.66482 4.80455C5.43816 5.11556 5.15125 5.3537 4.76506 5.46445C4.56824 5.52068 4.38117 5.6211 4.20156 5.72267C3.6943 6.01073 3.40336 6.42561 3.45444 7.03731C3.4705 7.22954 3.45214 7.42407 3.45845 7.61688C3.46247 7.73337 3.42804 7.78673 3.30581 7.82632C3.1044 7.89117 2.91561 7.99618 2.70961 8.08914C2.35728 7.50269 2.11627 6.85655 1.99806 6.16739C1.7473 4.7024 1.97683 3.32694 2.83413 2.09436C3.68684 0.868658 4.89589 0.18236 6.35973 0.0503794C8.4278 -0.135541 10.4328 0.181212 12.2897 1.15729C13.6118 1.85277 14.5666 2.88394 14.9264 4.37475C15.2386 5.66873 15.024 6.88525 14.3078 8.03233L14.3084 8.0329Z" fill="#7B68EE"/>
<path d="M6.4502 16.2956C6.75432 16.0965 7.02689 15.8675 7.10206 15.5152C7.17092 15.1922 7.16691 14.8536 7.1956 14.511C8.21644 14.7801 9.23097 14.7537 10.2753 14.406C10.2409 15.1485 10.199 15.8836 10.9892 16.2813C9.54428 17.7153 7.87386 17.7457 6.45077 16.2956H6.4502Z" fill="#7B68EE"/>
<path d="M13.6979 8.09375C14.3021 8.17064 14.8169 8.8426 14.7698 9.50766C14.721 10.2049 14.1443 10.8148 13.5986 10.8005C13.6319 9.89787 13.6652 8.99523 13.6979 8.09432V8.09375Z" fill="#7B68EE"/>
<path d="M3.42477 8.09091C3.46035 9.001 3.49535 9.89617 3.53036 10.7971C3.08277 10.8562 2.47337 10.276 2.37352 9.62991C2.26507 8.92812 2.75282 8.21428 3.42477 8.09033V8.09091Z" fill="#7B68EE"/>
</g>
<defs>
<clipPath id="clip0_1557_2023">
<rect width="22" height="21.9845" fill="white"/>
</clipPath>
</defs>
</svg>
