<svg width="169" height="32" viewBox="0 0 169 32" fill="none" xmlns="http://www.w3.org/2000/svg">
<g clip-path="url(#clip0_1082_38876)">
<path d="M13.5242 31.2623H0V25.919H1.77676V5.7919H0V0.448608H10.4515V13.2685C10.9322 12.5308 14.0781 9.97882 17.2136 9.97882C23.8921 9.97882 24.749 14.704 24.749 19.0205V25.919H26.7766V31.3022H15.6772V20.0872C15.6772 18.6916 15.6772 16.2692 13.1375 16.2692C10.9427 16.2692 10.4201 18.3227 10.4201 20.0872V25.919H13.5556L13.5242 31.2623Z" fill="#7B68EE"/>
<path d="M41.1899 31.2623H29.1289V25.919H30.9474V16.0997H29.1289V10.7664H39.1205V25.919H41.2108L41.1899 31.2623Z" fill="#7B68EE"/>
<path d="M55.7162 31.2624H43.582V25.9191H45.4737V16.0998H43.582V10.7665H51.6714L52.9674 13.3883C54.0857 11.3945 55.204 10.0188 59.6459 10.0188V17.1266C55.7684 17.1266 53.5736 18.0736 53.5736 21.6923V25.9191H55.7266L55.7162 31.2624Z" fill="#7B68EE"/>
<path d="M84.4069 28.4311C81.2714 31.0529 77.7806 31.9999 73.297 31.9999C67.9563 31.9999 61.9258 28.76 61.9258 20.8747C61.9258 14.1357 67.0052 10.1482 73.5165 10.1482C78.6377 10.1482 82.5569 12.6504 83.8007 16.1295C84.5585 18.3949 84.5912 20.8244 83.8948 23.1077H70.3079C70.5587 24.2142 71.1231 26.4772 74.7393 26.4772C76.94 26.5548 79.0915 25.8435 80.7698 24.4834L84.4069 28.4311ZM70.4542 18.9407H76.955C76.955 17.3756 76.5265 15.651 73.8195 15.651C73.3713 15.6536 72.928 15.741 72.5155 15.9082C72.1029 16.0755 71.7293 16.3191 71.4162 16.6251C71.1032 16.9312 70.8569 17.2934 70.6918 17.6909C70.5266 18.0884 70.4459 18.5132 70.4542 18.9407Z" fill="#7B68EE"/>
<path d="M101.997 5.79202H100.021V0.44873H110.744V25.9191H112.835V31.2624H102.76L102.028 29.7472C100.517 30.9851 98.5848 31.655 96.5931 31.6313C90.5209 31.6313 86.6016 26.4973 86.6016 20.7852C86.6016 14.3752 91.2943 10.3079 96.5931 10.3079C98.5339 10.2595 100.44 10.8082 102.028 11.873L101.997 5.79202ZM98.9761 25.8394C100.659 25.8394 102.206 23.8456 102.038 20.5858C102.038 17.7845 100.575 15.6512 98.9029 15.6512C97.0948 15.6512 95.8407 17.645 95.8407 20.7852C95.8407 23.2475 97.0426 25.8394 98.9761 25.8394Z" fill="#7B68EE"/>
<path d="M130.088 5.79202H128.113V0.44873H138.836V25.9191H140.927V31.2624H130.841L130.109 29.7472C128.603 30.9852 126.673 31.6553 124.685 31.6313C118.613 31.6313 114.693 26.4973 114.693 20.7852C114.693 14.3752 119.386 10.3079 124.685 10.3079C126.623 10.2566 128.526 10.8058 130.109 11.873L130.088 5.79202ZM127.037 25.8394C128.709 25.8394 130.266 23.8456 130.088 20.5858C130.088 17.7845 128.625 15.6512 126.953 15.6512C125.145 15.6512 123.901 17.645 123.901 20.7852C123.932 23.2475 125.103 25.8394 127.037 25.8394Z" fill="#7B68EE"/>
<path d="M158.192 5.79202H156.206V0.44873H166.908V25.9191H168.999V31.2624H158.924L158.192 29.7472C156.681 30.9851 154.749 31.655 152.757 31.6313C146.685 31.6313 142.766 26.4973 142.766 20.7852C142.766 14.3752 147.458 10.3079 152.757 10.3079C154.698 10.2595 156.604 10.8082 158.192 11.873V5.79202ZM155.13 25.8394C156.812 25.8394 158.359 23.8456 158.192 20.5858C158.192 17.7845 156.729 15.6512 155.056 15.6512C153.248 15.6512 151.994 17.645 151.994 20.7852C152.026 23.2475 153.238 25.8394 155.13 25.8394Z" fill="#7B68EE"/>
<path fill-rule="evenodd" clip-rule="evenodd" d="M30.5494 0.996925C30.5359 0.81226 30.5764 0.627633 30.6667 0.46374C30.7569 0.299847 30.8932 0.163152 31.0603 0.0689772C31.2274 -0.0251975 31.4187 -0.0731138 31.6127 -0.0694452C31.8067 -0.0657765 31.9959 -0.0106606 32.1589 0.0897558L38.8165 3.58883C38.9961 3.66934 39.1479 3.79691 39.2542 3.95667C39.3606 4.11643 39.417 4.30177 39.417 4.49101C39.417 4.68025 39.3606 4.86556 39.2542 5.02532C39.1479 5.18508 38.9961 5.31269 38.8165 5.39319L32.1589 8.972C31.9959 9.07242 31.8067 9.12754 31.6127 9.1312C31.4187 9.13487 31.2274 9.08696 31.0603 8.99278C30.8932 8.89861 30.7569 8.76191 30.6667 8.59802C30.5764 8.43413 30.5359 8.2495 30.5494 8.06483V1.08664V0.996925Z" fill="#7B68EE"/>
</g>
<defs>
<clipPath id="clip0_1082_38876">
<rect width="169" height="32" fill="white"/>
</clipPath>
</defs>
</svg>
