<svg width="20" height="20" viewBox="0 0 20 20" fill="none" xmlns="http://www.w3.org/2000/svg">
<path d="M10.0045 5.50082C9.11445 5.50082 8.24437 5.76476 7.5043 6.25926C6.76423 6.75376 6.18742 7.4566 5.8468 8.27892C5.50619 9.10124 5.41707 10.0061 5.59071 10.8791C5.76436 11.752 6.19297 12.5539 6.82234 13.1833C7.45172 13.8127 8.25359 14.2413 9.12656 14.4149C9.99953 14.5886 10.9044 14.4994 11.7267 14.1588C12.549 13.8182 13.2519 13.2414 13.7464 12.5013C14.2409 11.7613 14.5048 10.8912 14.5048 10.0011C14.5036 8.80794 14.029 7.66399 13.1853 6.8203C12.3416 5.9766 11.1977 5.50206 10.0045 5.50082ZM10.0045 13.0013C9.41114 13.0013 8.83109 12.8253 8.33771 12.4957C7.84433 12.166 7.45979 11.6974 7.23271 11.1492C7.00563 10.601 6.94622 9.99778 7.06198 9.4158C7.17775 8.83382 7.46349 8.29924 7.88307 7.87965C8.30266 7.46007 8.83724 7.17433 9.41922 7.05857C10.0012 6.9428 10.6044 7.00222 11.1526 7.22929C11.7009 7.45637 12.1694 7.84091 12.4991 8.33429C12.8288 8.82767 13.0047 9.40773 13.0047 10.0011C13.0047 10.7968 12.6886 11.5599 12.126 12.1226C11.5633 12.6852 10.8002 13.0013 10.0045 13.0013ZM14.5048 0.250488H5.50424C4.11222 0.251977 2.77764 0.805614 1.79334 1.78992C0.809032 2.77423 0.255395 4.1088 0.253906 5.50082V14.5014C0.255395 15.8934 0.809032 17.228 1.79334 18.2123C2.77764 19.1966 4.11222 19.7502 5.50424 19.7517H14.5048C15.8968 19.7502 17.2314 19.1966 18.2157 18.2123C19.2 17.228 19.7537 15.8934 19.7551 14.5014V5.50082C19.7537 4.1088 19.2 2.77423 18.2157 1.78992C17.2314 0.805614 15.8968 0.251977 14.5048 0.250488ZM18.2551 14.5014C18.2551 15.496 17.8599 16.4499 17.1566 17.1532C16.4533 17.8565 15.4994 18.2516 14.5048 18.2516H5.50424C4.50961 18.2516 3.55573 17.8565 2.85242 17.1532C2.14911 16.4499 1.754 15.496 1.754 14.5014V5.50082C1.754 4.5062 2.14911 3.55231 2.85242 2.849C3.55573 2.1457 4.50961 1.75058 5.50424 1.75058H14.5048C15.4994 1.75058 16.4533 2.1457 17.1566 2.849C17.8599 3.55231 18.2551 4.5062 18.2551 5.50082V14.5014ZM16.0049 5.1258C16.0049 5.34832 15.9389 5.56584 15.8153 5.75085C15.6917 5.93587 15.516 6.08007 15.3104 6.16523C15.1048 6.25038 14.8786 6.27266 14.6603 6.22925C14.4421 6.18584 14.2416 6.07869 14.0843 5.92134C13.9269 5.764 13.8198 5.56353 13.7764 5.34529C13.733 5.12705 13.7553 4.90083 13.8404 4.69525C13.9256 4.48967 14.0698 4.31396 14.2548 4.19034C14.4398 4.06671 14.6573 4.00073 14.8798 4.00073C15.1782 4.00073 15.4644 4.11926 15.6754 4.33025C15.8864 4.54124 16.0049 4.82741 16.0049 5.1258Z" fill="white"/>
</svg>
