<svg width="20" height="20" viewBox="0 0 20 20" fill="none" xmlns="http://www.w3.org/2000/svg">
<path d="M10.0104 0.250488C8.0819 0.250488 6.19672 0.822352 4.59324 1.89376C2.98975 2.96518 1.73999 4.48801 1.00199 6.26971C0.26399 8.0514 0.0708956 10.0119 0.447125 11.9034C0.823355 13.7948 1.75201 15.5322 3.11566 16.8958C4.47931 18.2595 6.2167 19.1881 8.10814 19.5644C9.99957 19.9406 11.9601 19.7475 13.7418 19.0095C15.5235 18.2715 17.0463 17.0217 18.1177 15.4183C19.1891 13.8148 19.761 11.9296 19.761 10.0011C19.7583 7.41592 18.7301 4.9374 16.9021 3.10939C15.0741 1.28139 12.5956 0.253218 10.0104 0.250488ZM10.7604 18.2169V12.2513H13.0106C13.2095 12.2513 13.4003 12.1722 13.5409 12.0316C13.6816 11.8909 13.7606 11.7001 13.7606 11.5012C13.7606 11.3023 13.6816 11.1115 13.5409 10.9708C13.4003 10.8302 13.2095 10.7512 13.0106 10.7512H10.7604V8.50101C10.7604 8.10316 10.9185 7.72161 11.1998 7.44029C11.4811 7.15896 11.8627 7.00092 12.2605 7.00092H13.7606C13.9596 7.00092 14.1503 6.92189 14.291 6.78123C14.4317 6.64057 14.5107 6.44979 14.5107 6.25087C14.5107 6.05194 14.4317 5.86117 14.291 5.72051C14.1503 5.57984 13.9596 5.50082 13.7606 5.50082H12.2605C11.4648 5.50082 10.7017 5.81691 10.1391 6.37956C9.57643 6.9422 9.26034 7.70531 9.26034 8.50101V10.7512H7.0102C6.81127 10.7512 6.6205 10.8302 6.47984 10.9708C6.33917 11.1115 6.26015 11.3023 6.26015 11.5012C6.26015 11.7001 6.33917 11.8909 6.47984 12.0316C6.6205 12.1722 6.81127 12.2513 7.0102 12.2513H9.26034V18.2169C7.14595 18.0239 5.18736 17.0232 3.79197 15.423C2.39657 13.8227 1.6718 11.7462 1.76841 9.62517C1.86502 7.50419 2.77557 5.50209 4.31066 4.03533C5.84575 2.56857 7.88721 1.75006 10.0104 1.75006C12.1336 1.75006 14.175 2.56857 15.7101 4.03533C17.2452 5.50209 18.1558 7.50419 18.2524 9.62517C18.349 11.7462 17.6242 13.8227 16.2288 15.423C14.8334 17.0232 12.8748 18.0239 10.7604 18.2169Z" fill="white"/>
</svg>
