<svg width="21" height="19" viewBox="0 0 21 19" fill="none" xmlns="http://www.w3.org/2000/svg">
<path d="M20.1992 3.46416C20.1425 3.3271 20.0464 3.20994 19.923 3.1275C19.7997 3.04506 19.6547 3.00104 19.5064 3.00101H16.6534C16.2545 2.32238 15.6868 1.75852 15.0055 1.36422C14.3242 0.96993 13.5524 0.75863 12.7653 0.750867C12.1789 0.743175 11.5968 0.852848 11.0534 1.07343C10.51 1.29402 10.0162 1.62106 9.60105 2.03532C9.17378 2.45462 8.83465 2.95511 8.6036 3.50737C8.37255 4.05963 8.25425 4.65251 8.25565 5.25115V5.82213C4.48104 4.82644 1.39365 1.75593 1.36084 1.72312C1.26021 1.6216 1.13267 1.55095 0.993237 1.51948C0.853803 1.48802 0.708282 1.49706 0.573811 1.54553C0.43934 1.59399 0.321518 1.67988 0.234221 1.79306C0.146924 1.90625 0.093788 2.04202 0.0810688 2.1844C-0.323019 6.66499 0.978313 9.66331 2.1437 11.3894C2.71193 12.2426 3.4032 13.0072 4.19508 13.6582C2.76718 15.3018 0.518909 16.1653 0.494533 16.1747C0.388695 16.2143 0.293184 16.2773 0.215136 16.3591C0.137088 16.4408 0.0785207 16.5391 0.0438109 16.6467C0.00910104 16.7543 -0.000854055 16.8683 0.0146892 16.9802C0.0302324 17.0922 0.0708721 17.1991 0.133572 17.2932C0.203889 17.3982 0.485157 17.7666 1.17239 18.1107C2.02182 18.5364 3.14408 18.752 4.50541 18.752C11.1311 18.752 16.6674 13.6498 17.2328 7.08502L20.037 4.28172C20.1419 4.17676 20.2133 4.04307 20.2421 3.89754C20.271 3.75202 20.2561 3.6012 20.1992 3.46416ZM15.9802 6.22153C15.8516 6.35044 15.7743 6.52172 15.7627 6.70343C15.3811 12.6185 10.4383 17.2519 4.50541 17.2519C3.51535 17.2519 2.81781 17.1207 2.3284 16.9631C3.40753 16.3772 4.91231 15.3693 5.87988 13.918C5.93666 13.8326 5.97536 13.7365 5.99356 13.6357C6.01177 13.5348 6.00911 13.4312 5.98574 13.3314C5.96237 13.2316 5.91878 13.1377 5.85768 13.0554C5.79658 12.9731 5.71926 12.9041 5.63048 12.8529C5.58642 12.8276 1.51366 10.3834 1.50522 3.85231C3.00532 5.07114 5.74768 6.9622 8.881 7.48911C8.98839 7.50721 9.09843 7.50172 9.20348 7.473C9.30853 7.44428 9.40606 7.39304 9.48931 7.32282C9.57255 7.2526 9.6395 7.1651 9.68552 7.0664C9.73153 6.96769 9.75549 6.86015 9.75575 6.75125V5.25115C9.7549 4.85105 9.8341 4.45482 9.98867 4.08578C10.1432 3.71673 10.3701 3.38234 10.6558 3.10227C10.9297 2.82784 11.2559 2.61111 11.615 2.46489C11.9741 2.31867 12.3589 2.24593 12.7466 2.25096C13.9335 2.26596 15.0426 2.98976 15.5067 4.05201C15.5652 4.18557 15.6614 4.29917 15.7835 4.37893C15.9055 4.45869 16.0482 4.50115 16.194 4.50111H17.6941L15.9802 6.22153Z" fill="white"/>
</svg>
