<svg width="20" height="20" viewBox="0 0 20 20" fill="none" xmlns="http://www.w3.org/2000/svg">
<path d="M18.2511 0.250488H1.7501C1.35225 0.250488 0.97069 0.408534 0.689368 0.689856C0.408045 0.971178 0.25 1.35273 0.25 1.75058V18.2516C0.25 18.6495 0.408045 19.031 0.689368 19.3124C0.97069 19.5937 1.35225 19.7517 1.7501 19.7517H18.2511C18.649 19.7517 19.0306 19.5937 19.3119 19.3124C19.5932 19.031 19.7512 18.6495 19.7512 18.2516V1.75058C19.7512 1.35273 19.5932 0.971178 19.3119 0.689856C19.0306 0.408534 18.649 0.250488 18.2511 0.250488ZM18.2511 18.2516H1.7501V1.75058H18.2511V18.2516ZM7.00043 8.50101V14.5014C7.00043 14.7003 6.92141 14.8911 6.78075 15.0318C6.64008 15.1724 6.44931 15.2514 6.25038 15.2514C6.05146 15.2514 5.86068 15.1724 5.72002 15.0318C5.57936 14.8911 5.50033 14.7003 5.50033 14.5014V8.50101C5.50033 8.30209 5.57936 8.11131 5.72002 7.97065C5.86068 7.82999 6.05146 7.75097 6.25038 7.75097C6.44931 7.75097 6.64008 7.82999 6.78075 7.97065C6.92141 8.11131 7.00043 8.30209 7.00043 8.50101ZM15.251 11.1262V14.5014C15.251 14.7003 15.1719 14.8911 15.0313 15.0318C14.8906 15.1724 14.6998 15.2514 14.5009 15.2514C14.302 15.2514 14.1112 15.1724 13.9705 15.0318C13.8299 14.8911 13.7509 14.7003 13.7509 14.5014V11.1262C13.7509 10.6289 13.5533 10.1519 13.2016 9.80027C12.85 9.44862 12.3731 9.25106 11.8757 9.25106C11.3784 9.25106 10.9015 9.44862 10.5498 9.80027C10.1982 10.1519 10.0006 10.6289 10.0006 11.1262V14.5014C10.0006 14.7003 9.9216 14.8911 9.78094 15.0318C9.64028 15.1724 9.4495 15.2514 9.25057 15.2514C9.05165 15.2514 8.86087 15.1724 8.72021 15.0318C8.57955 14.8911 8.50052 14.7003 8.50052 14.5014V8.50101C8.50146 8.31729 8.56978 8.1403 8.69255 8.00362C8.81531 7.86694 8.98398 7.78007 9.16654 7.75949C9.34911 7.7389 9.53288 7.78605 9.68299 7.89197C9.83311 7.99789 9.93912 8.15523 9.98093 8.33413C10.4883 7.98992 11.0799 7.79043 11.6921 7.75708C12.3043 7.72372 12.9141 7.85776 13.4559 8.1448C13.9977 8.43184 14.451 8.86103 14.7673 9.3863C15.0835 9.91156 15.2508 10.5131 15.251 11.1262ZM7.37545 5.87585C7.37545 6.09836 7.30947 6.31588 7.18584 6.5009C7.06222 6.68592 6.88651 6.83012 6.68093 6.91528C6.47535 7.00043 6.24913 7.02271 6.03089 6.9793C5.81265 6.93589 5.61218 6.82874 5.45484 6.67139C5.29749 6.51405 5.19034 6.31358 5.14693 6.09534C5.10352 5.87709 5.1258 5.65088 5.21095 5.4453C5.2961 5.23972 5.44031 5.06401 5.62533 4.94038C5.81034 4.81676 6.02786 4.75077 6.25038 4.75077C6.54877 4.75077 6.83494 4.86931 7.04593 5.0803C7.25692 5.29129 7.37545 5.57746 7.37545 5.87585Z" fill="white"/>
</svg>
