<svg width="11" height="8" viewBox="0 0 11 8" fill="none" xmlns="http://www.w3.org/2000/svg">
<path d="M9.89746 1.77299L3.89746 7.77299C3.8452 7.82543 3.78311 7.86704 3.71473 7.89543C3.64636 7.92382 3.57306 7.93843 3.49902 7.93843C3.42499 7.93843 3.35169 7.92382 3.28331 7.89543C3.21494 7.86704 3.15284 7.82543 3.10058 7.77299L0.475585 5.14799C0.423262 5.09566 0.381756 5.03355 0.353439 4.96518C0.325122 4.89682 0.310547 4.82355 0.310547 4.74955C0.310547 4.67555 0.325122 4.60228 0.353439 4.53392C0.381756 4.46555 0.423262 4.40344 0.475585 4.35111C0.527909 4.29879 0.590026 4.25728 0.65839 4.22897C0.726754 4.20065 0.800026 4.18607 0.874023 4.18607C0.948019 4.18607 1.02129 4.20065 1.08966 4.22897C1.15802 4.25728 1.22014 4.29879 1.27246 4.35111L3.49949 6.57814L9.10152 0.97705C9.20719 0.871378 9.35052 0.812012 9.49996 0.812012C9.6494 0.812012 9.79272 0.871378 9.8984 0.97705C10.0041 1.08272 10.0634 1.22604 10.0634 1.37549C10.0634 1.52493 10.0041 1.66825 9.8984 1.77393L9.89746 1.77299Z" fill="white"/>
</svg>
