<svg width="22" height="22" viewBox="0 0 22 22" fill="none" xmlns="http://www.w3.org/2000/svg">
<path d="M11.0009 8.80001C11.8761 8.80001 12.7154 8.45233 13.3343 7.83346C13.9532 7.21459 14.3009 6.37523 14.3009 5.50001C14.3009 4.6248 13.9532 3.78543 13.3343 3.16656C12.7154 2.54769 11.8761 2.20001 11.0009 2.20001C10.1256 2.20001 9.28627 2.54769 8.6674 3.16656C8.04853 3.78543 7.70085 4.6248 7.70085 5.50001C7.70085 6.37523 8.04853 7.21459 8.6674 7.83346C9.28627 8.45233 10.1256 8.80001 11.0009 8.80001ZM3.81235 15.9423C3.71024 16.2152 3.69897 16.5139 3.78023 16.7937C3.86149 17.0736 4.03094 17.3197 4.26335 17.4955C6.18982 18.9927 8.56103 19.8037 11.0009 19.8C13.5419 19.8 15.8827 18.9376 17.745 17.49C18.218 17.1237 18.4094 16.4967 18.1938 15.939C17.6352 14.4848 16.6489 13.2342 15.3649 12.3522C14.0809 11.4701 12.5597 10.9981 11.0019 10.9985C9.44417 10.9988 7.92314 11.4715 6.63957 12.3542C5.356 13.2368 4.37023 14.4879 3.81235 15.9423Z" fill="white"/>
</svg>
