<svg width="22" height="28" viewBox="0 0 22 28" fill="none" xmlns="http://www.w3.org/2000/svg">
<g clip-path="url(#clip0_1557_2012)">
<path d="M7.23571 1.16339C8.02022 1.28218 8.68893 1.00947 9.34717 0.606755C9.75288 0.359447 10.2109 0.165934 10.6719 0.0493774C11.2225 -0.0903408 11.7597 0.0815051 12.2536 0.3587C13.8824 1.27471 13.3116 1.15293 15.2168 1.16339C16.2076 1.16862 16.942 1.60794 17.4419 2.4612C18.378 4.05936 17.9686 3.64245 19.5533 4.5749C20.4148 5.08147 20.8489 5.8234 20.8526 6.82757C20.8586 8.62075 20.7234 8.14033 21.6155 9.68918C22.1265 10.5761 22.1295 11.4525 21.6199 12.3393C20.7263 13.8934 20.8571 13.416 20.8534 15.2002C20.8511 16.2036 20.4245 16.9515 19.5623 17.4574C17.9753 18.3883 18.3698 17.9916 17.4321 19.5912C16.9256 20.4557 16.1687 20.8726 15.1712 20.8801C13.3773 20.8935 13.9145 20.7292 12.3111 21.6452C11.4332 22.1465 10.5635 22.145 9.68563 21.6422C8.10241 20.7344 8.63887 20.8935 6.82477 20.8801C5.81462 20.8726 5.06373 20.4393 4.55267 19.5636C3.6531 18.0237 4.02742 18.3816 2.43523 17.4544C1.58198 16.9575 1.15162 16.2178 1.14789 15.2241C1.14116 13.4115 1.27266 13.8897 0.379809 12.3356C-0.130498 11.448 -0.123026 10.5716 0.388775 9.68544C1.26892 8.16125 1.14714 8.61477 1.14639 6.85074C1.14639 5.8219 1.5917 5.07101 2.47483 4.55846C4.01173 3.66711 3.65534 4.02126 4.53175 2.50603C5.05028 1.61019 5.80715 1.15293 6.84495 1.16488C6.9757 1.16638 7.1057 1.16488 7.23646 1.16488L7.23571 1.16339ZM10.9872 3.67383C6.94507 3.67458 3.66729 6.95459 3.66281 11.0019C3.65833 15.0799 6.93685 18.3637 11.0118 18.3629C15.0644 18.3629 18.3355 15.0762 18.3362 11.0057C18.3369 6.95085 15.0517 3.67308 10.9872 3.67383Z" fill="#7B68EE"/>
<path d="M8.96331 22.2721C8.85796 22.4551 8.76531 22.615 8.67341 22.7749C7.89263 24.128 7.11036 25.4811 6.33183 26.8357C6.21527 27.0389 6.08751 27.2205 5.82226 27.2003C5.57122 27.1809 5.46737 26.9949 5.38219 26.7879C5.24845 26.4621 4.99068 26.1341 5.00338 25.8158C5.01608 25.5095 5.30224 25.2129 5.47334 24.9155C6.03446 23.9405 6.60155 22.9677 7.15818 21.9897C7.2456 21.8365 7.34347 21.7864 7.52354 21.764C8.0839 21.6945 8.5053 21.9702 8.96331 22.2721Z" fill="#7B68EE"/>
<path d="M13.0645 22.266C13.506 21.929 13.9752 21.6802 14.552 21.7773C14.638 21.7915 14.7485 21.8453 14.7889 21.9156C15.5211 23.1678 16.2458 24.4245 16.9654 25.6842C17.0035 25.7515 17.0132 25.865 16.9848 25.936C16.854 26.264 16.7143 26.589 16.5604 26.9066C16.3773 27.2854 15.9589 27.3175 15.749 26.9574C14.8524 25.4242 13.9685 23.8836 13.0809 22.3444C13.0682 22.322 13.0697 22.2906 13.0645 22.2652V22.266Z" fill="#7B68EE"/>
<path d="M19.1866 18.6641C19.2531 18.7634 19.2912 18.815 19.3233 18.8703C20.1758 20.3459 21.0276 21.8215 21.8786 23.2979C21.9062 23.3465 21.9376 23.3936 21.9585 23.4451C22.0863 23.7582 21.889 24.0824 21.5521 24.069C21.162 24.0533 20.7728 24.001 20.3857 23.9494C20.3207 23.9405 20.246 23.8635 20.2087 23.7993C19.5392 22.6486 18.8713 21.4965 18.2138 20.3384C18.1704 20.2622 18.1719 20.1233 18.2123 20.0448C18.3841 19.7146 18.5649 19.3873 18.7704 19.078C18.872 18.9248 19.0349 18.812 19.1858 18.6656L19.1866 18.6641Z" fill="#7B68EE"/>
<path d="M2.86745 18.6543C3.04378 18.8814 3.22609 19.0854 3.37178 19.3126C3.55185 19.5935 3.82904 19.8946 3.82904 20.1867C3.82904 20.4796 3.54288 20.774 3.37552 21.0639C2.87418 21.9358 2.36686 22.8033 1.87075 23.6782C1.76615 23.8627 1.65781 23.9733 1.4247 23.9763C1.12807 23.98 0.832948 24.0488 0.536327 24.0682C0.0992411 24.0958 -0.13163 23.7499 0.0835508 23.3733C0.965942 21.8297 1.85954 20.2921 2.7494 18.7522C2.75837 18.7372 2.77705 18.7283 2.86745 18.6536V18.6543Z" fill="#7B68EE"/>
<path d="M6.27435 21.74C5.68485 22.7613 5.11402 23.7498 4.51107 24.7943C4.36388 24.4604 4.23163 24.1787 4.11657 23.8903C4.0553 23.7371 3.98358 23.6773 3.80575 23.708C3.50465 23.7603 3.19757 23.7767 2.82324 23.8148C3.39257 22.8271 3.93277 21.8894 4.4894 20.9241C5.00344 21.3641 5.58099 21.6406 6.27361 21.7407L6.27435 21.74Z" fill="#7B68EE"/>
<path d="M17.5092 20.9219C18.0636 21.8827 18.6053 22.8197 19.1769 23.8104C18.8182 23.7753 18.5149 23.7611 18.2183 23.711C18.039 23.6811 17.9485 23.72 17.8828 23.8926C17.7737 24.1772 17.6407 24.4522 17.4905 24.7936C16.8921 23.7573 16.3205 22.7681 15.7295 21.7452C16.4109 21.6332 16.9944 21.3732 17.5092 20.9219Z" fill="#7B68EE"/>
<path d="M11.0146 4.56891C14.5935 4.5846 17.4543 7.46788 17.4416 11.0468C17.4289 14.6167 14.5352 17.4813 10.9563 17.4671C7.40732 17.4529 4.54422 14.5539 4.55766 10.9877C4.57111 7.42753 7.46261 4.55322 11.0146 4.56891ZM12.952 9.143C12.9871 8.75896 13.0244 8.40929 13.0498 8.05888C13.1044 7.30201 12.686 6.65422 12.0509 6.5018C11.3986 6.3449 10.8353 6.6744 10.5155 7.40287C10.2644 7.9737 10.0067 8.54229 9.77431 9.12058C9.68166 9.35145 9.5666 9.44933 9.30509 9.43813C8.76565 9.41496 8.22396 9.42766 7.68302 9.43215C7.14506 9.43663 6.91494 9.66825 6.91419 10.2002C6.9127 11.4592 6.91345 12.7181 6.91419 13.9763C6.91419 14.5457 7.13983 14.7728 7.70917 14.7728C9.62936 14.7736 11.5503 14.7736 13.4705 14.7728C14.1429 14.7728 14.4889 14.4777 14.586 13.812C14.7459 12.7151 14.8916 11.6161 15.0567 10.52C15.1777 9.71457 14.713 9.15196 13.8941 9.14375C13.5893 9.14076 13.2844 9.14375 12.952 9.14375V9.143Z" fill="#7B68EE"/>
<path d="M9.95113 13.8783C9.94291 13.7797 9.93245 13.708 9.93245 13.6363C9.9317 12.5828 9.93394 11.5293 9.92871 10.4758C9.92871 10.3323 9.97354 10.2546 10.0923 10.1605C10.2537 10.0335 10.4039 9.86163 10.4913 9.67708C10.7857 9.0547 11.0494 8.41812 11.3266 7.78827C11.3677 7.69488 11.4081 7.597 11.4701 7.51855C11.6561 7.28095 11.9602 7.30935 12.073 7.59028C12.1358 7.74718 12.1537 7.93546 12.1425 8.10581C12.1149 8.55187 12.0589 8.99642 12.0178 9.44173C11.9804 9.85192 12.1448 10.035 12.5542 10.038C12.992 10.0417 13.4306 10.035 13.8685 10.0402C14.1546 10.0432 14.2107 10.1179 14.1703 10.4018C14.0239 11.4344 13.8707 12.4662 13.7385 13.501C13.7033 13.7775 13.6241 13.8948 13.3126 13.8873C12.2972 13.8641 11.2811 13.8791 10.2649 13.8791H9.95038L9.95113 13.8783Z" fill="#7B68EE"/>
<path d="M9.01685 13.8626H7.82812V10.342H9.01685V13.8626Z" fill="#7B68EE"/>
</g>
<defs>
<clipPath id="clip0_1557_2012">
<rect width="22" height="27.2107" fill="white"/>
</clipPath>
</defs>
</svg>
