<svg width="64" height="64" viewBox="0 0 64 64" fill="none" xmlns="http://www.w3.org/2000/svg">
<path d="M59.3333 0H4.66667C2.09333 0 0 2.09333 0 4.66667V11.3333C0 13.9067 2.09333 16 4.66667 16H59.3333C61.9067 16 64 13.9067 64 11.3333V4.66667C64 2.09333 61.9067 0 59.3333 0Z" fill="black"/>
<path d="M62 20H2C0.896 20 0 20.896 0 22C0 23.104 0.896 24 2 24H62C63.104 24 64 23.104 64 22C64 20.896 63.104 20 62 20Z" fill="black"/>
<path d="M62 28H2C0.896 28 0 28.896 0 30C0 31.104 0.896 32 2 32H62C63.104 32 64 31.104 64 30C64 28.896 63.104 28 62 28Z" fill="black"/>
<path d="M62 36H2C0.896 36 0 36.896 0 38C0 39.104 0.896 40 2 40H62C63.104 40 64 39.104 64 38C64 36.896 63.104 36 62 36Z" fill="black"/>
<path d="M62 44H2C0.896 44 0 44.896 0 46C0 47.104 0.896 48 2 48H62C63.104 48 64 47.104 64 46C64 44.896 63.104 44 62 44Z" fill="black"/>
<path d="M62 52H2C0.896 52 0 52.896 0 54C0 55.104 0.896 56 2 56H62C63.104 56 64 55.104 64 54C64 52.896 63.104 52 62 52Z" fill="black"/>
<path d="M62 60H2C0.896 60 0 60.896 0 62C0 63.104 0.896 64 2 64H62C63.104 64 64 63.104 64 62C64 60.896 63.104 60 62 60Z" fill="black"/>
</svg>
