<svg width="374" height="409" viewBox="0 0 374 409" fill="none" xmlns="http://www.w3.org/2000/svg">
<g clip-path="url(#clip0_1335_11194)">
<path d="M32.1296 261.255L37.5439 262.81L40.4999 257.406C41.8183 257.543 43.1301 257.567 44.424 257.482L47.1859 262.98L52.6515 261.615L52.5132 255.451C53.7067 254.912 54.8534 254.275 55.9421 253.546L61.0865 256.93L65.1378 253.01L61.9477 247.749C62.7062 246.696 63.3799 245.568 63.9644 244.376L70.106 244.732L71.6587 239.307L66.2644 236.346C66.4005 235.025 66.4251 233.711 66.3403 232.415L71.8283 229.648L70.4652 224.172L64.3124 224.311C63.7748 223.115 63.139 221.966 62.4117 220.876L65.7893 215.724L61.8763 211.665L56.6248 214.861C55.574 214.101 54.4474 213.426 53.2583 212.841L53.6108 206.688L48.1964 205.133L45.2405 210.537C43.9221 210.4 42.6103 210.376 41.3164 210.461L38.5545 204.963L33.0889 206.328L33.2272 212.492C32.0336 213.031 30.887 213.668 29.7983 214.396L24.6539 211.013L20.6026 214.933L23.7927 220.194C23.0342 221.247 22.3605 222.375 21.776 223.567L15.6344 223.213L14.0817 228.638L19.476 231.599C19.3399 232.92 19.3153 234.234 19.4001 235.53L13.9121 238.297L15.2752 243.773L21.428 243.634C21.9656 244.83 22.6014 245.979 23.3287 247.07L19.9511 252.223L23.8641 256.282L29.1156 253.086C30.1664 253.846 31.293 254.521 32.4821 255.107L32.1296 261.259V261.255ZM28.9327 229.968C31.1413 222.257 39.1703 217.798 46.8691 220.011C54.5656 222.223 59.0163 230.267 56.8077 237.98C54.5991 245.693 46.5701 250.149 38.8713 247.937C31.1747 245.724 26.7241 237.68 28.9327 229.968Z" fill="white"/>
<path d="M47.1832 263.476C47.0003 263.476 46.8263 263.374 46.7415 263.204L44.1269 257.996C43.0271 258.054 41.9005 258.032 40.7761 257.931L37.9763 263.052C37.8648 263.255 37.6283 263.354 37.4075 263.289L31.9931 261.733C31.77 261.668 31.6228 261.461 31.6362 261.23L31.9708 255.402C30.9624 254.89 29.9987 254.311 29.0952 253.676L24.1225 256.704C23.9262 256.823 23.6719 256.792 23.5112 256.626L19.5983 252.568C19.4376 252.402 19.4131 252.145 19.5403 251.953L22.7394 247.072C22.1326 246.133 21.5882 245.15 21.1175 244.139L15.2904 244.269C15.2904 244.269 15.2837 244.269 15.2793 244.269C15.0539 244.269 14.8554 244.115 14.7996 243.894L13.4365 238.418C13.3808 238.194 13.4879 237.96 13.6931 237.857L18.8911 235.238C18.8331 234.134 18.8554 233.007 18.9558 231.878L13.8448 229.074C13.6418 228.962 13.5436 228.725 13.6083 228.504L15.161 223.079C15.2235 222.858 15.4176 222.706 15.663 222.722L21.4789 223.057C21.9898 222.047 22.5676 221.081 23.2012 220.176L20.1805 215.194C20.0601 214.998 20.0935 214.743 20.2586 214.582L24.3099 210.662C24.4772 210.501 24.7315 210.479 24.9234 210.604L29.7957 213.809C30.7326 213.201 31.7142 212.655 32.7226 212.184L32.5932 206.346C32.5887 206.116 32.7427 205.91 32.968 205.854L38.4337 204.489C38.659 204.433 38.891 204.54 38.9936 204.746L41.6082 209.953C42.7125 209.895 43.8347 209.918 44.959 210.018L47.7588 204.898C47.8703 204.694 48.1068 204.596 48.3277 204.661L53.7421 206.216C53.9651 206.281 54.1124 206.489 54.099 206.719L53.7644 212.546C54.7727 213.058 55.7365 213.637 56.6422 214.271L61.6149 211.243C61.8112 211.124 62.0655 211.156 62.2261 211.321L66.1391 215.38C66.2997 215.545 66.3243 215.802 66.1971 215.994L62.998 220.876C63.6048 221.814 64.1492 222.798 64.6199 223.808L70.447 223.678C70.447 223.678 70.4537 223.678 70.4581 223.678C70.6834 223.678 70.882 223.833 70.9378 224.054L72.3008 229.529C72.3566 229.753 72.2495 229.988 72.0443 230.09L66.8463 232.71C66.9043 233.816 66.882 234.943 66.7816 236.067L71.8926 238.872C72.0956 238.983 72.1938 239.22 72.1291 239.442L70.5764 244.866C70.5139 245.087 70.3109 245.237 70.0744 245.223L64.2585 244.888C63.7476 245.898 63.1698 246.864 62.5362 247.769L65.5569 252.751C65.6773 252.948 65.6439 253.202 65.4788 253.363L61.4275 257.283C61.2624 257.444 61.0058 257.467 60.814 257.341L55.9417 254.137C55.007 254.744 54.0231 255.29 53.0148 255.761L53.1442 261.599C53.1486 261.829 52.9947 262.035 52.7694 262.091L47.3037 263.456C47.2635 263.465 47.2234 263.472 47.1832 263.472V263.476ZM44.4214 256.986C44.6066 256.986 44.7783 257.091 44.8631 257.259L47.4465 262.404L52.1447 261.23L52.0153 255.462C52.0109 255.263 52.1269 255.082 52.3054 254.999C53.4699 254.474 54.5987 253.846 55.6628 253.135C55.8279 253.026 56.0421 253.023 56.2072 253.135L61.0215 256.302L64.5061 252.932L61.5212 248.008C61.4185 247.838 61.4275 247.624 61.5435 247.463C62.2797 246.439 62.9445 245.328 63.5156 244.162C63.6026 243.983 63.7766 243.874 63.9863 243.887L69.7331 244.218L71.0694 239.553L66.0209 236.782C65.8469 236.686 65.7465 236.496 65.7666 236.297C65.8982 235.007 65.925 233.713 65.8402 232.451C65.8268 232.252 65.9339 232.066 66.1101 231.977L71.2456 229.389L70.0744 224.682L64.3165 224.811C64.1157 224.818 63.9372 224.702 63.8547 224.521C63.3304 223.354 62.7058 222.223 61.9941 221.157C61.8848 220.992 61.8826 220.777 61.9941 220.612L65.1553 215.791L61.7911 212.3L56.8765 215.29C56.7069 215.393 56.4927 215.384 56.3321 215.268C55.3104 214.531 54.2016 213.865 53.0371 213.292C52.8586 213.205 52.7493 213.017 52.7627 212.821L53.0929 207.064L48.437 205.725L45.6707 210.783C45.5748 210.957 45.3918 211.057 45.1866 211.037C43.8971 210.905 42.6032 210.879 41.3472 210.964C41.142 210.977 40.9635 210.87 40.8743 210.693L38.2909 205.548L33.5926 206.722L33.722 212.49C33.7265 212.689 33.6105 212.87 33.4298 212.953C32.2653 213.478 31.1364 214.104 30.0723 214.817C29.9072 214.926 29.693 214.928 29.528 214.817L24.7137 211.65L21.229 215.02L24.214 219.944C24.3166 220.114 24.3077 220.328 24.1917 220.489C23.4555 221.513 22.7907 222.623 22.2196 223.79C22.1326 223.969 21.9519 224.078 21.7488 224.065L16.0021 223.734L14.6658 228.399L19.7143 231.17C19.8883 231.266 19.9887 231.456 19.9686 231.655C19.8347 232.949 19.8102 234.243 19.895 235.504C19.9084 235.702 19.8013 235.888 19.625 235.977L14.4895 238.565L15.6607 243.272L21.4164 243.143C21.6128 243.136 21.7957 243.252 21.8782 243.433C22.4003 244.598 23.0271 245.729 23.7388 246.797C23.8481 246.962 23.8503 247.177 23.7388 247.342L20.5776 252.165L23.9418 255.656L28.8565 252.666C29.026 252.563 29.2424 252.572 29.4008 252.688C30.4225 253.426 31.5313 254.092 32.6958 254.664C32.8743 254.751 32.9814 254.939 32.9702 255.136L32.6401 260.893L37.2959 262.232L40.0622 257.174C40.1582 257 40.3433 256.899 40.5463 256.919C41.838 257.051 43.1297 257.078 44.3879 256.993C44.3991 256.993 44.4102 256.993 44.4214 256.993V256.986ZM42.8932 249.001C41.5034 249.001 40.1091 248.806 38.7371 248.411C30.7906 246.126 26.1794 237.792 28.4594 229.829C29.5637 225.971 32.1002 222.778 35.6027 220.833C39.1052 218.889 43.1565 218.426 47.0048 219.532C54.9512 221.817 59.5624 230.151 57.2825 238.114C56.1782 241.972 53.6417 245.165 50.1392 247.11C47.8837 248.361 45.403 248.998 42.8932 248.998V249.001ZM29.4075 230.104C27.277 237.542 31.5848 245.328 39.0092 247.461C42.6054 248.493 46.389 248.062 49.6595 246.247C52.9322 244.43 55.3014 241.446 56.3344 237.844C58.4649 230.406 54.157 222.619 46.7326 220.487C43.1364 219.454 39.3528 219.886 36.0823 221.703C32.8096 223.52 30.4404 226.503 29.4075 230.106V230.104Z" fill="black"/>
<path d="M31.658 368.603L40.9229 371.265L45.9803 362.016C48.2358 362.249 50.48 362.294 52.6953 362.146L57.4204 371.555L66.7722 369.22L66.5358 358.673C68.577 357.752 70.5402 356.661 72.403 355.417L81.2039 361.207L88.1375 354.5L82.6785 345.498C83.9769 343.694 85.128 341.765 86.1275 339.725L96.6372 340.33L99.2942 331.049L90.0627 325.982C90.2948 323.722 90.3394 321.474 90.1921 319.257L99.5842 314.523L97.2529 305.154L86.7253 305.391C85.8062 303.346 84.7198 301.379 83.4749 299.513L89.2552 290.696L82.5603 283.75L73.5742 289.219C71.7739 287.918 69.8486 286.765 67.8118 285.764L68.4164 275.235L59.1515 272.573L54.0941 281.821C51.8387 281.589 49.5944 281.544 47.3791 281.691L42.6541 272.282L33.3022 274.618L33.5387 285.165C31.4974 286.085 29.5342 287.176 27.6714 288.421L18.8705 282.63L11.9369 289.337L17.3959 298.34C16.0976 300.143 14.9464 302.072 13.947 304.113L3.43724 303.507L0.78025 312.789L10.0117 317.856C9.77967 320.115 9.73505 322.364 9.88229 324.583L0.490234 329.317L2.82152 338.686L13.3491 338.449C14.2682 340.494 15.3569 342.46 16.5995 344.327L10.8193 353.144L17.5142 360.09L26.5002 354.621C28.3005 355.922 30.2258 357.075 32.2626 358.076L31.658 368.605V368.603ZM26.1901 315.064C29.9692 301.869 43.7093 294.239 56.8827 298.025C70.0539 301.811 77.6702 315.576 73.891 328.773C70.1119 341.969 56.3718 349.599 43.1984 345.813C30.0272 342.027 22.411 328.262 26.1901 315.064Z" fill="white"/>
<path d="M57.4222 372.051C57.2393 372.051 57.0653 371.949 56.9805 371.779L52.4005 362.66C50.386 362.776 48.3202 362.736 46.2588 362.542L41.3575 371.504C41.246 371.707 41.0095 371.806 40.7887 371.741L31.5238 369.079C31.3007 369.014 31.1535 368.806 31.1668 368.576L31.7536 358.373C29.8997 357.444 28.1284 356.382 26.482 355.211L17.7748 360.51C17.5785 360.628 17.3242 360.597 17.1635 360.432L10.4686 353.485C10.308 353.32 10.2835 353.063 10.4106 352.871L16.0124 344.327C14.8903 342.615 13.8908 340.809 13.0386 338.949L2.83675 339.177C2.59358 339.184 2.40172 339.027 2.34595 338.802L0.0146677 329.433C-0.0411046 329.209 0.0659782 328.975 0.27122 328.872L9.37326 324.286C9.25725 322.267 9.29741 320.2 9.49149 318.13L0.54562 313.22C0.342609 313.108 0.244449 312.872 0.309145 312.65L2.96614 303.368C3.0286 303.147 3.22046 302.995 3.46809 303.011L13.6521 303.599C14.5802 301.741 15.6398 299.969 16.8066 298.317L11.5171 289.594C11.3967 289.398 11.4301 289.143 11.5952 288.982L18.5288 282.275C18.6939 282.114 18.9505 282.092 19.1423 282.217L27.671 287.829C29.3799 286.705 31.1825 285.703 33.0386 284.849L32.811 274.629C32.8065 274.399 32.9605 274.193 33.1858 274.137L42.5377 271.802C42.763 271.746 42.995 271.853 43.0976 272.059L47.6754 281.177C49.6899 281.061 51.7535 281.101 53.8193 281.296L58.7206 272.334C58.8321 272.13 59.0686 272.032 59.2895 272.097L68.5543 274.759C68.7774 274.823 68.9247 275.031 68.9113 275.261L68.3246 285.464C70.1784 286.394 71.9498 287.455 73.5962 288.627L82.3033 283.327C82.4996 283.209 82.754 283.24 82.9146 283.406L89.6095 290.352C89.7701 290.517 89.7947 290.774 89.6675 290.967L84.0657 299.511C85.1856 301.221 86.1851 303.027 87.0395 304.888L97.2414 304.66C97.2414 304.66 97.2481 304.66 97.2525 304.66C97.4779 304.66 97.6764 304.814 97.7322 305.036L100.063 314.405C100.119 314.628 100.012 314.863 99.8069 314.966L90.7049 319.552C90.8209 321.57 90.7807 323.637 90.5866 325.707L99.5325 330.617C99.7355 330.729 99.8337 330.966 99.769 331.187L97.112 340.469C97.0495 340.69 96.8465 340.84 96.61 340.827L86.426 340.239C85.498 342.096 84.4383 343.871 83.2693 345.52L88.561 354.243C88.6814 354.44 88.648 354.695 88.4829 354.856L81.5493 361.563C81.3842 361.724 81.1276 361.746 80.9358 361.621L72.4071 356.009C70.7005 357.131 68.8979 358.132 67.0418 358.988L67.2694 369.209C67.2738 369.439 67.1199 369.644 66.8946 369.7L57.5427 372.036C57.5025 372.045 57.4624 372.051 57.4222 372.051ZM52.6949 361.652C52.8801 361.652 53.0519 361.757 53.1367 361.925L57.6854 370.981L66.2721 368.838L66.0446 358.686C66.0401 358.487 66.1561 358.306 66.3346 358.224C68.3469 357.316 70.2967 356.235 72.1282 355.005C72.2933 354.896 72.5075 354.894 72.6726 355.005L81.1455 360.579L87.5125 354.422L82.2565 345.757C82.1539 345.587 82.1628 345.373 82.2788 345.212C83.5526 343.444 84.6971 341.526 85.6854 339.51C85.7724 339.331 85.9464 339.222 86.1561 339.235L96.2709 339.819L98.7115 331.297L89.8259 326.42C89.6519 326.324 89.5515 326.134 89.5716 325.935C89.7991 323.7 89.8437 321.465 89.6987 319.293C89.6853 319.094 89.7924 318.908 89.9687 318.819L99.0082 314.262L96.8688 305.659L86.7361 305.887C86.5309 305.894 86.3569 305.778 86.2743 305.597C85.3686 303.581 84.2888 301.627 83.0641 299.79C82.9525 299.625 82.9525 299.41 83.0618 299.245L88.6257 290.759L82.4796 284.38L73.8304 289.644C73.6609 289.746 73.4467 289.737 73.2861 289.621C71.5214 288.347 69.6073 287.198 67.5951 286.208C67.4166 286.121 67.3073 285.933 67.3207 285.737L67.9029 275.603L59.3965 273.158L54.5287 282.06C54.4328 282.235 54.2454 282.335 54.0446 282.315C51.8137 282.085 49.5828 282.042 47.4144 282.188C47.2092 282.201 47.0307 282.094 46.9415 281.917L42.3949 272.861L33.8082 275.004L34.0358 285.156C34.0402 285.355 33.9264 285.536 33.7435 285.618C31.7335 286.526 29.7837 287.607 27.9499 288.834C27.7848 288.944 27.5706 288.946 27.4056 288.834L18.9349 283.26L12.5679 289.418L17.8216 298.083C17.9243 298.253 17.9153 298.467 17.7993 298.628C16.5277 300.396 15.381 302.314 14.3928 304.33C14.3058 304.508 14.1273 304.618 13.922 304.604L3.80718 304.021L1.36659 312.543L10.2522 317.42C10.4262 317.516 10.5266 317.706 10.5065 317.905C10.2768 320.14 10.2344 322.375 10.3794 324.547C10.3928 324.746 10.2857 324.931 10.1095 325.021L1.06988 329.578L3.2093 338.18L13.342 337.952C13.5361 337.941 13.7213 338.062 13.8038 338.243C14.7073 340.254 15.7871 342.208 17.0141 344.049C17.1234 344.215 17.1256 344.429 17.0163 344.595L11.4524 353.081L17.5986 359.46L26.2477 354.196C26.4173 354.093 26.6314 354.102 26.7921 354.219C28.5567 355.493 30.4708 356.641 32.4831 357.631C32.6615 357.719 32.7708 357.906 32.7575 358.103L32.1752 368.236L40.6816 370.681L45.5494 361.779C45.6453 361.605 45.8283 361.505 46.0335 361.525C48.2622 361.755 50.493 361.797 52.6637 361.652C52.6749 361.652 52.686 361.652 52.6972 361.652H52.6949ZM50.029 347.274C47.7245 347.274 45.3843 346.957 43.0619 346.289C36.5634 344.423 31.1825 340.132 27.9053 334.209C24.6281 328.286 23.8517 321.438 25.7145 314.93C27.5773 308.422 31.8606 303.029 37.7725 299.746C43.6844 296.462 50.5176 295.685 57.0162 297.551C63.5148 299.417 68.8957 303.708 72.1729 309.631C75.4478 315.554 76.2264 322.402 74.3636 328.91C71.1823 340.02 61.0318 347.274 50.029 347.274ZM26.1897 315.064L26.6649 315.2C24.8735 321.456 25.6208 328.036 28.7709 333.728C31.9186 339.421 37.0921 343.542 43.3363 345.337C45.5672 345.978 47.8182 346.284 50.0313 346.284C60.6057 346.284 70.3591 339.314 73.4177 328.637C75.2091 322.381 74.4617 315.802 71.3117 310.109C68.1639 304.417 62.9905 300.295 56.7462 298.501C50.502 296.706 43.9342 297.455 38.2544 300.611C32.5723 303.764 28.4585 308.947 26.6671 315.203L26.1919 315.066L26.1897 315.064Z" fill="black"/>
<path d="M225.294 241.377C229.274 236.08 203.036 226.599 203.389 207.991C203.712 190.99 225.85 186.622 225.198 171.047C224.5 154.381 198.804 151.12 198.793 134.132C198.784 121.039 214.041 119.068 215.28 105.064C216.768 88.239 195.19 86.0018 188.181 63.7817C181.633 43.03 196.69 33.0597 185.705 16.6282C184.275 14.4893 175.36 1.70754 162.718 1.52204C142.151 1.21808 115.583 34.2957 119.494 62.9145C122.787 87.012 145.225 89.9197 146.539 115.519C147.652 137.218 131.826 140.848 136.975 157.68C143.068 177.598 167.269 179.164 172.248 201.612C174.856 213.371 169.038 216.647 173.812 224.963C183.891 242.528 220.913 247.215 225.298 241.377H225.294Z" fill="white"/>
<path d="M215.866 244.256C214.912 244.256 213.903 244.224 212.844 244.157C200.926 243.42 180.583 237.763 173.379 225.211C170.724 220.587 171.246 217.414 171.851 213.739C172.364 210.61 172.948 207.064 171.762 201.722C169.187 190.113 161.27 184.079 153.613 178.241C146.646 172.931 139.44 167.44 136.5 157.825C133.801 149.006 136.692 143.798 140.041 137.77C143.106 132.25 146.579 125.992 146.044 115.546C145.37 102.384 139.173 95.4535 132.612 88.1138C126.707 81.5072 120.601 74.6771 119.001 62.9815C116.547 45.0146 125.819 27.1326 135.316 16.3891C144.058 6.49931 154.064 0.900705 162.722 1.0281C175.356 1.21584 184.424 13.8278 186.113 16.3533C192.094 25.2977 190.477 32.5099 188.763 40.1446C187.226 46.997 185.636 54.0841 188.649 63.6341C192 74.257 198.724 80.2556 204.654 85.5503C211.043 91.2539 216.56 96.1776 215.77 105.109C215.139 112.252 210.994 116.306 206.983 120.226C203.023 124.099 199.282 127.758 199.286 134.132C199.293 142.493 205.606 147.361 212.29 152.512C218.704 157.458 225.336 162.57 225.691 171.027C226.024 178.979 220.73 183.956 215.126 189.224C209.676 194.347 204.043 199.641 203.884 208C203.679 218.857 212.761 226.573 219.393 232.207C224.145 236.243 227.579 239.16 225.691 241.672C224.433 243.346 220.919 244.253 215.869 244.253L215.866 244.256ZM162.441 2.01372C154.229 2.01372 144.391 7.61233 136.054 17.0439C126.702 27.6243 117.569 45.2113 119.978 62.8474C121.535 74.2436 127.539 80.9597 133.346 87.4545C139.733 94.5975 146.336 101.986 147.028 115.494C147.579 126.225 144.029 132.612 140.902 138.251C137.665 144.082 134.867 149.117 137.444 157.537C140.293 166.845 147.052 171.999 154.211 177.455C162.01 183.4 170.073 189.546 172.728 201.507C173.952 207.037 173.354 210.684 172.826 213.9C172.228 217.532 171.757 220.4 174.236 224.72C181.245 236.934 201.2 242.448 212.904 243.172C219.05 243.552 223.645 242.752 224.901 241.082C226.229 239.316 222.929 236.514 218.755 232.965C211.971 227.203 202.684 219.311 202.898 207.984C203.066 199.21 208.855 193.768 214.452 188.507C219.889 183.397 225.022 178.572 224.707 171.072C224.373 163.077 218.213 158.328 211.69 153.299C205.111 148.226 198.307 142.982 198.3 134.134C198.296 127.34 202.363 123.364 206.296 119.52C210.178 115.725 214.191 111.8 214.789 105.024C215.534 96.5866 210.189 91.8149 203.998 86.2901C197.972 80.9105 191.144 74.8157 187.71 63.9336C184.616 54.1288 186.309 46.5858 187.802 39.93C189.54 32.1859 191.039 25.4988 185.294 16.9076C183.652 14.4536 174.851 2.19922 162.711 2.02043C162.624 2.02043 162.535 2.02043 162.445 2.02043L162.441 2.01372Z" fill="black"/>
<path d="M216.937 238.373C216.887 238.373 216.838 238.367 216.789 238.351C200.892 233.416 190.862 226.465 186.976 217.689C184.024 211.022 185.7 205.644 187.473 199.95C189.256 194.228 191.098 188.312 188.461 180.414C185.673 172.057 180.662 168.302 175.819 164.671C171.116 161.146 166.675 157.816 164.698 150.689C161.9 140.607 167.134 133.439 172.196 126.508C177.095 119.799 182.164 112.859 180.212 103.11C178.639 95.2478 173.517 90.6617 168.093 85.8073C162.228 80.5574 155.583 74.6056 152.47 63.5246C150.157 55.2821 150.398 46.4651 153.187 37.3151C153.265 37.0536 153.541 36.9061 153.802 36.9866C154.063 37.067 154.211 37.3419 154.13 37.6034C151.397 46.5679 151.159 55.1994 153.421 63.2564C156.453 74.0581 162.704 79.6544 168.749 85.0675C174.298 90.0359 179.54 94.7293 181.178 102.914C183.212 113.09 178.016 120.206 172.99 127.09C167.841 134.141 162.978 140.801 165.648 150.42C167.536 157.224 171.846 160.455 176.41 163.875C181.376 167.598 186.512 171.447 189.398 180.096C192.136 188.296 190.244 194.369 188.415 200.24C186.697 205.752 185.075 210.957 187.877 217.282C191.643 225.786 201.468 232.553 217.079 237.401C217.34 237.481 217.485 237.759 217.405 238.02C217.34 238.232 217.144 238.369 216.934 238.369L216.937 238.373Z" fill="black"/>
<path d="M234.73 313.683C236.524 309.588 213.776 303.469 194.652 274.631C183.074 257.169 178.621 240.119 174.577 224.112C164.571 184.506 172.783 176.746 162.171 158.314C149.434 136.195 133.37 144.708 115.242 121.929C92.8814 93.8331 109.609 71.1973 86.6907 45.8974C74.1687 32.0719 51.9156 19.7773 32.3573 26.0799C20.5202 29.895 8.15217 41.0118 7.82869 53.1141C7.51636 64.7941 18.6574 68.6941 27.3735 82.9175C42.9385 108.313 24.373 123.529 34.2938 149.267C47.7549 184.198 90.0326 177.155 108.105 218.779C115.384 235.544 109.131 238.08 115.585 254.09C137.365 308.118 231.19 321.776 234.735 313.683H234.73Z" fill="white"/>
<path d="M225.607 316.329C225.321 316.329 225.04 316.327 224.764 316.322C211.648 316.128 188.739 311.573 167.126 301.835C148.826 293.591 124.951 278.645 115.127 254.275C111.968 246.442 111.818 241.735 111.675 237.182C111.517 232.223 111.37 227.538 107.653 218.978C98.3659 197.585 82.7764 189.217 67.6978 181.122C53.6566 173.584 40.3917 166.463 33.8351 149.446C29.2506 137.551 30.6895 127.865 32.0816 118.498C33.7392 107.341 35.3052 96.8012 26.955 83.1768C23.5507 77.6206 19.7738 73.6535 16.4408 70.1536C11.2473 64.698 7.14247 60.389 7.33879 53.103C7.66673 40.8061 20.2423 29.4681 32.2088 25.6106C51.767 19.3057 74.3503 31.5355 87.0597 45.5666C98.7563 58.4803 100.195 70.5022 101.719 83.2326C103.167 95.3328 104.666 107.846 115.631 121.623C124.369 132.603 132.456 136.175 140.278 139.63C148.351 143.195 155.976 146.563 162.602 158.068C168.242 167.862 168.614 174.558 169.179 184.691C169.69 193.855 170.326 205.258 175.059 223.991C178.921 239.281 183.3 256.611 195.068 274.359C207.144 292.571 220.521 301.578 228.512 306.96C233.346 310.216 236.007 312.009 235.186 313.884C234.314 315.875 229.674 316.331 225.609 316.331L225.607 316.329ZM43.3476 24.8931C39.6845 24.8931 36.0437 25.4117 32.5077 26.5515C20.8669 30.304 8.63717 41.271 8.32261 53.1298C8.13968 60.0046 12.1174 64.1817 17.1525 69.4719C20.5189 73.0076 24.3337 77.0149 27.7938 82.6605C36.3337 96.5933 34.7408 107.306 33.0565 118.646C31.6823 127.885 30.2634 137.44 34.7542 149.091C41.1814 165.766 54.2879 172.801 68.164 180.251C83.3899 188.424 99.1333 196.877 108.557 218.583C112.349 227.317 112.507 232.316 112.661 237.151C112.802 241.616 112.949 246.236 116.041 253.906C132.976 295.915 196.242 314.912 224.777 315.335C231.16 315.428 233.861 314.441 234.281 313.486C234.771 312.369 231.914 310.444 227.958 307.78C219.907 302.358 206.428 293.282 194.243 274.906C182.381 257.017 177.982 239.6 174.1 224.235C169.344 205.407 168.706 193.953 168.193 184.747C167.635 174.755 167.267 168.153 161.745 158.562C155.283 147.338 148.144 144.185 139.878 140.535C132.318 137.196 123.747 133.41 114.857 122.24C103.718 108.244 102.203 95.5876 100.737 83.3511C99.2314 70.7816 97.8104 58.9117 86.3257 46.2327C76.135 34.9818 59.5126 24.8954 43.3498 24.8954L43.3476 24.8931Z" fill="black"/>
<path d="M218.369 311.738C218.305 311.738 218.24 311.725 218.178 311.701C199.501 303.851 184.56 294.585 173.772 284.157C165.035 275.711 158.791 266.268 155.217 256.085C151.476 245.431 151.054 235.345 150.644 225.594C150.031 210.995 149.453 197.205 137.861 183.259C129.696 173.434 121.152 169.545 112.888 165.784C103.682 161.593 94.9877 157.635 89.0156 145.638C84.8617 137.292 84.7859 130.589 84.7011 122.827C84.6163 115.164 84.5182 106.479 80.7435 93.7191C77.0067 81.0848 70.9945 69.0584 62.8785 57.9707C62.7179 57.7495 62.7647 57.4411 62.9856 57.2801C63.2064 57.1192 63.5143 57.1662 63.6772 57.3874C71.8623 68.5667 77.9236 80.6959 81.6938 93.4398C85.5087 106.333 85.6046 115.092 85.6916 122.818C85.7808 130.773 85.8522 137.055 89.9035 145.197C95.7195 156.879 103.867 160.587 113.301 164.883C121.274 168.512 130.312 172.627 138.624 182.626C150.43 196.83 151.014 210.78 151.635 225.551C152.041 235.231 152.46 245.241 156.152 255.757C164.023 278.176 185.02 296.693 218.563 310.789C218.816 310.894 218.934 311.184 218.827 311.437C218.749 311.627 218.563 311.741 218.372 311.741L218.369 311.738Z" fill="black"/>
<path d="M192.775 0H346.879C351.311 0 354.91 3.60501 354.91 8.0459V309.512C354.91 313.321 351.825 316.412 348.023 316.412H192.778V0H192.775Z" fill="black"/>
<path d="M338.743 0.540863H189.479C185.925 0.540863 183.045 3.42668 183.045 6.98652V310.237C183.045 313.796 185.925 316.682 189.479 316.682H338.743C342.297 316.682 345.177 313.796 345.177 310.237V6.98652C345.177 3.42668 342.297 0.540863 338.743 0.540863Z" fill="white"/>
<path d="M231.267 100.218H212.947C211.719 100.218 210.725 101.215 210.725 102.444V119.108C210.725 120.338 211.719 121.334 212.947 121.334H231.267C232.494 121.334 233.489 120.338 233.489 119.108V102.444C233.489 101.215 232.494 100.218 231.267 100.218Z" fill="black"/>
<path d="M260.152 100.218H241.591C240.364 100.218 239.369 101.215 239.369 102.444V119.108C239.369 120.338 240.364 121.334 241.591 121.334H260.152C261.379 121.334 262.374 120.338 262.374 119.108V102.444C262.374 101.215 261.379 100.218 260.152 100.218Z" fill="black"/>
<path d="M288.858 100.489H270.779C269.551 100.489 268.557 101.485 268.557 102.715V119.379C268.557 120.608 269.551 121.605 270.779 121.605H288.858C290.085 121.605 291.08 120.608 291.08 119.379V102.715C291.08 101.485 290.085 100.489 288.858 100.489Z" fill="black"/>
<path d="M317.233 100.489H299.154C297.926 100.489 296.932 101.485 296.932 102.715V119.379C296.932 120.608 297.926 121.605 299.154 121.605H317.233C318.46 121.605 319.455 120.608 319.455 119.379V102.715C319.455 101.485 318.46 100.489 317.233 100.489Z" fill="black"/>
<path d="M231.267 128.915H212.947C211.719 128.915 210.725 129.912 210.725 131.142V147.805C210.725 149.035 211.719 150.031 212.947 150.031H231.267C232.494 150.031 233.489 149.035 233.489 147.805V131.142C233.489 129.912 232.494 128.915 231.267 128.915Z" fill="black"/>
<path d="M260.152 128.915H241.591C240.364 128.915 239.369 129.912 239.369 131.142V147.805C239.369 149.035 240.364 150.031 241.591 150.031H260.152C261.379 150.031 262.374 149.035 262.374 147.805V131.142C262.374 129.912 261.379 128.915 260.152 128.915Z" fill="black"/>
<path d="M288.858 129.186H270.779C269.551 129.186 268.557 130.183 268.557 131.412V148.076C268.557 149.305 269.551 150.302 270.779 150.302H288.858C290.085 150.302 291.08 149.305 291.08 148.076V131.412C291.08 130.183 290.085 129.186 288.858 129.186Z" fill="black"/>
<path d="M317.233 129.186H299.154C297.926 129.186 296.932 130.183 296.932 131.412V148.076C296.932 149.305 297.926 150.302 299.154 150.302H317.233C318.46 150.302 319.455 149.305 319.455 148.076V131.412C319.455 130.183 318.46 129.186 317.233 129.186Z" fill="black"/>
<path d="M231.851 157.615H213.531C212.303 157.615 211.309 158.611 211.309 159.841V176.505C211.309 177.734 212.303 178.731 213.531 178.731H231.851C233.078 178.731 234.073 177.734 234.073 176.505V159.841C234.073 158.611 233.078 157.615 231.851 157.615Z" fill="black"/>
<path d="M260.248 157.615H241.687C240.46 157.615 239.465 158.611 239.465 159.841V176.505C239.465 177.734 240.46 178.731 241.687 178.731H260.248C261.475 178.731 262.47 177.734 262.47 176.505V159.841C262.47 158.611 261.475 157.615 260.248 157.615Z" fill="black"/>
<path d="M289.436 157.885H271.357C270.13 157.885 269.135 158.882 269.135 160.111V176.775C269.135 178.005 270.13 179.001 271.357 179.001H289.436C290.663 179.001 291.658 178.005 291.658 176.775V160.111C291.658 158.882 290.663 157.885 289.436 157.885Z" fill="black"/>
<path d="M317.809 157.885H299.73C298.503 157.885 297.508 158.882 297.508 160.111V176.775C297.508 178.005 298.503 179.001 299.73 179.001H317.809C319.036 179.001 320.031 178.005 320.031 176.775V160.111C320.031 158.882 319.036 157.885 317.809 157.885Z" fill="black"/>
<path d="M231.849 186.312H213.529C212.301 186.312 211.307 187.308 211.307 188.538V205.202C211.307 206.431 212.301 207.428 213.529 207.428H231.849C233.076 207.428 234.071 206.431 234.071 205.202V188.538C234.071 187.308 233.076 186.312 231.849 186.312Z" fill="black"/>
<path d="M260.742 186.312H242.181C240.954 186.312 239.959 187.308 239.959 188.538V205.202C239.959 206.431 240.954 207.428 242.181 207.428H260.742C261.969 207.428 262.964 206.431 262.964 205.202V188.538C262.964 187.308 261.969 186.312 260.742 186.312Z" fill="black"/>
<path d="M289.432 186.582H271.353C270.126 186.582 269.131 187.579 269.131 188.808V205.472C269.131 206.702 270.126 207.698 271.353 207.698H289.432C290.659 207.698 291.654 206.702 291.654 205.472V188.808C291.654 187.579 290.659 186.582 289.432 186.582Z" fill="black"/>
<path d="M317.809 186.582H299.73C298.503 186.582 297.508 187.579 297.508 188.808V205.472C297.508 206.702 298.503 207.698 299.73 207.698H317.809C319.036 207.698 320.031 206.702 320.031 205.472V188.808C320.031 187.579 319.036 186.582 317.809 186.582Z" fill="black"/>
<path d="M229.002 101.065H212.368C211.141 101.065 210.146 102.062 210.146 103.292V119.955C210.146 121.185 211.141 122.182 212.368 122.182H229.002C230.229 122.182 231.224 121.185 231.224 119.955V103.292C231.224 102.062 230.229 101.065 229.002 101.065Z" fill="white"/>
<path d="M229.003 122.678H212.369C210.872 122.678 209.654 121.457 209.654 119.958V103.294C209.654 101.794 210.872 100.574 212.369 100.574H229.003C230.5 100.574 231.718 101.794 231.718 103.294V119.958C231.718 121.457 230.5 122.678 229.003 122.678ZM212.369 101.562C211.417 101.562 210.64 102.339 210.64 103.294V119.958C210.64 120.912 211.417 121.69 212.369 121.69H229.003C229.955 121.69 230.732 120.912 230.732 119.958V103.294C230.732 102.339 229.955 101.562 229.003 101.562H212.369Z" fill="black"/>
<path d="M257.647 101.065H241.013C239.786 101.065 238.791 102.062 238.791 103.292V119.955C238.791 121.185 239.786 122.182 241.013 122.182H257.647C258.874 122.182 259.868 121.185 259.868 119.955V103.292C259.868 102.062 258.874 101.065 257.647 101.065Z" fill="white"/>
<path d="M257.647 122.678H241.014C239.517 122.678 238.299 121.457 238.299 119.958V103.294C238.299 101.794 239.517 100.574 241.014 100.574H257.647C259.144 100.574 260.362 101.794 260.362 103.294V119.958C260.362 121.457 259.144 122.678 257.647 122.678ZM241.014 101.562C240.061 101.562 239.285 102.339 239.285 103.294V119.958C239.285 120.912 240.061 121.69 241.014 121.69H257.647C258.6 121.69 259.376 120.912 259.376 119.958V103.294C259.376 102.339 258.6 101.562 257.647 101.562H241.014Z" fill="black"/>
<path d="M286.834 101.336H270.201C268.973 101.336 267.979 102.333 267.979 103.562V120.226C267.979 121.455 268.973 122.452 270.201 122.452H286.834C288.061 122.452 289.056 121.455 289.056 120.226V103.562C289.056 102.333 288.061 101.336 286.834 101.336Z" fill="white"/>
<path d="M286.835 122.948H270.201C268.704 122.948 267.486 121.728 267.486 120.228V103.564C267.486 102.065 268.704 100.844 270.201 100.844H286.835C288.332 100.844 289.55 102.065 289.55 103.564V120.228C289.55 121.728 288.332 122.948 286.835 122.948ZM270.201 101.832C269.249 101.832 268.472 102.61 268.472 103.564V120.228C268.472 121.182 269.249 121.96 270.201 121.96H286.835C287.787 121.96 288.564 121.182 288.564 120.228V103.564C288.564 102.61 287.787 101.832 286.835 101.832H270.201Z" fill="black"/>
<path d="M315.209 101.336H298.575C297.348 101.336 296.354 102.333 296.354 103.562V120.226C296.354 121.455 297.348 122.452 298.575 122.452H315.209C316.436 122.452 317.431 121.455 317.431 120.226V103.562C317.431 102.333 316.436 101.336 315.209 101.336Z" fill="white"/>
<path d="M315.21 122.948H298.576C297.079 122.948 295.861 121.728 295.861 120.228V103.564C295.861 102.065 297.079 100.844 298.576 100.844H315.21C316.707 100.844 317.925 102.065 317.925 103.564V120.228C317.925 121.728 316.707 122.948 315.21 122.948ZM298.576 101.832C297.624 101.832 296.847 102.61 296.847 103.564V120.228C296.847 121.182 297.624 121.96 298.576 121.96H315.21C316.162 121.96 316.939 121.182 316.939 120.228V103.564C316.939 102.61 316.162 101.832 315.21 101.832H298.576Z" fill="black"/>
<path d="M229.002 129.763H212.368C211.141 129.763 210.146 130.759 210.146 131.989V148.653C210.146 149.882 211.141 150.879 212.368 150.879H229.002C230.229 150.879 231.224 149.882 231.224 148.653V131.989C231.224 130.759 230.229 129.763 229.002 129.763Z" fill="white"/>
<path d="M229.003 151.375H212.369C210.872 151.375 209.654 150.154 209.654 148.655V131.991C209.654 130.491 210.872 129.271 212.369 129.271H229.003C230.5 129.271 231.718 130.491 231.718 131.991V148.655C231.718 150.154 230.5 151.375 229.003 151.375ZM212.369 130.259C211.417 130.259 210.64 131.036 210.64 131.991V148.655C210.64 149.609 211.417 150.387 212.369 150.387H229.003C229.955 150.387 230.732 149.609 230.732 148.655V131.991C230.732 131.036 229.955 130.259 229.003 130.259H212.369Z" fill="black"/>
<path d="M257.647 129.763H241.013C239.786 129.763 238.791 130.759 238.791 131.989V148.653C238.791 149.882 239.786 150.879 241.013 150.879H257.647C258.874 150.879 259.868 149.882 259.868 148.653V131.989C259.868 130.759 258.874 129.763 257.647 129.763Z" fill="white"/>
<path d="M257.647 151.375H241.014C239.517 151.375 238.299 150.154 238.299 148.655V131.991C238.299 130.491 239.517 129.271 241.014 129.271H257.647C259.144 129.271 260.362 130.491 260.362 131.991V148.655C260.362 150.154 259.144 151.375 257.647 151.375ZM241.014 130.259C240.061 130.259 239.285 131.036 239.285 131.991V148.655C239.285 149.609 240.061 150.387 241.014 150.387H257.647C258.6 150.387 259.376 149.609 259.376 148.655V131.991C259.376 131.036 258.6 130.259 257.647 130.259H241.014Z" fill="black"/>
<path d="M286.834 130.035H270.201C268.973 130.035 267.979 131.032 267.979 132.261V148.925C267.979 150.155 268.973 151.151 270.201 151.151H286.834C288.061 151.151 289.056 150.155 289.056 148.925V132.261C289.056 131.032 288.061 130.035 286.834 130.035Z" fill="white"/>
<path d="M286.835 151.645H270.201C268.704 151.645 267.486 150.425 267.486 148.925V132.261C267.486 130.762 268.704 129.541 270.201 129.541H286.835C288.332 129.541 289.55 130.762 289.55 132.261V148.925C289.55 150.425 288.332 151.645 286.835 151.645ZM270.201 130.529C269.249 130.529 268.472 131.307 268.472 132.261V148.925C268.472 149.88 269.249 150.657 270.201 150.657H286.835C287.787 150.657 288.564 149.88 288.564 148.925V132.261C288.564 131.307 287.787 130.529 286.835 130.529H270.201Z" fill="black"/>
<path d="M315.209 130.033H298.575C297.348 130.033 296.354 131.03 296.354 132.259V148.923C296.354 150.152 297.348 151.149 298.575 151.149H315.209C316.436 151.149 317.431 150.152 317.431 148.923V132.259C317.431 131.03 316.436 130.033 315.209 130.033Z" fill="white"/>
<path d="M315.21 151.645H298.576C297.079 151.645 295.861 150.425 295.861 148.925V132.261C295.861 130.762 297.079 129.541 298.576 129.541H315.21C316.707 129.541 317.925 130.762 317.925 132.261V148.925C317.925 150.425 316.707 151.645 315.21 151.645ZM298.576 130.529C297.624 130.529 296.847 131.307 296.847 132.261V148.925C296.847 149.88 297.624 150.657 298.576 150.657H315.21C316.162 150.657 316.939 149.88 316.939 148.925V132.261C316.939 131.307 316.162 130.529 315.21 130.529H298.576Z" fill="black"/>
<path d="M229.541 158.464H212.908C211.68 158.464 210.686 159.461 210.686 160.69V177.354C210.686 178.583 211.68 179.58 212.908 179.58H229.541C230.768 179.58 231.763 178.583 231.763 177.354V160.69C231.763 159.461 230.768 158.464 229.541 158.464Z" fill="white"/>
<path d="M229.542 180.074H212.908C211.411 180.074 210.193 178.854 210.193 177.354V160.69C210.193 159.19 211.411 157.97 212.908 157.97H229.542C231.039 157.97 232.257 159.19 232.257 160.69V177.354C232.257 178.854 231.039 180.074 229.542 180.074ZM212.908 158.958C211.956 158.958 211.179 159.736 211.179 160.69V177.354C211.179 178.308 211.956 179.086 212.908 179.086H229.542C230.494 179.086 231.271 178.308 231.271 177.354V160.69C231.271 159.736 230.494 158.958 229.542 158.958H212.908Z" fill="black"/>
<path d="M258.188 158.464H241.554C240.327 158.464 239.332 159.461 239.332 160.69V177.354C239.332 178.583 240.327 179.58 241.554 179.58H258.188C259.415 179.58 260.409 178.583 260.409 177.354V160.69C260.409 159.461 259.415 158.464 258.188 158.464Z" fill="white"/>
<path d="M258.19 180.074H241.557C240.06 180.074 238.842 178.854 238.842 177.354V160.69C238.842 159.19 240.06 157.97 241.557 157.97H258.19C259.687 157.97 260.905 159.19 260.905 160.69V177.354C260.905 178.854 259.687 180.074 258.19 180.074ZM241.555 158.958C240.602 158.958 239.826 159.736 239.826 160.69V177.354C239.826 178.308 240.602 179.086 241.555 179.086H258.188C259.141 179.086 259.917 178.308 259.917 177.354V160.69C259.917 159.736 259.141 158.958 258.188 158.958H241.555Z" fill="black"/>
<path d="M287.373 158.734H270.74C269.512 158.734 268.518 159.731 268.518 160.961V177.624C268.518 178.854 269.512 179.851 270.74 179.851H287.373C288.6 179.851 289.595 178.854 289.595 177.624V160.961C289.595 159.731 288.6 158.734 287.373 158.734Z" fill="white"/>
<path d="M287.374 180.347H270.74C269.243 180.347 268.025 179.126 268.025 177.627V160.963C268.025 159.463 269.243 158.243 270.74 158.243H287.374C288.871 158.243 290.089 159.463 290.089 160.963V177.627C290.089 179.126 288.871 180.347 287.374 180.347ZM270.74 159.228C269.788 159.228 269.011 160.006 269.011 160.961V177.624C269.011 178.579 269.788 179.357 270.74 179.357H287.374C288.326 179.357 289.103 178.579 289.103 177.624V160.961C289.103 160.006 288.326 159.228 287.374 159.228H270.74Z" fill="black"/>
<path d="M315.748 158.734H299.115C297.887 158.734 296.893 159.731 296.893 160.961V177.624C296.893 178.854 297.887 179.85 299.115 179.85H315.748C316.975 179.85 317.97 178.854 317.97 177.624V160.961C317.97 159.731 316.975 158.734 315.748 158.734Z" fill="white"/>
<path d="M315.749 180.344H299.115C297.618 180.344 296.4 179.124 296.4 177.624V160.96C296.4 159.461 297.618 158.241 299.115 158.241H315.749C317.246 158.241 318.464 159.461 318.464 160.96V177.624C318.464 179.124 317.246 180.344 315.749 180.344ZM299.115 159.228C298.163 159.228 297.386 160.006 297.386 160.96V177.624C297.386 178.579 298.163 179.357 299.115 179.357H315.749C316.701 179.357 317.478 178.579 317.478 177.624V160.96C317.478 160.006 316.701 159.228 315.749 159.228H299.115Z" fill="black"/>
<path d="M229.541 187.161H212.908C211.68 187.161 210.686 188.158 210.686 189.387V206.051C210.686 207.28 211.68 208.277 212.908 208.277H229.541C230.768 208.277 231.763 207.28 231.763 206.051V189.387C231.763 188.158 230.768 187.161 229.541 187.161Z" fill="white"/>
<path d="M229.542 208.773H212.908C211.411 208.773 210.193 207.553 210.193 206.053V189.389C210.193 187.89 211.411 186.669 212.908 186.669H229.542C231.039 186.669 232.257 187.89 232.257 189.389V206.053C232.257 207.553 231.039 208.773 229.542 208.773ZM212.908 187.655C211.956 187.655 211.179 188.433 211.179 189.387V206.051C211.179 207.005 211.956 207.783 212.908 207.783H229.542C230.494 207.783 231.271 207.005 231.271 206.051V189.387C231.271 188.433 230.494 187.655 229.542 187.655H212.908Z" fill="black"/>
<path d="M258.186 187.161H241.552C240.325 187.161 239.33 188.158 239.33 189.387V206.051C239.33 207.28 240.325 208.277 241.552 208.277H258.186C259.413 208.277 260.408 207.28 260.408 206.051V189.387C260.408 188.158 259.413 187.161 258.186 187.161Z" fill="white"/>
<path d="M258.186 208.773H241.553C240.056 208.773 238.838 207.553 238.838 206.053V189.389C238.838 187.89 240.056 186.669 241.553 186.669H258.186C259.683 186.669 260.901 187.89 260.901 189.389V206.053C260.901 207.553 259.683 208.773 258.186 208.773ZM241.553 187.655C240.6 187.655 239.824 188.433 239.824 189.387V206.051C239.824 207.005 240.6 207.783 241.553 207.783H258.186C259.139 207.783 259.915 207.005 259.915 206.051V189.387C259.915 188.433 259.139 187.655 258.186 187.655H241.553Z" fill="black"/>
<path d="M287.371 187.432H270.738C269.51 187.432 268.516 188.428 268.516 189.658V206.322C268.516 207.551 269.51 208.548 270.738 208.548H287.371C288.598 208.548 289.593 207.551 289.593 206.322V189.658C289.593 188.428 288.598 187.432 287.371 187.432Z" fill="white"/>
<path d="M287.374 209.044H270.74C269.243 209.044 268.025 207.823 268.025 206.324V189.66C268.025 188.16 269.243 186.94 270.74 186.94H287.374C288.871 186.94 290.089 188.16 290.089 189.66V206.324C290.089 207.823 288.871 209.044 287.374 209.044ZM270.738 187.925C269.786 187.925 269.009 188.703 269.009 189.658V206.322C269.009 207.276 269.786 208.054 270.738 208.054H287.372C288.324 208.054 289.101 207.276 289.101 206.322V189.658C289.101 188.703 288.324 187.925 287.372 187.925H270.738Z" fill="black"/>
<path d="M315.748 187.432H299.115C297.887 187.432 296.893 188.428 296.893 189.658V206.322C296.893 207.551 297.887 208.548 299.115 208.548H315.748C316.975 208.548 317.97 207.551 317.97 206.322V189.658C317.97 188.428 316.975 187.432 315.748 187.432Z" fill="white"/>
<path d="M315.749 209.044H299.115C297.618 209.044 296.4 207.823 296.4 206.324V189.66C296.4 188.16 297.618 186.94 299.115 186.94H315.749C317.246 186.94 318.464 188.16 318.464 189.66V206.324C318.464 207.823 317.246 209.044 315.749 209.044ZM299.115 187.925C298.163 187.925 297.386 188.703 297.386 189.658V206.322C297.386 207.276 298.163 208.054 299.115 208.054H315.749C316.701 208.054 317.478 207.276 317.478 206.322V189.658C317.478 188.703 316.701 187.925 315.749 187.925H299.115Z" fill="black"/>
<path d="M279.899 215.369H252.43C251.658 215.369 251.031 215.996 251.031 216.77V228.001C251.031 228.775 251.658 229.402 252.43 229.402H279.899C280.672 229.402 281.298 228.775 281.298 228.001V216.77C281.298 215.996 280.672 215.369 279.899 215.369Z" fill="white"/>
<path d="M279.896 229.896H252.429C251.385 229.896 250.535 229.044 250.535 227.999V216.77C250.535 215.724 251.385 214.873 252.429 214.873H279.896C280.94 214.873 281.79 215.724 281.79 216.77V227.999C281.79 229.044 280.94 229.896 279.896 229.896ZM252.429 215.863C251.929 215.863 251.523 216.269 251.523 216.77V227.999C251.523 228.499 251.929 228.906 252.429 228.906H279.896C280.396 228.906 280.802 228.499 280.802 227.999V216.77C280.802 216.269 280.396 215.863 279.896 215.863H252.429Z" fill="black"/>
<path d="M338.746 317.176H189.48C185.66 317.176 182.553 314.063 182.553 310.237V6.98653C182.553 3.16025 185.66 0.046936 189.48 0.046936H338.746C342.566 0.046936 345.673 3.16025 345.673 6.98653V310.237C345.673 314.063 342.566 317.176 338.746 317.176ZM189.48 1.03703C186.205 1.03703 183.539 3.70559 183.539 6.98876V310.239C183.539 313.52 186.202 316.188 189.48 316.188H338.746C342.021 316.188 344.685 313.52 344.685 310.239V6.98653C344.685 3.70559 342.021 1.03479 338.746 1.03479H189.48V1.03703Z" fill="black"/>
<path d="M252.313 252.194H283.411C285.912 252.194 287.942 254.228 287.942 256.734V317.994C287.942 319.065 287.074 319.934 286.006 319.934H247.744C246.811 319.934 246.053 319.174 246.053 318.24V258.466C246.053 255.004 248.857 252.194 252.313 252.194Z" fill="white"/>
<path d="M286.009 320.43H247.747C246.542 320.43 245.562 319.449 245.562 318.242V258.468C245.562 254.738 248.592 251.7 252.318 251.7H283.416C286.187 251.7 288.44 253.958 288.44 256.736V317.996C288.44 319.34 287.349 320.433 286.009 320.433V320.43ZM252.313 252.69C249.134 252.69 246.546 255.283 246.546 258.468V318.242C246.546 318.904 247.084 319.442 247.744 319.442H286.006C286.803 319.442 287.45 318.794 287.45 317.996V256.736C287.45 254.505 285.638 252.69 283.412 252.69H252.313Z" fill="black"/>
<path d="M272.628 264.444H260.438C258.893 264.444 257.641 265.699 257.641 267.247V279.459C257.641 281.007 258.893 282.261 260.438 282.261H272.628C274.173 282.261 275.425 281.007 275.425 279.459V267.247C275.425 265.699 274.173 264.444 272.628 264.444Z" fill="black"/>
<path d="M319.026 18.9526H210.233C208.187 18.9526 206.529 20.6136 206.529 22.6626V86.7147C206.529 88.7637 208.187 90.4248 210.233 90.4248H319.026C321.072 90.4248 322.73 88.7637 322.73 86.7147V22.6626C322.73 20.6136 321.072 18.9526 319.026 18.9526Z" fill="white"/>
<path d="M319.026 90.9209H210.232C207.916 90.9209 206.033 89.0346 206.033 86.7147V22.6649C206.033 20.345 207.916 18.4586 210.232 18.4586H319.026C321.341 18.4586 323.224 20.345 323.224 22.6649V86.7147C323.224 89.0346 321.341 90.9209 319.026 90.9209ZM210.234 19.4487C208.465 19.4487 207.024 20.8925 207.024 22.6649V86.7147C207.024 88.487 208.463 89.9308 210.234 89.9308H319.028C320.797 89.9308 322.238 88.487 322.238 86.7147V22.6649C322.238 20.8925 320.797 19.4487 319.028 19.4487H210.234Z" fill="black"/>
<path d="M233.431 62.5725C236.294 62.5725 238.615 60.247 238.615 57.3784C238.615 54.5098 236.294 52.1844 233.431 52.1844C230.567 52.1844 228.246 54.5098 228.246 57.3784C228.246 60.247 230.567 62.5725 233.431 62.5725Z" fill="black"/>
<path d="M249.726 62.3267C252.589 62.3267 254.91 60.0012 254.91 57.1326C254.91 54.264 252.589 51.9385 249.726 51.9385C246.862 51.9385 244.541 54.264 244.541 57.1326C244.541 60.0012 246.862 62.3267 249.726 62.3267Z" fill="black"/>
<path d="M266.267 62.0786C269.13 62.0786 271.451 59.7531 271.451 56.8845C271.451 54.0159 269.13 51.6904 266.267 51.6904C263.403 51.6904 261.082 54.0159 261.082 56.8845C261.082 59.7531 263.403 62.0786 266.267 62.0786Z" fill="black"/>
<path d="M282.562 61.8327C285.425 61.8327 287.746 59.5073 287.746 56.6387C287.746 53.77 285.425 51.4446 282.562 51.4446C279.698 51.4446 277.377 53.77 277.377 56.6387C277.377 59.5073 279.698 61.8327 282.562 61.8327Z" fill="black"/>
<path d="M298.608 61.3366C301.472 61.3366 303.793 59.0111 303.793 56.1425C303.793 53.2739 301.472 50.9484 298.608 50.9484C295.745 50.9484 293.424 53.2739 293.424 56.1425C293.424 59.0111 295.745 61.3366 298.608 61.3366Z" fill="black"/>
<path d="M207.238 384.534C206.993 384.534 206.781 384.35 206.75 384.1C206.716 383.83 206.908 383.582 207.178 383.548C250.27 378.155 296.514 342.724 296.976 342.367C297.192 342.199 297.503 342.239 297.67 342.456C297.837 342.673 297.797 342.983 297.581 343.149C297.117 343.509 250.656 379.101 207.301 384.527C207.281 384.529 207.259 384.532 207.238 384.532V384.534Z" fill="black"/>
<path d="M203.521 392.251C203.258 392.251 203.039 392.043 203.028 391.78C203.015 391.507 203.226 391.274 203.499 391.263C237.174 389.708 280.886 362.401 281.323 362.126C281.555 361.981 281.859 362.05 282.004 362.282C282.149 362.513 282.08 362.819 281.848 362.964C281.408 363.241 237.475 390.684 203.541 392.253C203.534 392.253 203.525 392.253 203.519 392.253L203.521 392.251Z" fill="black"/>
<path d="M199.724 389.332C198.834 389.332 197.944 388.997 197.259 388.326C195.869 386.965 195.847 384.726 197.205 383.334C198.564 381.943 200.799 381.919 202.189 383.28C203.579 384.641 203.601 386.88 202.243 388.273C201.553 388.979 200.639 389.332 199.724 389.332ZM197.95 387.62C198.952 388.601 200.561 388.581 201.538 387.58C202.515 386.579 202.499 384.967 201.5 383.986C200.498 383.005 198.89 383.025 197.912 384.026C196.935 385.028 196.951 386.639 197.95 387.62Z" fill="black"/>
<path d="M306.167 341.104C306.167 341.104 306.147 341.104 306.138 341.104C305.962 341.093 305.803 340.988 305.725 340.829L301.435 332.108C301.364 331.963 301.368 331.788 301.447 331.648C301.527 331.505 301.672 331.411 301.832 331.397L312.402 330.45C312.588 330.432 312.773 330.526 312.869 330.687C312.967 330.85 312.962 331.053 312.86 331.212L306.58 340.88C306.488 341.021 306.332 341.106 306.167 341.106V341.104ZM302.638 332.318L306.227 339.613L311.479 331.527L302.638 332.318Z" fill="black"/>
<path d="M365.277 90.4672C365.15 90.4672 365.025 90.418 364.929 90.3219C364.737 90.1297 364.737 89.8146 364.929 89.6224L366.651 87.897C366.843 87.7048 367.158 87.7048 367.35 87.897C367.541 88.0892 367.541 88.4043 367.35 88.5965L365.627 90.3219C365.531 90.418 365.404 90.4672 365.279 90.4672H365.277Z" fill="black"/>
<path d="M371.785 83.9456C371.658 83.9456 371.533 83.8964 371.437 83.8003C371.245 83.6081 371.245 83.293 371.437 83.1008L373.159 81.3754C373.351 81.1831 373.666 81.1831 373.857 81.3754C374.049 81.5676 374.049 81.8827 373.857 82.0749L372.135 83.8003C372.039 83.8964 371.912 83.9456 371.787 83.9456H371.785Z" fill="black"/>
<path d="M373.507 90.4672C373.38 90.4672 373.255 90.418 373.159 90.3219L371.437 88.5965C371.245 88.4043 371.245 88.0892 371.437 87.897C371.629 87.7048 371.943 87.7048 372.135 87.897L373.857 89.6224C374.049 89.8146 374.049 90.1297 373.857 90.3219C373.761 90.418 373.634 90.4672 373.509 90.4672H373.507Z" fill="black"/>
<path d="M366.999 83.9456C366.872 83.9456 366.747 83.8964 366.651 83.8003L364.929 82.0749C364.737 81.8827 364.737 81.5676 364.929 81.3754C365.121 81.1831 365.435 81.1831 365.627 81.3754L367.35 83.1008C367.541 83.293 367.541 83.6081 367.35 83.8003C367.254 83.8964 367.126 83.9456 367.002 83.9456H366.999Z" fill="black"/>
<path d="M10.1542 163.379C10.085 163.379 10.0159 163.365 9.95119 163.334C9.70356 163.22 9.59425 162.927 9.70579 162.679L10.7164 160.458C10.8302 160.21 11.1224 160.1 11.37 160.212C11.6177 160.326 11.727 160.619 11.6154 160.867L10.6048 163.088C10.5223 163.269 10.3416 163.379 10.1542 163.379Z" fill="black"/>
<path d="M13.9687 154.989C13.8995 154.989 13.8303 154.975 13.7656 154.944C13.518 154.83 13.4087 154.537 13.5202 154.289L14.5308 152.068C14.6446 151.819 14.9369 151.71 15.1845 151.822C15.4321 151.936 15.5414 152.228 15.4299 152.477L14.4193 154.698C14.3368 154.879 14.1561 154.989 13.9687 154.989Z" fill="black"/>
<path d="M17.8619 160.491C17.7928 160.491 17.7236 160.478 17.6589 160.446L15.4414 159.434C15.1938 159.32 15.0845 159.027 15.196 158.779C15.3098 158.531 15.6021 158.422 15.8497 158.533L18.0672 159.546C18.3148 159.66 18.4241 159.953 18.3126 160.201C18.23 160.382 18.0493 160.491 17.8619 160.491Z" fill="black"/>
<path d="M9.48694 156.669C9.41779 156.669 9.34863 156.656 9.28393 156.625L7.06643 155.612C6.8188 155.498 6.70948 155.205 6.82103 154.957C6.9348 154.709 7.22705 154.6 7.47468 154.712L9.69219 155.724C9.93982 155.838 10.0491 156.131 9.93758 156.379C9.85504 156.56 9.67434 156.669 9.48694 156.669Z" fill="black"/>
<path d="M32.3312 190.489C30.3724 190.489 28.7773 188.893 28.7773 186.929C28.7773 184.964 30.3702 183.368 32.3312 183.368C34.2921 183.368 35.885 184.964 35.885 186.929C35.885 188.893 34.2921 190.489 32.3312 190.489ZM32.3312 184.358C30.9168 184.358 29.7656 185.512 29.7656 186.929C29.7656 188.346 30.9168 189.499 32.3312 189.499C33.7455 189.499 34.8967 188.346 34.8967 186.929C34.8967 185.512 33.7455 184.358 32.3312 184.358Z" fill="black"/>
<path d="M98.9327 303.145C89.5651 316.15 82.4107 338.384 76.9539 364.238C76.5947 365.941 72.5234 395.959 74.1831 396.482C108.746 407.364 111.216 407.364 134.424 408.848C140.278 409.221 165.038 408.848 182.203 408.361C183.691 408.318 184.971 407.353 184.891 405.862C182.763 366.748 179.055 319.588 179.055 319.588L98.9327 303.145Z" fill="white"/>
<path d="M184.889 406.356C184.628 406.356 184.411 406.153 184.396 405.889C182.39 369.048 178.944 324.516 178.591 319.999L99.1468 303.697C90.7408 315.513 83.4369 335.916 77.4358 364.343C76.916 366.804 73.4202 393.992 74.4508 396.068C74.6315 396.187 74.7185 396.415 74.6516 396.632C74.5691 396.891 74.2924 397.038 74.0314 396.956C73.4559 396.775 72.588 396.502 74.317 380.752C75.1536 373.147 76.2712 365.069 76.4676 364.14C82.5423 335.367 89.9645 314.749 98.5288 302.861C98.6426 302.702 98.8389 302.626 99.0286 302.667L179.151 319.109C179.367 319.154 179.528 319.335 179.544 319.554C179.582 320.026 183.276 367.166 185.38 405.84C185.395 406.112 185.186 406.345 184.913 406.361C184.904 406.361 184.896 406.361 184.887 406.361L184.889 406.356Z" fill="black"/>
<path d="M199.018 205.857C199.018 205.857 220.675 220.46 230.799 217.711C245.043 213.84 251.314 177.486 251.928 174.259C252.541 171.031 255.285 154.667 258.132 148.561C260.807 142.821 262.435 136.948 263.294 133.336C263.812 131.159 265.291 130.107 266.759 130.33C268.048 130.527 268.902 131.539 268.177 134.784C267.339 138.539 266.593 142.314 265.909 145.526C265.692 146.536 265.282 147.493 265.993 146.773C267.646 145.101 270.321 143.239 273.018 142.334C274.203 141.936 283.646 131.687 286.156 132.945C288.403 134.069 275.6 148.118 276.115 149.797C277.382 153.938 276.657 159.472 274.651 164.465C271.238 172.967 265.781 172.012 264.838 176.015C263.894 180.018 258.973 230.801 255.033 240.096C249.369 253.466 195.049 243.708 195.049 243.708L199.02 205.854L199.018 205.857Z" fill="white"/>
<path d="M230.758 247.66C214.538 247.66 196.258 244.432 194.959 244.2C194.705 244.155 194.529 243.918 194.555 243.661L198.526 205.807C198.544 205.635 198.651 205.483 198.807 205.412C198.964 205.338 199.149 205.352 199.292 205.45C199.506 205.595 220.875 219.897 230.667 217.237C242.83 213.934 249.19 186.316 251.361 174.598L251.441 174.171C251.51 173.807 251.606 173.275 251.726 172.611C252.657 167.475 255.131 153.831 257.683 148.357C260.269 142.81 261.899 137.069 262.814 133.229C263.363 130.925 264.978 129.566 266.832 129.847C267.548 129.957 268.09 130.277 268.445 130.797C269.018 131.635 269.087 132.979 268.659 134.901C268.132 137.263 267.646 139.605 267.178 141.869C266.905 143.184 266.644 144.449 266.39 145.638C266.383 145.673 266.375 145.709 266.366 145.745C267.947 144.332 270.296 142.732 272.86 141.872C273.159 141.749 274.484 140.533 275.651 139.46C280.398 135.095 284.48 131.562 286.374 132.509C286.635 132.639 286.809 132.865 286.879 133.157C287.213 134.577 284.878 137.849 280.987 143.067C279.122 145.57 276.567 148.999 276.59 149.69C277.815 153.679 277.261 159.284 275.104 164.655C273.081 169.695 270.283 171.557 268.24 172.915C266.747 173.91 265.667 174.627 265.313 176.134C265.047 177.262 264.42 182.494 263.631 189.117C261.641 205.761 258.312 233.617 255.483 240.295C253.074 245.983 242.45 247.662 230.756 247.662L230.758 247.66ZM195.586 243.304C200.818 244.198 249.397 252.13 254.575 239.906C257.351 233.358 260.668 205.588 262.651 188.996C263.477 182.081 264.074 177.086 264.353 175.904C264.799 174.015 266.14 173.123 267.695 172.088C269.739 170.73 272.282 169.038 274.192 164.282C276.266 159.114 276.808 153.755 275.642 149.942C275.372 149.062 276.677 147.193 280.197 142.471C282.488 139.395 286.323 134.25 285.915 133.368C284.494 132.67 278.972 137.744 276.32 140.184C274.459 141.894 273.618 142.656 273.174 142.806C270.345 143.756 267.726 145.725 266.343 147.124C266.165 147.305 265.792 147.683 265.384 147.45C264.969 147.213 265.087 146.764 265.264 146.085C265.317 145.881 265.377 145.655 265.426 145.425C265.678 144.238 265.942 142.976 266.214 141.664C266.682 139.395 267.169 137.049 267.697 134.679C268.059 133.064 268.037 131.944 267.633 131.352C267.432 131.059 267.131 130.889 266.685 130.822C265.364 130.621 264.197 131.678 263.776 133.455C262.852 137.339 261.201 143.15 258.58 148.773C256.081 154.13 253.625 167.683 252.701 172.786C252.581 173.454 252.483 173.988 252.414 174.355L252.336 174.777C250.131 186.681 243.633 214.741 230.93 218.191C230.015 218.44 229.012 218.554 227.945 218.554C218.143 218.554 202.879 208.974 199.425 206.722L195.588 243.306L195.586 243.304Z" fill="black"/>
<path d="M107.865 186.097C133.973 174.428 184.429 176.847 219.827 214.904C223.99 219.378 211.965 253.133 201.246 250.811C191.771 248.759 184.048 246.383 183.325 251.879C182.326 259.471 189.123 320.314 179.227 337.474C161.547 368.129 108.815 363.55 81.6833 348.607C74.5199 344.662 82.0425 333.802 87.3096 298.378C91.2338 271.992 93.5182 250.127 88.6616 258.562C86.2767 262.701 61.3309 237.808 63.9366 230.374C69.6477 214.07 79.6911 198.689 107.867 186.095L107.865 186.097Z" fill="black"/>
<path d="M246.207 177.508L267.115 180.349C268.532 228.633 263.943 263.324 201.246 250.811L209.706 205.91C233.083 222.255 241.788 202.375 246.207 177.508Z" fill="black"/>
<path d="M69.7262 218.337C39.25 262.714 56.7692 353.459 98.0764 354.136L97.0123 314.905C93.5544 310.523 91.8098 267.222 98.3419 253.486L69.7262 218.339V218.337Z" fill="black"/>
<path d="M79.8728 347.708C79.8281 347.708 79.7835 347.701 79.7389 347.69C79.4757 347.616 79.3217 347.344 79.3954 347.08C85.5548 324.952 88.9859 289.53 90.1416 263.758C90.1549 263.485 90.3803 263.273 90.6569 263.286C90.9291 263.3 91.141 263.53 91.1276 263.803C89.9675 289.628 86.5275 325.137 80.3457 347.346C80.2855 347.565 80.0869 347.708 79.8705 347.708H79.8728Z" fill="white"/>
<path d="M123.68 182.101C123.962 181.062 134.23 172.533 131.54 153.359C131.54 153.359 117.65 134.443 121.873 126.099C126.096 117.754 125.742 105.421 139.928 105.319C154.116 105.218 162.46 111.594 165.733 119.884C169.005 128.173 169.867 136.483 170.17 141.308C170.393 144.88 169.916 152.865 169.652 156.772C169.561 158.118 168.635 159.255 167.339 159.62L163.051 160.824C161.655 161.218 160.7 162.507 160.729 163.96L160.889 171.637C161.559 190.406 155.491 187.798 151.045 188.811C139.689 191.399 122.195 187.604 123.683 182.101H123.68Z" fill="white"/>
<path d="M142.805 190.147C135.075 190.147 127.112 188.238 124.223 185.226C123.255 184.215 122.903 183.089 123.204 181.971C123.273 181.712 123.507 181.428 124.023 180.803C126.314 178.018 133.272 169.554 131.068 153.552C129.854 151.88 117.239 134.163 121.433 125.876C122.434 123.898 123.193 121.634 123.927 119.444C126.323 112.296 128.801 104.905 139.924 104.825C152.844 104.738 162.423 110.155 166.191 119.703C168.652 125.936 170.155 133.193 170.662 141.277C170.883 144.811 170.432 152.523 170.144 156.806C170.039 158.355 168.966 159.675 167.472 160.096L163.184 161.3C162.004 161.631 161.196 162.722 161.223 163.949L161.383 171.626C161.97 188.1 157.274 188.585 153.127 189.012C152.433 189.083 151.775 189.15 151.153 189.293C148.592 189.877 145.714 190.147 142.802 190.147H142.805ZM124.154 182.246C123.949 183.026 124.206 183.777 124.937 184.539C128.65 188.415 142.013 190.362 150.936 188.328C151.617 188.174 152.335 188.098 153.027 188.026C156.922 187.624 160.951 187.208 160.397 171.653L160.237 163.969C160.203 162.29 161.305 160.8 162.918 160.348L167.206 159.143C168.299 158.837 169.084 157.87 169.16 156.739C169.448 152.481 169.897 144.817 169.678 141.34C169.178 133.361 167.697 126.202 165.276 120.067C161.667 110.919 152.442 105.734 139.936 105.815C129.517 105.889 127.26 112.627 124.868 119.759C124.123 121.983 123.351 124.28 122.318 126.323C118.278 134.304 131.804 152.881 131.942 153.067C131.991 153.134 132.023 153.21 132.034 153.29C134.352 169.804 127.155 178.556 124.79 181.431C124.509 181.773 124.217 182.126 124.159 182.244L124.154 182.246Z" fill="black"/>
<path d="M160.917 132.704C162.635 131.98 163.755 130.31 163.792 128.444C163.839 126.209 162.478 121.071 165.733 119.886C174.478 116.701 171.079 106.17 165.876 102.275C160.674 98.379 140.281 91.9088 129.97 97.5253C129.97 97.5253 125.89 100.951 126.806 104.342C126.806 104.342 118.599 104.579 116.678 110.671C114.76 116.764 111.527 139.136 131.993 156.066C131.993 156.066 137.276 156.689 143.152 155.132C146.57 154.227 149.071 151.288 149.546 147.779C150.273 142.399 152.455 134.156 153.941 131.711C153.941 131.711 152.993 127.901 155.128 126.92C156.513 126.283 158.202 127.892 158.951 129.222L160.917 132.706V132.704Z" fill="black"/>
<path d="M169.087 158.708C169.06 158.708 169.034 158.705 169.005 158.701C168.929 158.688 161.315 157.322 159.537 149.03C159.479 148.762 159.648 148.501 159.916 148.442C160.181 148.384 160.445 148.554 160.503 148.822C162.142 156.466 169.098 157.713 169.17 157.726C169.437 157.771 169.62 158.026 169.576 158.296C169.536 158.538 169.326 158.71 169.089 158.71L169.087 158.708Z" fill="black"/>
<path d="M159.458 141.165C159.458 141.165 159.452 141.165 159.447 141.165C159.186 141.159 153.033 140.895 151.398 129.982C151.358 129.711 151.543 129.459 151.813 129.418C152.085 129.378 152.333 129.564 152.375 129.834C153.879 139.871 159.246 140.169 159.474 140.175C159.746 140.184 159.96 140.412 159.951 140.683C159.945 140.951 159.726 141.163 159.458 141.163V141.165Z" fill="black"/>
<path d="M247.957 344.984L247.002 341.49L243.062 341.669C242.696 340.9 242.275 340.172 241.795 339.49L243.881 336.14L241.313 333.594L237.989 335.726C237.298 335.25 236.566 334.832 235.805 334.479L235.941 330.526L232.448 329.607L230.634 333.114C229.804 333.049 228.963 333.056 228.118 333.132L226.264 329.641L222.779 330.597L222.958 334.549C222.19 334.915 221.463 335.34 220.782 335.818L217.441 333.726L214.9 336.301L217.026 339.633C216.55 340.326 216.135 341.059 215.781 341.821L211.837 341.685L210.922 345.187L214.42 347.004C214.355 347.836 214.362 348.678 214.438 349.527L210.955 351.385L211.91 354.878L215.85 354.699C216.216 355.468 216.637 356.197 217.117 356.878L215.031 360.228L217.599 362.774L220.923 360.642C221.615 361.118 222.346 361.536 223.107 361.889L222.971 365.843L226.464 366.761L228.278 363.255C229.108 363.319 229.949 363.313 230.795 363.237L232.649 366.728L236.133 365.771L235.955 361.82C236.722 361.453 237.449 361.029 238.13 360.55L241.472 362.642L244.013 360.068L241.887 356.735C242.362 356.042 242.777 355.309 243.131 354.547L247.076 354.683L247.99 351.181L244.492 349.364C244.557 348.533 244.55 347.69 244.474 346.841L247.957 344.984ZM231.915 357.175C226.962 358.534 221.847 355.611 220.492 350.647C219.136 345.681 222.052 340.554 227.004 339.195C231.957 337.836 237.072 340.76 238.427 345.723C239.783 350.69 236.867 355.817 231.915 357.175Z" fill="black"/>
<path d="M78.4414 105.52C96.5913 105.52 111.305 90.7795 111.305 72.5964C111.305 54.4133 96.5913 39.673 78.4414 39.673C60.2915 39.673 45.5781 54.4133 45.5781 72.5964C45.5781 90.7795 60.2915 105.52 78.4414 105.52Z" fill="black"/>
<path d="M86.0554 67.9566L85.8903 57.5125C85.8145 54.1377 83.1441 51.3753 79.7777 51.2211C76.0677 51.0512 72.9891 54.0886 73.0761 57.8098L73.1497 61.0505C73.1765 62.1814 72.244 63.0977 71.1151 63.053C70.0778 63.0106 69.2546 62.1635 69.239 61.1242L69.1943 58.0467C69.056 52.0726 73.8301 47.1668 79.9852 47.4172V47.4216C85.0694 47.6295 89.723 52.1106 89.8502 57.5684L89.9818 68.1152L86.0554 67.9543V67.9566Z" fill="white"/>
<path d="M89.9809 68.6114C89.9809 68.6114 89.9675 68.6114 89.9608 68.6114L86.0344 68.4505C85.7734 68.4393 85.566 68.227 85.5615 67.9633L85.3964 57.5193C85.325 54.4082 82.8487 51.8558 79.7545 51.7128C78.1036 51.6368 76.5465 52.2358 75.3596 53.3957C74.1839 54.5467 73.5303 56.1515 73.5682 57.7942L73.6418 61.0349C73.6574 61.7098 73.3897 62.3691 72.9101 62.8407C72.4282 63.3145 71.7612 63.5693 71.0942 63.5425C69.7958 63.4889 68.7629 62.4295 68.745 61.1265L68.7004 58.0489C68.629 54.9781 69.7757 52.1151 71.9307 49.9919C74.0702 47.8843 76.9391 46.7936 80.0043 46.9188C80.0289 46.9188 80.0534 46.9233 80.078 46.9277C85.5213 47.1914 90.2151 52.0413 90.3423 57.555L90.4739 68.1086C90.4739 68.2449 90.4204 68.3745 90.3244 68.4684C90.2307 68.5578 90.108 68.6092 89.9809 68.6092V68.6114ZM86.5408 67.4805L89.4812 67.6012L89.3562 57.5751C89.2402 52.5442 84.9391 48.119 79.9642 47.9156C79.9396 47.9156 79.9173 47.9111 79.895 47.9066C77.1265 47.8105 74.5498 48.8029 72.6245 50.7004C70.6658 52.6291 69.624 55.2329 69.6887 58.0333L69.7333 61.1153C69.7445 61.8931 70.3602 62.5256 71.1365 62.5569C71.547 62.5748 71.9285 62.425 72.2185 62.1389C72.5085 61.8529 72.6647 61.4707 72.6558 61.0617L72.5822 57.821C72.5375 55.9034 73.2983 54.0349 74.6703 52.6917C76.0534 51.3373 77.8694 50.64 79.8013 50.7272C83.4109 50.8926 86.3021 53.8695 86.3847 57.5014L86.5431 67.4805H86.5408Z" fill="black"/>
<path d="M81.6984 96.6715L77.3013 96.8458C71.2109 96.6938 65.83 89.4034 66.4056 80.8322L67.3292 67.1229L93.212 66.9151C95.5098 66.9061 97.4328 68.9578 97.2744 71.2532L96.4758 82.8303C95.9515 90.6192 89.4909 96.6693 81.6984 96.6693V96.6715Z" fill="white"/>
<path d="M77.4566 96.4569C68.8833 96.4569 62.0991 89.1866 62.6791 80.6177L63.576 67.3286H90.9401C92.1983 67.3286 93.1955 68.3969 93.1107 69.6529L92.2362 82.618C91.7097 90.4069 85.2513 96.4569 77.4588 96.4569H77.4566Z" fill="white"/>
<path d="M77.4567 96.9531C73.1711 96.9531 69.2002 95.2255 66.2755 92.0898C63.3508 88.9542 61.8985 84.8686 62.1862 80.5842L63.0831 67.295C63.1009 67.0358 63.3151 66.8346 63.5761 66.8346H90.9402C91.6764 66.8346 92.388 67.143 92.89 67.6817C93.3919 68.2203 93.653 68.9511 93.6039 69.6864L92.7294 82.6515C92.1873 90.6706 85.4812 96.9509 77.4589 96.9509L77.4567 96.9531ZM64.0379 67.8225L63.1723 80.6512C62.9024 84.6585 64.261 88.4803 66.9983 91.4149C69.7356 94.3494 73.45 95.963 77.4589 95.963C84.9636 95.963 91.2391 90.0873 91.7455 82.5867L92.6201 69.6216C92.6513 69.1523 92.4929 68.7031 92.1716 68.3589C91.8504 68.0147 91.4131 67.8247 90.9424 67.8247H64.0379V67.8225Z" fill="black"/>
<path d="M77.1176 88.0512C76.4194 88.0512 75.8661 87.4612 75.9107 86.7617L76.5688 76.4294C76.609 75.7902 77.1377 75.294 77.7758 75.294C78.474 75.294 79.0273 75.884 78.9827 76.5836L78.3246 86.9159C78.2844 87.5551 77.7557 88.0512 77.1176 88.0512Z" fill="black"/>
<path d="M77.541 81.8335C80.0015 81.8335 81.9961 79.8353 81.9961 77.3703C81.9961 74.9053 80.0015 72.907 77.541 72.907C75.0805 72.907 73.0859 74.9053 73.0859 77.3703C73.0859 79.8353 75.0805 81.8335 77.541 81.8335Z" fill="black"/>
</g>
<defs>
<clipPath id="clip0_1335_11194">
<rect width="374" height="409" fill="white"/>
</clipPath>
</defs>
</svg>
