<svg width="585" height="464" viewBox="0 0 585 464" fill="none" xmlns="http://www.w3.org/2000/svg">
<path d="M210.476 149.06C216.585 150.109 229.506 151.279 241.92 151.279C253.473 151.279 264.59 150.269 269.392 147.207C268.607 140.335 264.727 135.669 259.156 132.897C259.417 131.451 259.356 129.826 258.864 128.004C255.574 122.628 260.001 117.239 261.264 111.672C262.103 100.203 246.131 93.739 233.44 97.533C228.329 98.9034 225.503 100.548 224.68 102.187C220.482 105.629 217.442 111.862 219.544 120.471C219.483 124.25 217.004 127.798 216.137 131.536C215.484 134.08 215.966 136.35 217.212 138.24C214.108 141.045 211.639 144.39 209.994 147.938C209.705 148.489 210.007 148.895 210.478 149.062H210.476V149.06ZM233.588 132.606C232.96 134.036 231.948 135.371 232.235 136.445C233.67 137.782 235.735 138.36 237.97 138.36C241.379 138.36 245.178 137.008 247.757 134.944C247.67 137.513 245.794 140.17 242.347 140.6C236.151 144.183 254.591 144.088 258.57 134.855C259.009 135.083 259.447 135.315 259.856 135.567C263.894 138.047 266.364 141.594 267.209 146.124C262.867 148.166 253.999 149.28 241.92 149.28C230.998 149.28 219.177 148.335 212.517 147.359C216.752 139.48 224.771 133.867 233.588 132.608V132.606ZM231.916 127.946C228.418 127.946 225.596 126.633 224.172 124.343C222.959 122.392 222.952 119.976 224.151 117.54L224.227 117.386L224.276 117.222C224.83 115.35 224.75 113.508 224.672 111.728C224.552 108.972 224.559 107.194 226.02 105.685C227.437 106.74 229.765 107.686 232.917 108.414C241.357 110.456 252.867 112.195 244.249 121.68C241.566 125.68 244.099 128.999 246.85 131.846C247.039 132.104 247.19 132.385 247.319 132.673C245.289 134.739 241.509 136.359 237.97 136.359C236.905 136.359 235.507 136.204 234.363 135.543C234.491 135.26 234.664 134.93 234.797 134.674C235.537 133.259 236.549 131.319 235.78 129.157L235.246 127.653L233.661 127.84C233.069 127.911 232.482 127.946 231.914 127.946H231.916Z" fill="white"/>
<path d="M295.864 96.9415L271.371 97.2419L270.521 104.096L295.058 103.847L295.864 96.9415Z" fill="white"/>
<path d="M293.414 107.196L270.111 107.409L269.846 109.547L293.162 109.349L293.414 107.196Z" fill="white"/>
<path d="M292.819 123.019L269.817 123.119L269.436 126.207L292.455 126.127L292.819 123.019Z" fill="white"/>
<path d="M274.91 155.129L188.448 154.671L187.689 159.876L274.263 160.475L274.91 155.129Z" fill="white"/>
<path d="M221.382 189.186C227.463 189.282 232.961 185.181 233.639 180.037C234.314 174.907 229.937 170.711 223.882 170.65C217.85 170.589 212.409 174.657 211.706 179.753C211.002 184.862 215.323 189.091 221.382 189.188V189.186Z" fill="white"/>
<path d="M260.555 171.021C254.387 170.958 248.871 175.072 248.215 180.226C247.555 185.394 252.027 189.672 258.223 189.77C264.443 189.868 270.017 185.72 270.647 180.517C271.275 175.328 266.748 171.084 260.555 171.021Z" fill="white"/>
<path d="M462.876 293.623C464.222 293.623 465.828 292.82 467.604 290.845C474.31 284.725 472.295 275.452 467.554 275.454C465.489 275.454 462.906 277.215 460.305 281.766C457.103 286.248 458.796 293.623 462.876 293.623ZM461.983 282.858C465.044 283.038 467.749 283.526 468.9 285.881C468.312 287.082 467.452 288.277 466.256 289.369L466.184 289.436L466.117 289.51C464.908 290.854 463.727 291.624 462.876 291.624C462.122 291.624 461.603 290.921 461.299 290.331C460.34 288.469 460.316 285.191 461.931 282.929L461.981 282.858H461.983ZM468.346 277.694C467.891 277.666 467.432 277.62 466.966 277.555C467.228 277.477 467.43 277.455 467.556 277.455C467.856 277.455 468.118 277.549 468.348 277.692H468.346V277.694Z" fill="white"/>
<path d="M577.01 234.122L576.983 234.113L576.955 234.104C575.711 233.737 574.302 233.564 572.52 233.564C571.493 233.564 570.449 233.62 569.441 233.673C568.436 233.727 567.488 233.777 566.561 233.777C563.712 233.777 562.03 233.251 560.888 231.975C560.439 230.202 560.476 228.861 560.997 228.17C561.652 227.302 563.302 227.12 564.568 227.12C567.503 227.12 571.274 228.072 574.027 228.767C574.878 228.982 575.683 229.184 576.367 229.336L576.734 229.418L577.107 229.36C582.091 228.589 584.84 225.184 584.462 220.252C584.093 215.455 580.746 209.548 575.729 204.838C570.078 199.533 563.413 196.611 556.963 196.609H556.959C553.696 196.609 550.533 197.36 547.556 198.843C544.763 199.364 543.039 200.449 542.29 202.153C541.024 205.029 543.097 208.224 545.292 211.607C546.96 214.179 549.037 217.379 548.388 219.108C548.002 220.133 546.554 220.836 545.203 221.283C544.148 220.712 543.121 219.386 542.121 218.095C540.444 215.929 538.541 213.472 535.56 213.472C533.93 213.472 532.306 214.221 530.599 215.764C527.879 217.518 525.921 219.228 524.658 220.975C524.501 219.644 524.304 218.321 524.071 217.01C523.974 216.497 523.24 216.298 522.853 216.58C517.949 219.877 512.685 223.508 506.778 224.539C502.677 224.671 500.091 219.404 502.703 216.246C505.996 212.267 512.422 213.424 516.884 212.285C527.489 210.752 527.328 187.359 522.593 182.223C517.112 185.06 512.153 189.284 506.3 191.272C498.194 191.617 505.132 182.963 508.011 180.452C516.703 171.104 514.487 140.381 498.402 143.257C497.028 120.343 490.444 97.8761 478.81 77.3447C458.753 41.949 426.082 16.4592 386.817 5.57045C373.409 1.85805 359.667 0 345.954 0C331.037 0 316.151 2.1974 301.739 6.58663C274.821 14.7866 250.718 30.2091 232.037 51.1874C222.876 61.4734 213.111 70.9751 202.782 79.6738L151.09 80.5008C151.174 80.1986 151.261 79.9037 151.354 79.62C153.501 74.3592 154.993 68.2659 153.08 62.7381C156.285 44.916 135.515 31.0751 122.714 46.1287C108.735 45.8617 105.555 61.9574 105.995 73.0779C105.314 83.9054 101.521 94.1933 99.869 104.869C92.0098 115.529 90.4821 129.639 87.0095 142.147C84.9163 151.628 79.4766 160.889 81.2435 170.83C81.3733 171.24 81.5123 171.646 81.6477 172.055C75.915 181.82 71.4079 192.386 68.3283 203.557C63.087 222.572 62.2063 242.096 65.5362 260.956H0V275.035H21.7236V366.02H116.053C116.055 366.079 116.058 366.139 116.06 366.198H21.7236V458.01H115.269C115.708 459.672 116.238 461.252 116.887 462.698C122.468 464.269 123.821 461.656 124.038 457.921H126.5C127.149 460.458 127.974 462.568 129.133 463.238C134.99 464.076 135.062 461.498 134.942 457.921H136.901C137.938 460.599 139.297 462.984 142.593 462.837C149.44 463.557 156.413 463.811 163.292 463.356C166.473 463.54 167.675 460.671 167.081 457.919H251.059V458.008H339.502C339.378 458.969 339.415 459.924 339.665 460.825C342.578 463.792 348.018 461.979 351.865 462.579C368.644 462.066 371.684 465.053 384.842 452.872C385.248 459.353 380.649 463.473 390.169 463.201C398.875 463.607 407.567 462.281 416.274 462.633C420.047 461.847 422.081 457.606 424.687 455.045C424.161 463.813 424.548 464.46 433.433 462.947C438.759 456.586 441.98 445.872 438.713 437.603C439.232 437.538 439.907 437.477 440.5 437.295C444.216 445.651 449.863 452.788 456.816 458.008H512.075C524.884 448.403 533.281 432.285 533.281 414.029L536.511 351.133H498.194C499.868 345.498 501.7 339.911 503.699 334.385C510.918 337.899 521.371 340.035 531.689 340.035C549.269 340.035 560.691 334.186 562.299 324.381C565.408 314.695 557.415 310.182 550.987 306.551C544.313 302.781 541.636 300.779 543.286 296.91C543.985 296.48 544.65 296.269 545.308 296.269C547.305 296.269 549.517 298.249 551.657 300.167C554.321 302.551 557.074 305.019 560.519 305.019C562.312 305.019 564.062 304.322 565.721 302.946L565.925 302.778L566.079 302.561C571.777 294.485 573.56 289.45 572.042 285.727C570.177 281.156 564.086 280.038 555.658 278.493C554.71 278.319 553.729 278.141 552.723 277.95L552.578 277.922L552.43 277.916C547.769 277.733 545.69 275.448 545.729 273.401C545.759 271.856 547.033 270.297 549.81 270.297C550.796 270.297 551.89 270.495 553.064 270.888C553.948 271.32 554.916 271.836 555.936 272.379C560.044 274.569 564.702 277.052 569.162 277.052C573.365 277.052 576.538 274.862 578.592 270.542L578.631 270.458L578.662 270.373C579.97 266.814 579.916 263.86 578.503 261.592C575.961 257.511 569.997 256.886 564.735 256.335C563.242 256.18 561.826 256.029 560.662 255.814C559.019 254.854 558.179 253.776 558.403 252.903C558.672 251.852 560.332 250.719 562.543 250.719C563.252 250.719 563.956 250.837 564.635 251.071C566.494 252.039 568.58 252.528 570.838 252.528C577.546 252.528 584.128 248.165 584.923 243.19C585.22 241.341 585.04 236.757 577.012 234.12L577.01 234.122ZM570.837 250.529C568.979 250.529 567.123 250.138 565.44 249.235C564.464 248.879 563.482 248.72 562.542 248.72C557.154 248.72 553.151 253.977 559.957 257.717C566.843 259.128 581.184 257.702 576.784 269.687C574.891 273.67 572.179 275.057 569.162 275.057C564.09 275.057 558.157 271.135 553.824 269.038C552.332 268.526 550.991 268.302 549.808 268.302C541.482 268.302 541.133 279.48 552.348 279.921C568.235 282.929 577.3 283.192 564.444 301.413C563.059 302.561 561.761 303.026 560.517 303.026C555.131 303.026 550.802 294.277 545.307 294.277C544.163 294.277 542.969 294.655 541.704 295.572C535.274 308.567 565.638 307.97 560.347 323.919C558.83 333.921 545.714 338.042 531.687 338.042C520.917 338.042 509.609 335.612 502.606 331.55C500.218 338.003 498.051 344.537 496.103 351.139H491.045C493.262 343.51 495.767 335.968 498.561 328.536C497.827 327.809 497.213 327.049 496.75 326.257C484.406 307.808 476.659 273.164 495.643 256.074C496.572 255.11 497.703 254.574 498.745 254.576C499.989 254.576 501.107 255.34 501.598 257.049C502.543 259.87 506.904 265.668 510.156 265.668C511.289 265.668 512.286 264.966 512.959 263.189C508.204 248.351 497.354 243.984 515.531 231.615C515.974 231.509 516.391 231.459 516.782 231.459C524.955 231.459 522.511 253.393 528.346 253.393C529.818 253.393 531.817 251.996 534.642 248.501C540.798 235.615 512.32 229.818 531.82 217.363C533.278 216.015 534.494 215.479 535.56 215.479C539.34 215.479 541.207 222.228 545.108 223.408C561.548 218.75 533.839 203.17 548.195 200.766C551.108 199.266 554.063 198.613 556.961 198.613C575.429 198.617 591.403 225.127 576.799 227.387C573.894 226.742 568.677 225.123 564.566 225.123C560.456 225.123 557.336 226.805 559.067 232.917C560.91 235.303 563.628 235.782 566.559 235.782C568.517 235.782 570.57 235.569 572.518 235.569C573.879 235.569 575.192 235.672 576.384 236.027C589.735 240.414 580.281 250.535 570.835 250.535V250.529H570.837ZM530.613 413.962V414.031C530.613 430.466 523.362 445.838 511.172 455.344H457.719C450.772 449.92 445.432 442.591 442.121 434.251C446.305 407.563 448.202 380.664 446.166 353.804H533.702L530.615 413.895L530.612 413.964H530.613V413.962ZM248.391 455.255H166.694C164.258 444.168 152.605 454.938 142.206 431.141C138.805 425.166 141.153 418.453 142.799 412.319C149.713 384.523 155.119 356.353 158.964 327.963C159.978 327.704 160.752 326.982 161.098 326.042C163.431 312.047 165.819 298.058 168.084 284.05C168.466 281.695 168.841 279.333 169.197 276.965H248.391V455.255ZM124.207 446.949C124.772 448.724 125.251 452.05 125.9 455.255H124.051C123.953 452.338 123.63 449.198 124.207 446.949ZM123.228 432.265C121.591 430.872 119.6 429.906 117.488 429.502C122.26 405.134 117.731 379.685 118.459 354.944C118.287 346.089 117.909 336.705 121.6 328.432C126.558 329.473 131.643 329.734 136.688 330.062C126.328 360.372 128.451 392.687 124.685 423.952C123.881 426.705 123.428 429.481 123.23 432.265H123.228ZM93.4319 308.613V314.119H41.7453V308.613H93.4337H93.4319ZM2.66609 263.627H106.228C106.356 266.512 106.482 269.431 106.621 272.372H2.66609V263.627ZM68.9698 203.739C71.9808 192.817 76.3618 182.477 81.9258 172.903C85.7414 184.068 91.5352 194.521 96.5281 205.198C96.7895 205.869 97.1028 206.515 97.4366 207.145C97.4885 209.615 98.6917 211.928 100.65 213.708C100.991 215.104 100.98 216.575 100.314 218.219C100.234 220.42 102.954 221.16 104.467 222.214C102.405 235.124 105.518 248.039 106.108 260.962H66.2129C62.8775 242.161 63.7452 222.696 68.9698 203.741V203.739ZM123.903 220.743C127.642 216.788 130.201 211.59 133.331 207.095C136.208 212.059 138.058 218.501 142.441 222.223C148.919 222.661 162.531 218.473 168.11 215.073C168.385 215.718 168.67 216.361 168.976 216.995C160.173 222.59 149.952 225.748 139.516 226.024C132.949 208.953 134.308 210.35 125.227 225.008C117.436 224.476 109.536 222.61 103.006 218.182C103.24 216.684 103.553 215.212 103.918 213.754C109.816 217.34 116.917 221.001 123.901 220.743H123.903ZM170.118 213.02C172.552 209.758 174.883 206.101 177.013 202.192L284.527 202.78H284.612C290.226 202.78 294.768 199.758 295.328 195.635L309.087 94.3324C309.751 89.4518 304.248 85.133 297.466 85.133H297.221L149.331 87.3879C149.772 86.0231 150.102 84.5785 150.425 83.1804L308.731 80.6455C308.811 80.6455 308.887 80.6436 308.966 80.6436C312.589 80.6436 316.082 82.0474 318.081 84.3078C318.919 85.2572 319.87 86.7889 319.634 88.6989L304.685 209.986C304.253 213.494 300.199 216.141 295.256 216.141H295.132L171.006 215.054C170.698 214.336 170.344 213.632 170.114 213.016L170.118 213.02ZM183.552 187.51C184.956 188.22 186.615 188.639 188.443 188.669C194.402 188.763 199.833 184.702 200.552 179.61C201.268 174.533 197.022 170.381 191.089 170.32C189.884 170.307 188.705 170.474 187.579 170.774C187.985 167.449 188.132 164.173 187.963 161.007C184.492 151.496 180.897 141.928 177.032 132.473L206.474 132.424L206.952 129.046L175.645 129.129C175.122 127.878 174.597 126.628 174.065 125.38L207.488 125.252L207.963 121.888L172.629 122.06C172.017 120.66 171.394 119.266 170.767 117.875L208.563 117.642L209.036 114.293L169.328 114.578C168.828 113.236 168.281 112.004 167.688 110.881L209.566 110.53L210.037 107.194L165.618 107.611C160.561 100.915 153.085 99.0536 143.424 97.1454C143.103 96.0922 142.756 95.0445 142.391 94.0116C145.315 93.7742 147.058 92.2055 148.217 90.0748L297.262 87.8014H297.466C300.671 87.8014 303.692 88.9789 305.349 90.8778C305.948 91.562 306.623 92.6561 306.443 93.9745L292.684 195.277C292.31 198.035 288.839 200.114 284.61 200.114H284.539L178.411 199.533C180.36 195.689 182.101 191.643 183.551 187.51H183.552ZM345.954 0.667564C359.667 0.667564 373.355 2.53674 386.639 6.21947C425.733 17.06 458.26 42.4385 478.232 77.6804C489.832 98.1524 496.39 120.549 497.743 143.398C497.577 143.437 497.41 143.473 497.239 143.519C471.509 156.277 492.32 174.01 482.637 182.052C474.155 183.502 469.021 173.081 466.201 166.55C465.333 165.367 465.335 161.643 463.388 162.622C463.042 162.947 462.674 163.31 462.293 163.707C461.512 145.256 460.164 121.185 453.178 114.541C454.177 106.447 446.659 100.099 444.752 92.5189C439.679 78.2905 445.666 61.6811 437.139 48.4596C424.934 29.8772 400.933 35.4254 387.902 49.5592C381.989 58.2339 382.008 69.3006 381.062 79.3827C381.075 90.4976 377.048 101.479 377.795 112.486C364.622 122.9 378.648 171.36 375.175 188.936C372.849 199.804 369.055 210.778 366.836 221.839C366.923 225.312 361.597 233.807 367.57 233.707C370.8 256.66 371.356 279.665 371.212 302.694C362.985 304.65 354.816 306.922 346.714 309.5V275.035H368.438V260.956H245.254L235.864 218.286L295.113 218.803H295.119L307.678 218.913C314.13 218.969 319.334 215.356 319.935 210.4L334.676 88.8472C335.397 82.9041 328.892 77.6526 321.001 77.7787L308.701 77.9752H308.694L203.843 79.6553C213.964 71.0808 223.54 61.7312 232.536 51.6287C251.135 30.7413 275.134 15.3874 301.936 7.22268C316.223 2.87053 331.035 0.663856 345.956 0.663856V0.667564H345.954ZM528.409 236.001C532.393 240.451 534.703 243.466 532.935 247.429C529.785 251.275 528.487 251.388 528.348 251.388C528.238 251.388 527.806 251.084 527.278 249.736C526.646 248.124 526.18 245.831 525.685 243.403C525.294 241.48 524.896 239.518 524.377 237.694C524.697 235.774 524.907 233.833 525.018 231.884C526.001 233.304 527.211 234.662 528.407 235.999H528.409V236.001ZM506.075 252.821C506.339 253.339 506.611 253.862 506.891 254.396C507.64 255.831 508.439 257.372 509.203 259.052C508.078 259.152 506.95 259.171 505.827 259.074C505.297 258.891 504.868 258.677 504.514 258.446C504.071 257.735 503.713 257.046 503.508 256.449C503.458 256.276 503.389 256.12 503.326 255.959C503.582 254.796 504.685 253.621 506.075 252.823V252.821ZM393.905 435.94C388.448 436.25 382.935 436.494 377.519 435.628C377.337 434.11 377.165 432.591 376.996 431.072C382.692 432.057 388.484 432.092 394.192 431.172C394.083 432.762 393.994 434.351 393.903 435.94H393.905ZM388.372 195.237C386.874 201.595 385.502 208.388 382.143 214.025C379.195 215.939 374.286 217.3 371.206 215.045C372.363 210.277 373.583 205.525 374.875 200.79C379.911 200.874 384.514 198.237 388.372 195.235V195.237ZM375.244 199.448C375.357 199.042 375.465 198.636 375.578 198.231C376.097 196.377 376.633 194.526 377.176 192.678C380.552 193.137 383.904 193.746 387.229 194.48C383.693 197.022 379.736 199.457 375.244 199.448ZM389.893 194.421C387.266 191.867 381.323 192.453 377.552 191.394C384.186 171.783 377.343 149.308 387.46 130.581C386.42 122.949 381.099 138.431 380.797 140.276C378.461 151.077 378.617 162.25 377.958 173.24C378.109 161.211 368.536 117.284 381.585 113.276C384.522 129.415 386.007 124.163 382.673 111.993C385.386 109.937 388.167 107.969 391.016 106.106C387.466 126.034 387.775 148.748 397.848 166.776C397.183 176.172 396.471 185.607 396.647 195.027C390.94 205.083 390.019 216.892 387.041 227.901C380.867 227.708 374.712 227.165 368.601 226.262C369.322 222.985 370.084 219.718 370.867 216.456C385.209 222.464 387.707 204.414 389.895 194.423L389.893 194.421ZM457.135 223.628C457.053 225.386 457.003 227.146 456.979 228.906C446.033 230.974 434.154 231.967 423.727 227.289C428.546 211.245 436.038 196.032 440.623 179.933C440.858 173.213 439.631 166.581 439.139 159.902C438.005 155.021 440.682 140.83 437.091 138.425C436.436 138.425 435.671 139.039 435.756 139.758C436.484 145.857 436.086 152.008 436.375 158.127C436.151 158.304 435.971 158.547 435.858 158.834C434.215 163.062 432.626 167.431 432.558 172.024C432.491 176.428 433.996 180.63 435.952 184.513C436.041 184.691 436.154 184.826 436.279 184.932C435.658 187.191 434.897 189.432 434.067 191.665C434.004 191.068 433.909 190.458 433.663 189.996C433.249 189.219 432.369 189.466 431.666 189.581C430.518 189.77 429.371 189.959 428.223 190.148L414.943 192.34C414.41 192.427 414.357 192.967 414.598 193.323C414.588 193.371 414.57 193.414 414.57 193.469C414.613 196.255 414.776 199.036 415.072 201.807C415.352 204.408 415.591 207.153 416.326 209.673C417.323 213.101 421.168 216.975 425.001 216.057C424.287 218.218 423.532 220.365 422.642 222.451C422.461 222.796 422.283 223.141 422.092 223.48C421.636 224.927 421.198 226.377 420.796 227.84C417.716 228.016 414.635 228.194 411.555 228.37C410.793 216.456 407.925 204.749 399.326 195.984C399.068 186.143 399.851 176.311 400.539 166.504C407.779 161.091 412.23 152.956 417.368 145.694C425.902 133.452 433.449 120.165 434.749 105.01C440.306 108.112 446.261 110.94 450.577 115.631C445.098 118.237 440.523 122.582 437.699 127.985C437.302 128.745 438.452 129.42 438.85 128.658C441.563 123.47 445.959 119.26 451.244 116.785C457.348 122.187 456.358 131.857 457.602 139.438C461.862 167.531 459.921 195.537 457.133 223.632V223.628H457.135ZM461.328 204.681C461.762 200.312 462.209 195.943 462.574 191.569C478.517 198.884 473.964 207.08 461.328 204.681ZM486.369 320.194C486.402 319.715 486.423 319.239 486.454 318.76C487.541 318.426 488.612 318.035 489.676 317.62C491.267 321.069 493.069 324.342 495.059 327.32C495.392 327.882 495.793 328.44 496.258 328.989C493.551 336.278 491.121 343.671 488.966 351.137H483.957C484.728 340.821 485.633 330.511 486.369 320.194ZM419.811 101.983C417.846 106.899 406.273 112.752 403.414 106.697C403.525 103.595 403.726 100.493 403.891 97.3902C409.946 97.8538 415.97 94.8646 419.29 89.869C419.646 93.8595 419.134 98.0967 419.811 101.982V101.983ZM397.144 108.221C401.456 123.282 425.347 113.516 425.876 100.606C426.554 100.902 427.231 101.197 427.902 101.511C427.136 107.064 425.386 112.41 423.137 117.541C418.506 118.187 413.741 117.462 409.126 117C404.794 116.464 400.396 116.321 396.107 115.505C396.391 113.069 396.758 110.643 397.146 108.221H397.144ZM395.598 121.054C403.859 122.118 412.284 123.09 420.616 122.819C418.584 126.826 416.318 130.705 414.036 134.575C407.905 133.804 401.631 134.709 395.559 133.442C395.282 129.313 395.314 125.185 395.598 121.054ZM410.693 140.19C408.639 143.645 406.592 147.105 404.686 150.643C402.463 150.469 400.246 150.243 398.034 149.97C397.309 146.341 396.634 142.705 396.126 139.044C400.939 139.855 405.811 140.242 410.693 140.19ZM401.927 155.75C401.282 156.961 400.642 158.176 400.01 159.394C399.727 158.063 399.443 156.731 399.159 155.4C400.082 155.517 401.004 155.633 401.927 155.75ZM400.776 163.694C410.174 143.191 426.332 125.363 430.394 102.723C431.441 103.246 432.48 103.786 433.512 104.335C432.363 113.575 429.99 122.671 425.151 130.704C417.857 142.493 410.942 155.235 400.689 164.718C400.718 164.377 400.742 164.035 400.774 163.694H400.776ZM416.335 70.0052C417.251 71.6538 417.353 73.599 417.913 75.3346C417.742 75.8038 417.805 76.3267 418.198 76.7217C419.819 78.1644 421.092 74.7765 422.848 75.9595C424.806 77.0388 425.438 80.6955 423.477 82.1308C422.455 83.2212 420.353 83.0617 419.42 84.1965C416.246 95.0723 398.167 99.8287 393.951 87.3081C392.844 82.4535 395.327 77.6229 394.476 72.7144C393.274 66.3374 391.244 57.8686 398.39 54.2248C398.85 63.4613 407.918 68.9928 416.335 70.0071V70.0052ZM392.592 105.099C393.451 104.567 394.322 104.058 395.221 103.6C390.143 124.026 394.085 144.454 398.036 164.551C389.22 146.46 388.643 124.58 392.592 105.099ZM410.971 229.739L420.432 229.195C420.288 230.223 419.511 231.469 420.004 232.45C419.991 232.591 420.011 232.73 420.045 232.867C415.488 233.711 410.799 233.796 406.216 233.075C404.445 222.885 403.804 211.573 399.808 202.194C399.645 200.878 399.532 199.557 399.445 198.235C409.277 208.658 408.008 217.941 410.971 229.74V229.739ZM456.966 230.291C456.958 231.98 456.971 233.67 457.025 235.357C454.383 235.457 451.732 235.446 449.092 235.526C440.152 235.812 430.665 235.971 422.564 231.634C422.813 230.608 423.084 229.59 423.362 228.574C433.909 233.31 445.881 232.277 456.964 230.289H456.966V230.291ZM440.243 238.274C443.229 248.23 438.261 257.834 439.479 267.827C439.481 267.853 439.501 268.112 439.505 268.25C436.915 268.216 433.918 269.479 431.456 268.765C428.075 258.861 425.583 246.952 431.141 237.351C434.137 237.927 437.193 238.213 440.241 238.274H440.243ZM450.875 249.424C448.556 249.586 446.224 249.943 443.891 249.593C444.01 248.441 444.04 247.247 443.971 246.075C446.251 246.155 448.53 246.283 450.803 246.476C450.836 247.459 450.855 248.441 450.874 249.424H450.875ZM459.901 245.577L459.613 245.347L459.265 245.233C458.646 245.035 458.03 244.933 457.439 244.933C455.876 244.933 454.661 245.551 453.675 246.548C453.632 245.623 453.582 244.696 453.519 243.769C453.716 243.082 453.814 242.359 453.768 241.588C453.718 240.739 453.501 239.902 453.115 239.07C453.095 238.879 453.08 238.689 453.058 238.498C457.885 240.835 463.711 242.66 465.756 246.159C465.044 247.069 464.323 247.974 463.588 248.87C462.576 247.835 461.36 246.745 459.897 245.577H459.901ZM409.638 279.057C410.146 281.58 410.6 284.115 411.025 286.656C410.812 287.615 410.814 288.686 411.047 289.912C410.02 290.398 408.989 290.873 407.951 291.336C408.604 287.407 409.184 283.331 409.638 279.057ZM444.642 338.95C444.752 336.095 444.933 333.244 445.167 330.396C451.708 330.309 457.784 329.213 462.322 327.32C464.373 333.332 466.149 339.527 467.875 345.539L468.426 347.456C468.783 348.7 469.123 349.919 469.464 351.139H445.964C445.616 347.074 445.178 343.011 444.64 338.948L444.642 338.95ZM470.348 346.904C468.205 339.453 466.088 331.907 463.483 324.564C459.055 326.936 452.286 328.273 445.341 328.393C447.709 302.201 454.374 276.255 453.788 249.856C454.684 248.126 455.826 246.936 457.437 246.936C457.815 246.936 458.219 247.001 458.653 247.14C471.937 257.748 463.314 260.474 458.774 271.634C459.213 273.134 460.008 273.718 460.958 273.718C463.459 273.718 467.02 269.644 467.895 267.573C468.346 266.362 469.173 265.828 470.066 265.828C470.96 265.828 471.837 266.317 472.543 267.174C486.171 281.469 478.156 307.721 467.551 321.217C467.53 321.247 467.506 321.275 467.486 321.302C470.508 329.567 472.877 338.112 475.276 346.54C475.712 348.072 476.14 349.605 476.563 351.141H471.548C471.155 349.728 470.754 348.315 470.35 346.905L470.348 346.904ZM477.199 345.991L476.62 343.957C474.529 336.597 472.371 328.998 469.738 321.649C470.15 321.102 470.552 320.537 470.949 319.964C474.383 320.627 477.961 320.564 481.526 319.951C481.515 320.103 481.51 320.253 481.5 320.405C480.77 330.654 479.872 340.894 479.105 351.141H478.638C478.174 349.448 477.696 347.732 477.201 345.991H477.199ZM466.038 266.825C465.205 268.747 462.172 271.68 460.978 271.719C460.965 271.704 460.95 271.682 460.934 271.656C461.985 269.26 463.238 267.25 464.354 265.455C464.723 264.862 465.075 264.285 465.405 263.721C466.212 263.922 467.002 264.198 467.753 264.552C467.013 265.068 466.414 265.839 466.038 266.825ZM478.395 227.191C477.514 228.758 476.606 230.306 475.669 231.84C471.598 234.467 464.013 232.95 459.643 228.913C459.71 224.546 459.964 220.189 460.307 215.835C466.36 212.521 475.059 215.875 477.827 222.538C478.365 224.337 478.526 225.88 478.397 227.191H478.395ZM425.125 198.12C427.177 198.196 428.779 197.05 430.338 195.832C431.443 194.968 432.389 193.885 432.808 192.583C432.834 192.783 432.871 192.984 432.891 193.186C432.96 193.837 432.993 194.489 433.014 195.142C432.914 195.435 432.81 195.726 432.704 196.019C432.43 196.939 432.109 197.842 431.76 198.732C431.147 200.586 430.494 202.426 429.63 204.186C429.602 204.241 429.569 204.284 429.537 204.334C429.504 204.475 429.463 204.618 429.404 204.753C428.584 206.609 427.848 208.501 427.018 210.353C426.905 210.427 426.805 210.531 426.751 210.694C426.326 211.97 425.915 213.257 425.497 214.544C425.416 214.55 425.332 214.563 425.247 214.602C423.367 215.449 421.068 214.14 419.731 212.844C418.243 211.401 417.594 209.6 417.23 207.6C416.487 203.492 416.081 199.324 415.946 195.151C418.176 197.61 421.925 198.003 425.127 198.12H425.125ZM416.342 193.456C418.89 193.035 421.437 192.616 423.983 192.195C425.403 191.962 426.825 191.726 428.245 191.493C428.955 191.376 429.665 191.259 430.377 191.14C430.705 191.087 431.034 191.033 431.362 190.977C431.473 190.959 431.607 190.929 431.746 190.897C431.729 190.957 431.708 191.014 431.708 191.087C431.723 192.813 430.494 194.08 429.183 195.04C428.562 195.494 427.919 195.949 427.248 196.325C426.36 196.824 425.494 196.807 424.506 196.75C421.558 196.577 418.037 196.206 416.342 193.455V193.456ZM437.215 180.919C435.969 178.006 435.129 174.926 435.229 171.718C435.316 168.998 435.989 166.357 436.855 163.783C436.976 164.862 437.089 165.944 437.176 167.023C438.237 171.79 438.07 176.396 437.217 180.917H437.215V180.919ZM388.206 228.767C391.055 218.436 391.927 207.364 396.76 197.705C398.436 209.639 392.331 221.051 390.76 232.88C383.205 232.303 375.12 231.567 367.55 231.063C367.796 229.894 368.062 228.728 368.316 227.562C374.716 228.066 382.176 230.057 388.207 228.769L388.206 228.767ZM383.926 241.273C383.982 242.43 383.975 243.674 384.023 244.857C379.766 245.163 375.491 244.985 371.276 244.304C371.176 243.275 371.076 242.246 370.974 241.217C375.2 241.992 379.811 242.063 383.925 241.273H383.926ZM465.943 251.692C465.435 250.941 464.814 250.164 464.056 249.35C464.742 248.514 465.42 247.67 466.088 246.819C466.657 248.169 466.687 249.758 465.945 251.69H465.943V251.692ZM271.076 326.381H322.762V331.887H271.076V326.381ZM109.703 236.079C114.193 237.063 118.776 237.506 123.352 237.909C123.419 238.914 123.46 239.919 123.48 240.926C119.04 240.839 114.596 240.412 110.24 239.526C110.15 239.507 110.066 239.513 109.988 239.526C109.936 238.374 109.847 237.225 109.703 236.08V236.079ZM146.164 237.773C152.777 236.828 159.42 235.795 165.643 233.288C165.75 234.122 165.858 234.959 165.963 235.793C159.767 238.235 153.447 240.644 146.772 241.269L146.164 237.773ZM234.434 263.629V272.374H169.86C170.266 269.466 170.637 266.549 170.96 263.629H234.434ZM199.345 217.971L208.806 260.96H171.24C172.619 247.106 172.788 233.162 170.087 219.445C171.073 219.037 171.494 218.431 171.594 217.728L199.343 217.971H199.345ZM322.762 289.194V294.7H271.076V289.194H322.762ZM271.076 308.619H322.762V314.124H271.076V308.619ZM139.421 330.22C145.02 330.491 150.725 330.387 156.155 328.892C154.457 341.201 152.485 353.472 150.208 365.686C147.043 385.275 141.227 404.381 137.719 423.842C138.77 434.143 145.766 445.328 154.974 450.239C140.011 455.479 138.238 434.047 125.987 431.169C132.035 397.79 127.933 362.788 139.421 330.218V330.22ZM271.076 344.148H322.762V349.653H271.076V344.148ZM271.076 342.919V337.413H322.762V342.919H271.076ZM322.762 323.008H271.076V317.503H322.762V323.008ZM379.384 438.545C383.604 438.99 387.846 438.909 392.088 438.703C392.906 440.353 393.708 442.044 393.918 443.88C383.99 442.096 375.774 451.974 365.622 449.777C366.665 449.462 367.704 449.104 368.729 448.674C373.08 446.847 378.77 443.747 379.384 438.547V438.545ZM410.565 449.816C415.393 447.042 421.667 443.949 422.39 437.822C426.892 438.618 431.54 438.38 436.114 437.902C436.603 439.786 437.471 441.631 437.476 443.55C427.722 442.795 420.627 453.241 410.565 449.816ZM396.324 449.425C397.177 445.777 396.691 441.878 394.984 438.551C396.17 438.425 396.263 437.318 396.538 436.437C397.164 425.289 398.03 414.155 399.131 403.046C400.097 392.051 402.178 381.077 401.571 370.001C395.516 339.032 403.283 318.907 407.816 292.13C408.948 291.627 410.076 291.11 411.197 290.58C411.388 291.353 411.665 292.187 412.026 293.085C418.675 340.057 412.905 389.298 416.965 435.402C416.986 436.743 418.791 436.882 419.793 437.236C417.293 446.537 405.048 450.051 396.328 449.425H396.324ZM504.885 196.965C519.361 198.419 497.777 212.068 492.433 208.771C486.543 202.439 500.17 197.716 504.885 196.965ZM148.211 80.6807C147.197 84.5081 146.856 91.8569 141.373 91.2876C140.661 89.4499 139.846 87.6252 139.167 85.7783C143.287 84.1409 146.791 80.2894 148.077 76.2878C147.899 75.6425 147.113 75.0991 146.437 75.3569C143.735 75.5182 143.969 67.7077 147.931 71.5518C150.477 73.2262 150.163 69.0187 151.248 67.7151C151.628 72.2954 149.548 76.438 148.211 80.6807ZM85.2593 157.161C90.7398 141.904 92.5271 125.515 99.1905 110.664C97.5256 134.535 109.447 146.907 133.497 142.829C149.168 137.544 146.752 113.041 144.214 100.02C149.627 101.212 155.036 102.725 160.042 105.134C155.52 111.34 153.069 118.901 153.178 126.604C153.189 127.46 154.524 127.464 154.511 126.604C154.407 119.247 156.712 111.947 161.041 106.004C169.97 118.762 174.444 134.19 180.536 148.426C183.224 156.114 187.322 163.748 184.848 172.029C181.926 185.464 176.98 198.945 169.108 210.277C167.211 204.492 165.58 198.624 163.075 193.065C164.706 188.084 173.589 173.511 170.745 169.663C166.455 159.26 161.645 147.522 157.277 137.138C157.003 136.472 156.393 136 155.638 136.207C152.679 137.375 160.236 149.369 160.728 152.394C155.798 187.556 155.89 180.821 167.53 213.652C162.313 217.589 150.467 220.194 143.787 221.071C139.985 221.574 135.201 203.717 132.841 205.385C129.826 209.152 126.341 217.645 122.46 219.579C115.955 218.561 109.732 216.052 104.28 212.378C109.742 194.699 122.014 176.838 114.575 157.803C113.148 154.971 109.111 139.784 106.041 140.934C104.473 141.982 106.282 143.693 106.464 144.943C95.7142 173.639 93.7489 166.529 107.953 195.14C105.833 200.152 103.664 205.096 102.101 210.301C96.7617 200.101 91.9542 189.657 87.1838 179.178C83.4776 172.315 82.3782 164.542 85.263 157.161H85.2593ZM161.705 189.802C157.718 179.406 162.277 168.08 162.785 157.371C170.919 174.327 168.893 173.253 161.705 189.802ZM102.059 176.725C99.0496 169.278 100.551 166.902 105.453 154.992L102.059 176.725ZM108.915 150.109C111.937 156.403 113.659 163.077 113.939 169.788L110.55 189.089C110.164 190.026 109.747 190.957 109.295 191.88C107.137 187.434 105.401 183.99 104.061 181.184L108.915 150.109ZM41.7453 289.193H93.4337V294.698H41.7453V289.193ZM93.4319 349.65H41.7453V344.144H93.4337V349.65H93.4319ZM93.4319 342.915H41.7453V337.409H93.4337V342.915H93.4319ZM93.4319 331.887H41.7453V326.381H93.4337V331.887H93.4319ZM41.7453 323.005V317.499H93.4337V323.005H41.7453ZM93.4319 422.602H41.7453V417.096H93.4337V422.602H93.4319ZM93.4319 413.719H41.7453V408.214H93.4337V413.719H93.4319ZM93.4319 399.228H41.7453V393.722H93.4337V399.228H93.4319ZM93.4319 390.345H41.7453V384.84H93.4337V390.345H93.4319ZM121.207 460.054C120.451 460.519 119.253 460.249 118.367 460.236C116.746 450.632 114.811 440.405 117.117 430.785C121.774 431.438 123.894 434.39 123.208 438.922C122.785 439.059 122.41 439.374 122.347 439.819C121.309 446.508 121.096 453.328 121.209 460.054H121.207ZM134.897 455.257C134.914 454.619 134.958 453.97 135.059 453.319C135.379 453.905 135.656 454.567 135.917 455.257H134.897ZM164.476 459.522C164.059 462.587 145.712 460.163 142.261 460.135C139.838 460.291 139.757 456.798 138.759 455.247C137.606 452.564 136.011 448.787 134.845 446.068C134.074 444.628 131.768 445.816 132.502 447.298C132.511 451.75 132.264 456.115 132.129 460.575C131.477 460.59 130.82 460.582 130.168 460.575C127.722 451.487 125.191 441.944 125.87 432.509C140.161 438.3 138.157 457.165 158.121 451.188C162.949 450.99 164.767 455.299 164.478 459.52L164.476 459.522ZM251.058 355.982V366.024H346.712V310.202C354.813 307.621 362.98 305.344 371.204 303.384C371 332.887 369.678 362.428 371.382 391.949C372.055 406.892 373.162 421.806 374.975 436.654C375.068 437.587 375.895 438.154 376.763 438.195C374.649 445.256 365.297 447.45 358.817 448.49C354.872 448.859 350.521 448.095 346.714 449.236V366.204H251.059V355.984L251.058 355.982ZM322.766 422.602H271.079V417.096H322.766V422.602ZM322.766 413.719H271.079V408.214H322.766V413.719ZM322.766 399.228H271.079V393.722H322.766V399.228ZM322.766 390.345H271.079V384.84H322.766V390.345ZM439.332 434.863C432.445 435.697 425.275 436.476 418.614 434.063C418.614 433.021 418.608 431.979 418.606 430.937C425.225 433.425 433.014 433.11 439.798 431.432C439.642 432.574 439.488 433.718 439.332 434.861V434.863Z" fill="white"/>
<path d="M539.188 226.961C532.947 227.869 538.281 236.405 540.339 239.45C541.746 241.567 544.561 243.266 546.706 243.266C548.588 243.266 549.954 241.957 549.398 238.474C547.444 234.48 543.83 227.804 539.19 226.961H539.188ZM547.27 241.109C547.16 241.237 546.902 241.265 546.706 241.265C545.401 241.265 543.15 240.065 542.006 238.343C538.392 232.995 538.011 230.256 538.355 229.477C538.45 229.262 538.719 229.101 539.153 229.001C541.702 229.687 544.496 233.071 547.466 239.073C547.614 240.229 547.461 240.889 547.271 241.109H547.27Z" fill="white"/>
<path d="M541.291 286.752C542.963 287.926 549.539 290.166 554.015 290.166C556.633 290.166 558.531 289.4 558.311 287.21C555.576 282.524 548.464 283.513 543.866 281.721C543.376 281.519 542.915 281.428 542.49 281.428C539.844 281.428 538.68 284.967 541.289 286.754H541.291V286.752ZM543.102 283.568L543.122 283.576L543.143 283.583C544.873 284.256 546.832 284.57 548.729 284.872C551.836 285.367 554.784 285.836 556.269 287.746C556.127 287.856 555.581 288.165 554.018 288.165C549.916 288.165 543.703 285.999 542.444 285.115C541.732 284.627 541.802 284.104 541.865 283.902C541.921 283.724 542.075 283.426 542.496 283.426C542.674 283.426 542.88 283.474 543.106 283.567H543.102V283.568Z" fill="#F8F8F8"/>
<path d="M505.832 291.153C510.884 291.153 513.6 282.07 509.99 276.105C506.954 269.707 503.646 267.237 500.913 267.237C495.023 267.237 491.795 278.706 499.682 287.093C501.911 289.988 504.02 291.153 505.832 291.153ZM507.044 274.786C504.441 275.771 501.553 276.225 499.623 275.936C498.742 275.925 497.858 275.732 497.025 275.405C497.075 274.109 497.331 272.928 497.754 271.951C498.106 271.135 499.12 269.236 500.913 269.236C502.806 269.236 505.024 271.274 507.046 274.786H507.044ZM508.491 287.14C508.327 287.429 508.092 287.791 507.79 288.13C505.819 288.113 503.909 287.959 502.496 287.292C502.09 286.882 501.679 286.409 501.265 285.873L501.206 285.795L501.139 285.723C500.869 285.436 500.613 285.143 500.372 284.848C500.309 284.62 500.257 284.382 500.229 284.125C502.63 281.768 506.151 281.951 509.634 282.439C509.614 284.236 509.175 285.929 508.491 287.144V287.14Z" fill="white"/>
<path d="M132.907 179.447C132.523 176.799 130.348 142.568 127.725 147.448C129.566 158.04 130.849 168.721 131.574 179.447C131.631 180.298 132.964 180.305 132.907 179.447Z" fill="white"/>
<path d="M132.187 185.251C133.337 186.972 130.697 204.019 133.142 200.401C133.448 198.78 135.085 181.948 132.187 185.251Z" fill="white"/>
<path d="M401.913 84.1836C402.826 84.7436 403.997 84.5767 404.858 84.0019C405.568 83.5271 404.9 82.3719 404.185 82.8503C402.388 83.9944 401.507 82.0937 402.868 80.7994C403.886 79.2603 404.237 77.4189 403.843 75.6146C403.662 74.7765 402.375 75.1307 402.559 75.9688C402.774 76.9572 402.694 77.9752 402.351 78.9247C401.5 80.5509 399.674 82.7984 401.913 84.1836Z" fill="white"/>
<path d="M406.473 90.6274C407.979 90.1546 411.62 88.5914 410.532 86.6832C409.514 86.2512 409.319 87.8459 408.533 88.2094C407.853 88.8454 403.798 89.8912 406.473 90.6293V90.6274Z" fill="white"/>
<path d="M421.177 80.321C422.868 83.1507 423.725 80.41 421.784 79.0007C422.635 78.2348 422.442 76.4009 421.146 77.4838C420.501 78.8041 418.556 81.3427 419.852 82.5536C421.016 82.7094 420.733 80.9904 421.177 80.321Z" fill="white"/>
<path d="M397.706 70.9584C395.642 70.8545 395.642 78.157 397.706 78.0513C399.769 78.1551 399.769 70.8527 397.706 70.9584Z" fill="white"/>
<path d="M408.241 78.0513C410.305 78.1551 410.305 70.8527 408.241 70.9584C406.177 70.8545 406.177 78.157 408.241 78.0513Z" fill="white"/>
</svg>
