<svg width="28" height="23" viewBox="0 0 28 23" fill="none" xmlns="http://www.w3.org/2000/svg">
<path d="M6.86235 7.16776L1.82353 11.4981L6.86235 15.8284C6.93503 15.8899 6.9952 15.9655 7.03938 16.051C7.08357 16.1366 7.1109 16.2303 7.1198 16.3267C7.1287 16.4232 7.11899 16.5205 7.09124 16.6131C7.06349 16.7057 7.01824 16.7917 6.9581 16.8662C6.89796 16.9406 6.82413 17.0021 6.74085 17.0469C6.65758 17.0918 6.56651 17.1193 6.4729 17.1277C6.37929 17.1361 6.285 17.1253 6.19545 17.0959C6.1059 17.0666 6.02288 17.0192 5.95117 16.9566L0.256236 12.0622C0.176039 11.9933 0.111515 11.907 0.0672342 11.8096C0.0229535 11.7121 0 11.6057 0 11.4981C0 11.3905 0.0229535 11.2841 0.0672342 11.1866C0.111515 11.0892 0.176039 11.0029 0.256236 10.934L5.95117 6.03959C6.09643 5.91682 6.28285 5.85822 6.46982 5.87657C6.65679 5.89492 6.82915 5.98873 6.94936 6.13755C7.06956 6.28638 7.12787 6.47817 7.11157 6.67113C7.09527 6.8641 7.0057 7.0426 6.86235 7.16776ZM27.7438 10.934L22.0488 6.03959C21.9771 5.97698 21.8941 5.92963 21.8046 5.90027C21.715 5.87091 21.6207 5.86012 21.5271 5.86853C21.4335 5.87693 21.3424 5.90437 21.2591 5.94926C21.1759 5.99414 21.102 6.05558 21.0419 6.13004C20.9818 6.2045 20.9365 6.2905 20.9088 6.38308C20.881 6.47566 20.8713 6.573 20.8802 6.66947C20.8891 6.76594 20.9164 6.85963 20.9606 6.94516C21.0048 7.03068 21.065 7.10633 21.1376 7.16776L26.1765 11.4981L21.1376 15.8284C21.065 15.8899 21.0048 15.9655 20.9606 16.051C20.9164 16.1366 20.8891 16.2303 20.8802 16.3267C20.8713 16.4232 20.881 16.5205 20.9088 16.6131C20.9365 16.7057 20.9818 16.7917 21.0419 16.8662C21.102 16.9406 21.1759 17.0021 21.2591 17.0469C21.3424 17.0918 21.4335 17.1193 21.5271 17.1277C21.6207 17.1361 21.715 17.1253 21.8046 17.0959C21.8941 17.0666 21.9771 17.0192 22.0488 16.9566L27.7438 12.0622C27.824 11.9933 27.8885 11.907 27.9328 11.8096C27.977 11.7121 28 11.6057 28 11.4981C28 11.3905 27.977 11.2841 27.9328 11.1866C27.8885 11.0892 27.824 11.0029 27.7438 10.934ZM18.0398 0.0439241C17.9518 0.0110272 17.8584 -0.00363948 17.7648 0.000763853C17.6713 0.00516718 17.5796 0.028554 17.4948 0.0695852C17.4101 0.110616 17.334 0.168486 17.271 0.23988C17.2079 0.311274 17.1592 0.39479 17.1275 0.485646L9.53423 22.0211C9.47181 22.2042 9.48221 22.4053 9.56313 22.5804C9.64406 22.7556 9.78893 22.8906 9.96609 22.9559C10.0423 22.9841 10.1225 22.999 10.2034 23C10.3495 23 10.4922 22.9537 10.6119 22.8672C10.7316 22.7807 10.8226 22.6583 10.8725 22.5167L18.4658 0.981206C18.4977 0.890581 18.5121 0.79435 18.5079 0.698011C18.5038 0.601672 18.4814 0.507111 18.4418 0.419732C18.4023 0.332352 18.3464 0.253864 18.2774 0.188753C18.2085 0.123641 18.1277 0.0731804 18.0398 0.0402534V0.0439241Z" fill="#7B68EE"/>
</svg>
