<svg width="25" height="22" viewBox="0 0 25 22" fill="none" xmlns="http://www.w3.org/2000/svg">
<path d="M24.3183 0C21.955 0 19.3065 1.28071 16.4445 3.8051C14.3903 5.61898 12.6155 7.73367 11.3998 9.31632C10.4097 8.99109 9.35556 8.90277 8.32415 9.05863C7.29273 9.21449 6.31353 9.61007 5.4671 10.2128C4.62068 10.8156 3.93123 11.6083 3.4555 12.5257C2.97976 13.4431 2.73134 14.459 2.73067 15.4898C2.73067 19.0895 0.409428 20.6968 0.304899 20.7653C0.182584 20.8454 0.0897196 20.9625 0.0401141 21.0989C-0.00949134 21.2354 -0.0131886 21.384 0.029572 21.5227C0.0723326 21.6614 0.159267 21.7828 0.27745 21.8688C0.395632 21.9548 0.53875 22.0008 0.685522 22H9.32057C10.364 21.9993 11.3923 21.7539 12.321 21.2839C13.2496 20.8139 14.052 20.1328 14.6621 19.2966C15.2723 18.4605 15.6727 17.4931 15.8305 16.4742C15.9882 15.4552 15.8988 14.4138 15.5696 13.4357C17.1694 12.2381 19.31 10.4814 21.146 8.45204C23.7036 5.62459 25 3.00816 25 0.673469C25 0.494854 24.9282 0.323554 24.8003 0.197254C24.6725 0.0709545 24.4991 0 24.3183 0ZM9.32057 20.6531H2.35004C3.17605 19.626 4.09409 17.9345 4.09409 15.4898C4.09409 14.4686 4.40062 13.4703 4.97491 12.6212C5.54921 11.7721 6.36547 11.1104 7.32048 10.7196C8.2755 10.3288 9.32637 10.2265 10.3402 10.4257C11.354 10.625 12.2853 11.1167 13.0162 11.8388C13.7472 12.5609 14.245 13.4809 14.4466 14.4825C14.6483 15.4841 14.5448 16.5222 14.1492 17.4657C13.7536 18.4091 13.0837 19.2155 12.2242 19.7829C11.3648 20.3502 10.3543 20.6531 9.32057 20.6531ZM12.6712 9.88765C13.0802 9.36346 13.5665 8.7652 14.1153 8.12653C15.1811 8.80456 16.0876 9.70014 16.774 10.7531C16.1298 11.2952 15.5242 11.7756 14.9913 12.1797C14.4244 11.2358 13.6267 10.4477 12.6712 9.88765ZM17.8068 9.85398C17.0678 8.7693 16.1233 7.83622 15.0254 7.10622C17.3932 4.54143 20.5689 1.79592 23.5866 1.39633C23.1821 4.37755 20.403 7.5204 17.8068 9.85398Z" fill="#7B68EE"/>
</svg>
