<svg width="370" height="370" viewBox="0 0 370 370" fill="none" xmlns="http://www.w3.org/2000/svg">
<g clip-path="url(#clip0_1083_39689)">
<path d="M163.959 284.018C163.712 284.018 163.514 283.818 163.514 283.574V278.228C163.514 277.981 163.714 277.783 163.959 277.783C164.203 277.783 164.403 277.983 164.403 278.228V283.574C164.403 283.82 164.203 284.018 163.959 284.018ZM163.959 273.325C163.712 273.325 163.514 273.125 163.514 272.88V267.534C163.514 267.288 163.714 267.089 163.959 267.089C164.203 267.089 164.403 267.29 164.403 267.534V272.88C164.403 273.127 164.203 273.325 163.959 273.325ZM163.959 262.633C163.712 262.633 163.514 262.433 163.514 262.188V256.843C163.514 256.596 163.714 256.398 163.959 256.398C164.203 256.398 164.403 256.598 164.403 256.843V262.188C164.403 262.435 164.203 262.633 163.959 262.633ZM163.959 251.94C163.712 251.94 163.514 251.74 163.514 251.495V246.149C163.514 245.902 163.714 245.704 163.959 245.704C164.203 245.704 164.403 245.904 164.403 246.149V251.495C164.403 251.742 164.203 251.94 163.959 251.94ZM163.959 241.248C163.712 241.248 163.514 241.048 163.514 240.803V235.458C163.514 235.211 163.714 235.013 163.959 235.013C164.203 235.013 164.403 235.213 164.403 235.458V240.803C164.403 241.05 164.203 241.248 163.959 241.248ZM163.959 230.555C163.712 230.555 163.514 230.354 163.514 230.11V224.764C163.514 224.517 163.714 224.319 163.959 224.319C164.203 224.319 164.403 224.519 164.403 224.764V230.11C164.403 230.356 164.203 230.555 163.959 230.555ZM163.959 219.861C163.712 219.861 163.514 219.661 163.514 219.416V214.07C163.514 213.824 163.714 213.625 163.959 213.625C164.203 213.625 164.403 213.826 164.403 214.07V219.416C164.403 219.663 164.203 219.861 163.959 219.861ZM163.959 209.169C163.712 209.169 163.514 208.969 163.514 208.724V203.379C163.514 203.132 163.714 202.934 163.959 202.934C164.203 202.934 164.403 203.134 164.403 203.379V208.724C164.403 208.971 164.203 209.169 163.959 209.169ZM163.959 198.476C163.712 198.476 163.514 198.276 163.514 198.031V192.685C163.514 192.438 163.714 192.24 163.959 192.24C164.203 192.24 164.403 192.44 164.403 192.685V198.031C164.403 198.278 164.203 198.476 163.959 198.476ZM163.959 187.784C163.712 187.784 163.514 187.584 163.514 187.339V181.993C163.514 181.747 163.714 181.549 163.959 181.549C164.203 181.549 164.403 181.749 164.403 181.993V187.339C164.403 187.586 164.203 187.784 163.959 187.784ZM163.959 177.09C163.712 177.09 163.514 176.89 163.514 176.646V171.3C163.514 171.053 163.714 170.855 163.959 170.855C164.203 170.855 164.403 171.055 164.403 171.3V176.646C164.403 176.892 164.203 177.09 163.959 177.09ZM163.959 166.397C163.712 166.397 163.514 166.197 163.514 165.952V160.606C163.514 160.36 163.714 160.161 163.959 160.161C164.203 160.161 164.403 160.362 164.403 160.606V165.952C164.403 166.199 164.203 166.397 163.959 166.397ZM163.959 155.705C163.712 155.705 163.514 155.505 163.514 155.261V149.915C163.514 149.668 163.714 149.47 163.959 149.47C164.203 149.47 164.403 149.67 164.403 149.915V155.261C164.403 155.507 164.203 155.705 163.959 155.705ZM163.959 145.012C163.712 145.012 163.514 144.812 163.514 144.567V139.221C163.514 138.974 163.714 138.776 163.959 138.776C164.203 138.776 164.403 138.976 164.403 139.221V144.567C164.403 144.814 164.203 145.012 163.959 145.012ZM163.959 134.32C163.712 134.32 163.514 134.12 163.514 133.875V128.53C163.514 128.283 163.714 128.085 163.959 128.085C164.203 128.085 164.403 128.285 164.403 128.53V133.875C164.403 134.122 164.203 134.32 163.959 134.32ZM163.959 123.627C163.712 123.627 163.514 123.426 163.514 123.182V117.836C163.514 117.589 163.714 117.391 163.959 117.391C164.203 117.391 164.403 117.591 164.403 117.836V123.182C164.403 123.428 164.203 123.627 163.959 123.627ZM163.959 112.933C163.712 112.933 163.514 112.733 163.514 112.488V107.142C163.514 106.896 163.714 106.697 163.959 106.697C164.203 106.697 164.403 106.898 164.403 107.142V112.488C164.403 112.735 164.203 112.933 163.959 112.933ZM163.959 102.241C163.712 102.241 163.514 102.041 163.514 101.797V96.4507C163.514 96.2041 163.714 96.0059 163.959 96.0059C164.203 96.0059 164.403 96.2061 164.403 96.4507V101.797C164.403 102.043 164.203 102.241 163.959 102.241ZM163.959 91.5477C163.712 91.5477 163.514 91.3476 163.514 91.1029V85.7571C163.514 85.5104 163.714 85.3123 163.959 85.3123C164.203 85.3123 164.403 85.5125 164.403 85.7571V91.1029C164.403 91.3496 164.203 91.5477 163.959 91.5477ZM163.959 80.8561C163.712 80.8561 163.514 80.656 163.514 80.4113V75.0655C163.514 74.8189 163.714 74.6207 163.959 74.6207C164.203 74.6207 164.403 74.8209 164.403 75.0655V80.4113C164.403 80.658 164.203 80.8561 163.959 80.8561ZM163.959 70.1625C163.712 70.1625 163.514 69.9624 163.514 69.7177V64.3719C163.514 64.1253 163.714 63.9271 163.959 63.9271C164.203 63.9271 164.403 64.1273 164.403 64.3719V69.7177C164.403 69.9644 164.203 70.1625 163.959 70.1625ZM163.959 59.4689C163.712 59.4689 163.514 59.2688 163.514 59.0241V53.6783C163.514 53.4317 163.714 53.2335 163.959 53.2335C164.203 53.2335 164.403 53.4337 164.403 53.6783V59.0241C164.403 59.2708 164.203 59.4689 163.959 59.4689ZM163.959 48.7773C163.712 48.7773 163.514 48.5772 163.514 48.3325V42.9867C163.514 42.7401 163.714 42.5419 163.959 42.5419C164.203 42.5419 164.403 42.7421 164.403 42.9867V48.3325C164.403 48.5792 164.203 48.7773 163.959 48.7773ZM192.629 40.0186H187.283C187.036 40.0186 186.838 39.8185 186.838 39.5738C186.838 39.3292 187.038 39.129 187.283 39.129H192.629C192.876 39.129 193.074 39.3292 193.074 39.5738C193.074 39.8185 192.874 40.0186 192.629 40.0186ZM181.936 40.0186H176.589C176.343 40.0186 176.144 39.8185 176.144 39.5738C176.144 39.3292 176.345 39.129 176.589 39.129H181.936C182.183 39.129 182.381 39.3292 182.381 39.5738C182.381 39.8185 182.181 40.0186 181.936 40.0186ZM171.241 40.0186H165.894C165.647 40.0186 165.449 39.8185 165.449 39.5738C165.449 39.3292 165.649 39.129 165.894 39.129H171.241C171.487 39.129 171.685 39.3292 171.685 39.5738C171.685 39.8185 171.485 40.0186 171.241 40.0186Z" fill="black"/>
<path d="M329.42 79.8452C329.173 79.8452 328.975 79.645 328.975 79.4004V64.8753H305.793C305.546 64.8753 305.348 64.6752 305.348 64.4305C305.348 64.1859 305.548 63.9857 305.793 63.9857H329.422C329.669 63.9857 329.867 64.1859 329.867 64.4305V79.4024C329.867 79.6491 329.667 79.8472 329.422 79.8472L329.42 79.8452Z" fill="black"/>
<path d="M329.42 222.564H57.8511C57.6044 222.564 57.4062 222.364 57.4062 222.119V64.4285C57.4062 64.1818 57.6064 63.9837 57.8511 63.9837H305.79C306.037 63.9837 306.235 64.1839 306.235 64.4285C306.235 64.6732 306.035 64.8733 305.79 64.8733H58.298V221.672H328.975V79.4004C328.975 79.1537 329.175 78.9556 329.42 78.9556C329.665 78.9556 329.865 79.1557 329.865 79.4004V222.119C329.865 222.366 329.665 222.564 329.42 222.564Z" fill="black"/>
<path d="M318.132 211.563H69.5857C69.339 211.563 69.1408 211.363 69.1408 211.118L68.9629 75.4294C68.9629 75.3122 69.0094 75.1989 69.0923 75.114C69.1752 75.0311 69.2885 74.9826 69.4078 74.9826H318.132C318.378 74.9826 318.577 75.1828 318.577 75.4274V211.116C318.577 211.363 318.376 211.561 318.132 211.561V211.563ZM70.0306 210.674H317.685V75.8742H69.8547L70.0306 210.672V210.674Z" fill="black"/>
<path d="M233.323 253.79H153.951C153.704 253.79 153.506 253.59 153.506 253.345V222.178C153.506 221.931 153.706 221.733 153.951 221.733H233.323C233.569 221.733 233.767 221.933 233.767 222.178V253.345C233.767 253.592 233.567 253.79 233.323 253.79ZM154.396 252.898H232.876V222.623H154.396V252.898Z" fill="black"/>
<path d="M283.089 278.173H211.695C211.448 278.173 211.25 277.973 211.25 277.728C211.25 277.484 211.45 277.284 211.695 277.284H282.068L280.818 275.935C267.763 261.861 249.265 253.79 230.075 253.79H157.198C138.005 253.79 119.51 261.861 106.455 275.935L105.205 277.284H171.56C171.807 277.284 172.005 277.484 172.005 277.728C172.005 277.973 171.805 278.173 171.56 278.173H104.184C104.006 278.173 103.846 278.068 103.775 277.906C103.705 277.745 103.737 277.555 103.856 277.425L105.802 275.329C119.025 261.074 137.759 252.898 157.198 252.898H230.075C249.514 252.898 268.248 261.074 281.471 275.329L283.417 277.425C283.538 277.555 283.568 277.745 283.497 277.906C283.427 278.068 283.267 278.173 283.089 278.173Z" fill="black"/>
<path d="M211.697 278.173H171.558C171.311 278.173 171.113 277.973 171.113 277.728C171.113 277.484 171.313 277.284 171.558 277.284H211.697C211.944 277.284 212.142 277.484 212.142 277.728C212.142 277.973 211.942 278.173 211.697 278.173Z" fill="white"/>
<path d="M106.348 339.425H80.2617L83.4224 311.121H109.509L106.348 339.425Z" fill="#DFE3E8"/>
<path d="M106.349 339.87H80.262C80.1346 339.87 80.0153 339.816 79.9304 339.723C79.8455 339.628 79.805 339.502 79.8192 339.375L82.9799 311.071C83.0042 310.847 83.1963 310.675 83.4228 310.675H109.509C109.637 310.675 109.756 310.729 109.841 310.822C109.926 310.917 109.966 311.043 109.952 311.17L106.791 339.474C106.767 339.698 106.575 339.87 106.349 339.87ZM80.7595 338.979H105.95L109.012 311.566H83.8211L80.7595 338.979Z" fill="black"/>
<path d="M138.169 359.383V354.68C138.169 351.17 135.611 348.196 132.169 347.705L122.554 346.336C121.027 346.118 119.579 345.517 118.341 344.585L116.149 343.063C111.399 339.765 110.23 335.155 109.959 334.654H78.6878L76.6777 359.078L138.169 359.383Z" fill="white"/>
<path d="M138.17 359.828H138.168L76.6767 359.523C76.5533 359.523 76.434 359.47 76.3511 359.379C76.2682 359.288 76.2257 359.165 76.2358 359.042L78.2459 334.617C78.2641 334.387 78.4583 334.209 78.6908 334.209H109.962C110.126 334.209 110.276 334.298 110.355 334.442C110.407 334.537 110.46 334.678 110.547 334.913C111.008 336.152 112.413 339.923 116.407 342.697L118.599 344.219C119.786 345.113 121.171 345.689 122.619 345.895L132.235 347.264C135.873 347.782 138.617 350.97 138.617 354.68V359.383C138.617 359.503 138.571 359.616 138.486 359.699C138.403 359.782 138.289 359.828 138.172 359.828H138.17ZM77.162 358.635L137.725 358.934V354.678C137.725 351.409 135.311 348.601 132.108 348.146L122.492 346.777C120.894 346.548 119.368 345.914 118.075 344.939L115.897 343.427C111.673 340.493 110.195 336.524 109.71 335.22C109.693 335.176 109.677 335.135 109.665 335.097H79.1013L77.164 358.631L77.162 358.635Z" fill="black"/>
<path d="M76.5206 358.898C75.6632 358.898 74.9676 359.598 74.9655 360.465L74.9453 366.929C74.9453 367.869 75.6996 368.631 76.6318 368.631H138.17C139.634 368.631 140.819 367.432 140.819 365.954V361.575C140.819 360.097 139.632 358.898 138.17 358.898H76.5206Z" fill="black"/>
<path d="M138.185 359.343C138.185 359.343 138.167 359.343 138.158 359.343C137.914 359.329 137.726 359.118 137.74 358.874L137.936 355.43C138.134 351.953 135.716 348.936 132.308 348.415L120.757 346.643C120.689 346.633 120.62 346.666 120.581 346.724L114.624 355.875C114.49 356.082 114.213 356.14 114.007 356.005C113.801 355.871 113.742 355.594 113.878 355.388L119.835 346.237C120.064 345.885 120.48 345.697 120.893 345.762L132.444 347.533C136.306 348.126 139.05 351.542 138.826 355.481L138.63 358.924C138.615 359.161 138.419 359.345 138.185 359.345V359.343Z" fill="black"/>
<path d="M109.962 347.978C109.81 347.978 109.661 347.899 109.578 347.76C109.452 347.547 109.523 347.274 109.735 347.149L116.045 343.431C116.257 343.305 116.53 343.376 116.655 343.588C116.781 343.801 116.71 344.074 116.498 344.199L110.188 347.917C110.118 347.96 110.039 347.98 109.962 347.98V347.978Z" fill="black"/>
<path d="M88.4614 359.209C86.4574 351.035 80.6941 347.572 77.7133 346.292L76.591 358.928C76.2493 358.928 88.4634 359.209 88.4634 359.209H88.4614Z" fill="#020202"/>
<path d="M40.6707 341.035L15.0918 334.163L27.8702 308.299L53.4491 315.171L40.6707 341.035Z" fill="#DFE3E8"/>
<path d="M40.6714 341.482C40.633 341.482 40.5945 341.478 40.5561 341.466L14.9772 334.593C14.8477 334.559 14.7426 334.468 14.686 334.347C14.6314 334.225 14.6334 334.086 14.692 333.964L27.4704 308.101C27.5634 307.911 27.7798 307.812 27.9861 307.868L53.565 314.741C53.6944 314.775 53.7996 314.866 53.8562 314.987C53.9108 315.109 53.9088 315.248 53.8501 315.369L41.0718 341.233C40.9949 341.387 40.8392 341.482 40.6714 341.482ZM15.7335 333.873L40.4348 340.509L52.8107 315.458L28.1094 308.823L15.7335 333.873Z" fill="black"/>
<path d="M16.4566 326.14L5.66406 343.926L38.0963 360.176C41.0164 361.64 44.4096 361.789 47.4369 360.592L65.8956 353.289C61.9968 343.33 54.454 343.843 50.8059 344.777C49.3095 345.161 47.7261 345.002 46.3267 344.33L44.7413 338.303L16.4566 326.14Z" fill="white"/>
<path d="M43.2397 361.838C41.4056 361.838 39.5755 361.415 37.8991 360.574L5.46683 344.324C5.3556 344.268 5.27269 344.169 5.23832 344.049C5.20394 343.93 5.22012 343.801 5.28483 343.696L16.0774 325.909C16.1926 325.719 16.4313 325.644 16.6335 325.731L44.9181 337.895C45.0435 337.949 45.1386 338.059 45.173 338.192L46.7038 344.015C47.9596 344.569 49.369 344.686 50.6936 344.347C54.0221 343.493 62.204 342.64 66.3091 353.128C66.3981 353.356 66.2869 353.615 66.0583 353.704L47.5996 361.007C46.1982 361.561 44.7159 361.838 43.2357 361.838H43.2397ZM6.29593 343.744L38.2974 359.777C41.0982 361.181 44.3701 361.326 47.274 360.178L65.3142 353.041C61.567 343.989 54.7077 344.237 50.916 345.21C49.3245 345.618 47.6259 345.449 46.1335 344.733C46.0162 344.676 45.9293 344.571 45.8949 344.444L44.3641 338.627L16.6355 326.702L6.29391 343.744H6.29593Z" fill="black"/>
<path d="M43.2397 361.838C41.4056 361.838 39.5755 361.415 37.8991 360.574L5.46683 344.324C5.3556 344.268 5.27269 344.169 5.23832 344.049C5.20394 343.93 5.22012 343.801 5.28483 343.696L16.0774 325.909C16.1926 325.719 16.4313 325.644 16.6335 325.731L44.9181 337.895C45.0435 337.949 45.1386 338.059 45.173 338.192L46.7038 344.015C47.9596 344.569 49.369 344.686 50.6936 344.347C54.0221 343.493 62.204 342.64 66.3091 353.128C66.3981 353.356 66.2869 353.615 66.0583 353.704L47.5996 361.007C46.1982 361.561 44.7159 361.838 43.2357 361.838H43.2397ZM6.29593 343.744L38.2974 359.777C41.0982 361.181 44.3701 361.326 47.274 360.178L65.3142 353.041C61.567 343.989 54.7077 344.237 50.916 345.21C49.3245 345.618 47.6259 345.449 46.1335 344.733C46.0162 344.676 45.9293 344.571 45.8949 344.444L44.3641 338.627L16.6355 326.702L6.29391 343.744H6.29593Z" fill="black"/>
<path d="M65.8961 353.289L47.4374 360.592C44.4101 361.789 41.0168 361.64 38.0968 360.176L5.66453 343.926L5.20549 343.698C4.22269 343.243 3.06194 343.613 2.51999 344.553L0.649447 348.251C0.0346944 349.316 0.453292 350.689 1.55742 351.227L36.5336 368.247C40.7155 370.283 45.5446 370.469 49.8579 368.763L68.9901 361.193C70.0295 360.782 70.5391 359.598 70.1286 358.548L68.523 354.448C68.1124 353.399 66.9355 352.881 65.8981 353.291L65.8961 353.289Z" fill="#020202"/>
<path d="M14.9925 348.601C16.2807 345.38 16.3959 341.672 15.0289 338.178C14.3191 336.366 13.2797 334.785 12.0057 333.475L5.66406 343.926L14.9905 348.599L14.9925 348.601Z" fill="#020202"/>
<path d="M42.9819 356.381C42.9051 356.381 42.8262 356.361 42.7534 356.318C42.5411 356.193 42.4723 355.918 42.5977 355.708L48.8888 345.145C49.0142 344.933 49.2872 344.864 49.4995 344.99C49.7118 345.115 49.7806 345.39 49.6552 345.6L43.3641 356.162C43.2812 356.302 43.1336 356.381 42.9799 356.381H42.9819Z" fill="black"/>
<path d="M38.275 351.296C38.1597 351.296 38.0445 351.251 37.9575 351.162C37.7856 350.986 37.7876 350.705 37.9636 350.532L42.4731 346.096C42.649 345.924 42.9301 345.926 43.104 346.102C43.2759 346.278 43.2739 346.559 43.098 346.732L38.5884 351.168C38.5015 351.253 38.3882 351.296 38.275 351.296Z" fill="black"/>
<path d="M113.246 320.218H79.5679L83.1836 254.398L66.0312 166.427L110.89 177.62L117.488 249.156C118.625 256.523 118.896 263.994 118.301 271.422L113.246 320.218Z" fill="black"/>
<path d="M53.4496 324.955L21.3652 317.794L40.0929 260.118L41.1344 185.728H84.0376L76.6545 258.713C75.7931 267.229 73.7122 275.561 70.4848 283.43L53.4496 324.953V324.955Z" fill="black"/>
<path d="M53.4489 325.402C53.4165 325.402 53.3842 325.398 53.3518 325.392L21.2674 318.232C21.144 318.206 21.0389 318.127 20.9782 318.018C20.9155 317.909 20.9034 317.779 20.9418 317.66L39.6493 260.049L40.6907 185.726C40.6948 185.479 40.9071 185.275 41.1417 185.287C41.3884 185.291 41.5846 185.493 41.5805 185.738L40.5391 260.128C40.5391 260.173 40.531 260.217 40.5168 260.26L21.9408 317.47L53.1799 324.441L70.0735 283.266C73.2888 275.428 75.3555 267.154 76.2129 258.672L79.7437 223.769C79.768 223.524 79.9864 223.347 80.231 223.371C80.4757 223.395 80.6537 223.613 80.6294 223.858L77.0986 258.761C76.2311 267.328 74.1462 275.686 70.8965 283.604L53.8614 325.127C53.7906 325.297 53.6268 325.404 53.4489 325.404V325.402Z" fill="black"/>
<path d="M44.9784 231.909H40.3375C40.0908 231.909 39.8926 231.709 39.8926 231.464C39.8926 231.22 40.0928 231.02 40.3375 231.02H44.9784C55.1987 231.02 63.514 222.323 63.514 211.632V197.064C63.514 196.818 63.7142 196.62 63.9589 196.62C64.2036 196.62 64.4038 196.82 64.4038 197.064V211.632C64.4038 222.813 55.6881 231.911 44.9764 231.911L44.9784 231.909Z" fill="white"/>
<path d="M80.1873 224.256C80.0478 224.256 79.9082 224.19 79.8213 224.066C79.6797 223.864 79.7283 223.587 79.9305 223.446L87.6331 218.035C87.8353 217.894 88.1124 217.942 88.2539 218.144C88.3955 218.347 88.3469 218.624 88.1447 218.765L80.4421 224.176C80.3632 224.23 80.2743 224.256 80.1873 224.256Z" fill="white"/>
<path d="M45.6771 264.071C45.5962 264.071 45.5153 264.049 45.4405 264.002L39.8551 260.496C39.6954 260.397 39.6165 260.207 39.657 260.023C39.6974 259.839 39.8491 259.702 40.0371 259.677L46.7084 258.834C46.9511 258.808 47.1755 258.976 47.2059 259.22C47.2362 259.465 47.0643 259.687 46.8196 259.718L41.386 260.405L45.9157 263.248C46.124 263.379 46.1867 263.654 46.0573 263.863C45.9723 263.998 45.8267 264.071 45.6791 264.071H45.6771Z" fill="white"/>
<path d="M176.422 101.388L157.158 146.217H157.154C156.57 147.586 155.787 148.849 154.814 149.923C150.05 155.194 141.937 155.586 136.695 150.8L104.74 121.619L121.986 102.532L141.583 119.124L155.607 92.3463L176.422 101.386V101.388Z" fill="#DFE3E8"/>
<path d="M145.301 154.595C141.997 154.595 138.856 153.378 136.395 151.132L104.44 121.95C104.258 121.785 104.246 121.506 104.41 121.324L121.655 102.237C121.817 102.059 122.09 102.041 122.274 102.197L141.447 118.428L155.212 92.1442C155.321 91.9379 155.57 91.849 155.784 91.942L176.599 100.982C176.823 101.079 176.928 101.342 176.831 101.566L157.568 146.395C157.56 146.413 157.55 146.431 157.539 146.449C156.923 147.881 156.116 149.15 155.145 150.224C152.761 152.863 149.495 154.409 145.95 154.581C145.734 154.591 145.517 154.597 145.303 154.597L145.301 154.595ZM105.366 121.59L136.994 150.475C139.439 152.707 142.605 153.851 145.906 153.692C149.212 153.534 152.257 152.09 154.482 149.628C155.4 148.613 156.16 147.408 156.743 146.045C156.751 146.027 156.761 146.006 156.771 145.988L175.836 101.621L155.808 92.9226L141.977 119.332C141.914 119.451 141.801 119.536 141.667 119.563C141.534 119.589 141.396 119.552 141.293 119.466L122.023 103.153L105.364 121.59H105.366Z" fill="black"/>
<path d="M138.686 112.563L131.17 106.202C121.773 98.2502 110.596 92.7123 98.598 90.0637L80.9056 86.1574L60.2508 90.5732C50.3075 92.7002 41.5473 98.5656 35.7638 106.968L23.4688 124.836L41.7597 138.799L38.0064 198.415H116.201L113.431 133.614L138.688 112.563H138.686Z" fill="white"/>
<path d="M116.202 198.862H38.0068C37.8835 198.862 37.7662 198.811 37.6813 198.72C37.5963 198.629 37.5539 198.51 37.562 198.387L41.301 139.009L23.1982 125.189C23.0101 125.046 22.9677 124.779 23.1011 124.583L35.3962 106.716C41.2687 98.1834 50.0612 92.2938 60.1561 90.1364L80.811 85.7207C80.8737 85.7086 80.9384 85.7086 81.0011 85.7207L98.6934 89.6269C110.713 92.2816 122.042 97.8943 131.457 105.86L138.974 112.221C139.075 112.306 139.132 112.431 139.132 112.563C139.132 112.694 139.073 112.82 138.972 112.903L113.884 133.813L116.647 198.393C116.653 198.514 116.608 198.633 116.523 198.72C116.438 198.807 116.323 198.858 116.202 198.858V198.862ZM38.4821 197.97H115.737L112.984 133.635C112.978 133.495 113.037 133.362 113.144 133.273L137.993 112.561L130.881 106.542C121.577 98.6687 110.38 93.1207 98.5013 90.4984L80.904 86.6144L60.3442 91.0099C50.4717 93.1207 41.8733 98.879 36.1322 107.223L24.0778 124.743L42.0331 138.449C42.1504 138.54 42.2171 138.683 42.207 138.831L38.4821 197.974V197.97Z" fill="black"/>
<path d="M113.429 134.059C113.193 134.059 112.994 133.871 112.984 133.633L112.084 112.581C112.074 112.334 112.264 112.128 112.511 112.116C112.754 112.1 112.964 112.296 112.976 112.543L113.876 133.594C113.886 133.841 113.696 134.047 113.449 134.059C113.443 134.059 113.437 134.059 113.429 134.059Z" fill="black"/>
<path d="M49.6198 141.124C49.5409 141.124 49.46 141.103 49.3872 141.059L48.3094 140.402C48.0991 140.274 48.0324 139.999 48.1618 139.789C48.2892 139.579 48.5642 139.512 48.7745 139.642L49.4742 140.068L56.833 128.109C56.9604 127.899 57.2354 127.834 57.4457 127.963C57.6561 128.093 57.7208 128.366 57.5913 128.576L50 140.913C49.915 141.051 49.7694 141.126 49.6198 141.126V141.124Z" fill="black"/>
<path d="M83.6335 116.53H78.6406V93.978L81.0956 92.9509L83.6335 93.798V116.53Z" fill="white"/>
<path d="M83.635 116.975H78.6422C78.3954 116.975 78.1973 116.774 78.1973 116.53V93.978C78.1973 93.798 78.3044 93.6363 78.4703 93.5675L80.9252 92.5404C81.0243 92.5 81.1376 92.496 81.2387 92.5283L83.7765 93.3755C83.9585 93.4361 84.0819 93.606 84.0819 93.798V116.53C84.0819 116.776 83.8817 116.975 83.637 116.975H83.635ZM79.087 116.083H83.1901V94.1175L81.1153 93.424L79.087 94.2732V116.083Z" fill="black"/>
<path d="M71.582 98.2259C71.5274 98.2259 71.4748 98.2158 71.4222 98.1976C71.3029 98.1511 71.2079 98.0561 71.1634 97.9368L67.8267 88.9961C67.7418 88.7656 67.8571 88.5089 68.0876 88.4239C68.3181 88.339 68.5749 88.4543 68.6619 88.6848L71.8226 97.1523L80.8761 92.3949C80.9994 92.3302 81.147 92.3261 81.2724 92.3848L90.4957 96.7095L93.529 88.6848C93.616 88.4543 93.8728 88.339 94.1033 88.426C94.3339 88.5129 94.4491 88.7697 94.3622 89.0002L91.159 97.4758C91.1145 97.591 91.0255 97.6841 90.9103 97.7306C90.795 97.7771 90.6656 97.775 90.5544 97.7205L81.0945 93.2865L71.7903 98.1774C71.7255 98.2118 71.6548 98.2279 71.582 98.2279V98.2259Z" fill="black"/>
<path d="M157.476 77.6717L152.499 86.7256L140.101 85.193C138.647 85.0131 137.612 83.6827 137.792 82.2189L137.81 82.0652C137.988 80.6034 139.313 79.5621 140.768 79.7421L144.022 80.1444C146.301 80.4255 148.613 80.2415 150.817 79.6006L157.476 77.6697V77.6717Z" fill="#DFE3E8"/>
<path d="M148.755 86.7074C148.737 86.7074 148.718 86.7074 148.7 86.7034L140.049 85.6338C138.352 85.4235 137.143 83.8687 137.351 82.1643L137.37 82.0106C137.471 81.1817 137.887 80.4457 138.545 79.9322C139.196 79.4226 140.007 79.1982 140.826 79.2993L144.079 79.7017C146.31 79.9766 148.536 79.7987 150.696 79.174L152.781 78.5694C153.018 78.4987 153.264 78.6361 153.333 78.8727C153.402 79.1093 153.266 79.3559 153.03 79.4247L150.945 80.0292C148.67 80.6904 146.324 80.8784 143.972 80.5872L140.718 80.1849C140.136 80.1121 139.56 80.2718 139.095 80.6358C138.627 81.0017 138.328 81.5274 138.257 82.1198L138.239 82.2735C138.092 83.4886 138.953 84.6006 140.162 84.7502L148.813 85.8198C149.058 85.8501 149.232 86.0725 149.202 86.3172C149.173 86.5416 148.981 86.7074 148.761 86.7074H148.755Z" fill="black"/>
<path d="M243.453 141.617L94.3535 108.137L102.214 72.7566L251.316 106.237L243.453 141.617Z" fill="white"/>
<path d="M243.453 142.064C243.421 142.064 243.389 142.06 243.356 142.054L94.2545 108.574C94.0138 108.519 93.8642 108.283 93.9168 108.042L101.777 72.6595C101.803 72.5443 101.874 72.4432 101.973 72.3805C102.072 72.3158 102.194 72.2956 102.309 72.3219L251.411 105.802C251.651 105.856 251.801 106.093 251.748 106.334L243.888 141.716C243.862 141.831 243.791 141.932 243.692 141.995C243.619 142.042 243.536 142.064 243.453 142.064ZM94.8834 107.799L243.116 141.085L250.784 106.574L102.552 73.2883L94.8834 107.799Z" fill="black"/>
<path d="M211.081 125.064L104.615 101.158L108.548 83.4623L215.012 107.367L211.081 125.064Z" fill="white"/>
<path d="M211.081 125.509C211.048 125.509 211.016 125.505 210.984 125.499L104.518 101.592C104.278 101.538 104.128 101.301 104.18 101.061L108.112 83.3632C108.138 83.248 108.209 83.1469 108.308 83.0842C108.407 83.0215 108.528 82.9993 108.643 83.0256L215.109 106.932C215.349 106.987 215.499 107.223 215.447 107.464L211.515 125.161C211.489 125.276 211.418 125.377 211.319 125.44C211.246 125.485 211.164 125.509 211.081 125.509ZM105.147 100.82L210.743 124.53L214.482 107.704L108.886 83.994L105.147 100.82Z" fill="black"/>
<path d="M228.174 124.478C231.845 124.478 234.821 121.486 234.821 117.795C234.821 114.105 231.845 111.113 228.174 111.113C224.503 111.113 221.527 114.105 221.527 117.795C221.527 121.486 224.503 124.478 228.174 124.478Z" fill="white"/>
<path d="M228.189 124.927C227.669 124.927 227.148 124.87 226.63 124.753C222.814 123.895 220.402 120.078 221.253 116.243C221.668 114.379 222.782 112.789 224.387 111.768C225.985 110.755 227.88 110.424 229.722 110.838C233.538 111.696 235.95 115.513 235.099 119.348C234.684 121.212 233.57 122.802 231.965 123.823C230.818 124.55 229.516 124.927 228.189 124.927ZM228.163 111.554C227.004 111.554 225.868 111.882 224.865 112.518C223.459 113.412 222.484 114.801 222.123 116.433C221.376 119.789 223.485 123.131 226.824 123.881C228.434 124.243 230.09 123.954 231.485 123.068C232.891 122.175 233.865 120.786 234.227 119.154C234.974 115.798 232.865 112.456 229.526 111.706C229.073 111.605 228.616 111.554 228.163 111.554Z" fill="black"/>
<path d="M235.782 129.848C235.635 129.848 235.489 129.775 235.404 129.639L231.647 123.689C231.515 123.481 231.578 123.206 231.786 123.075C231.995 122.943 232.27 123.006 232.401 123.214L236.158 129.164C236.29 129.373 236.227 129.648 236.019 129.779C235.944 129.826 235.863 129.848 235.782 129.848Z" fill="black"/>
<path d="M153.278 78.4541L148.924 86.1129C148.012 87.7183 147.563 89.5481 147.63 91.396L147.765 95.1547C147.81 96.3921 148.843 97.3585 150.072 97.316L150.556 97.2979C151.787 97.2534 152.748 96.2162 152.705 94.9788L152.97 90.0232L158.001 81.1695L153.276 78.4541H153.278Z" fill="#DFE3E8"/>
<path d="M159.228 77.9386L153.458 88.0903C152.803 89.2448 152.48 90.561 152.528 91.8894L152.69 96.3577C152.734 97.6416 153.808 98.6444 155.084 98.5999L155.402 98.5878C156.678 98.5413 157.677 97.4636 157.632 96.1818L157.452 91.0867L163.523 80.4052L159.23 77.9386H159.228Z" fill="#DFE3E8"/>
<path d="M163.882 79.0587L158.003 89.4005C157.417 90.4316 157.13 91.6043 157.172 92.7912L157.344 97.5688C157.388 98.8021 158.418 99.7666 159.645 99.7221L160.143 99.7039C161.37 99.6594 162.329 98.6242 162.286 97.3909L162.102 92.2048L168.173 81.5233L163.88 79.0567L163.882 79.0587Z" fill="#DFE3E8"/>
<path d="M168.594 80.108L162.675 90.5327C162.119 91.5113 161.846 92.6253 161.887 93.7495L161.986 96.5295C162.032 97.866 163.149 98.9093 164.477 98.8628L164.607 98.8587C165.935 98.8122 166.975 97.6921 166.926 96.3557L166.817 93.2541L172.888 82.5727L168.594 80.106V80.108Z" fill="#DFE3E8"/>
<path d="M151.807 81.0381L153.473 78.1044C156.029 73.6077 161.726 72.0469 166.197 74.6146L174.65 79.4691L169.92 87.7931L151.807 81.036V81.0381Z" fill="#DFE3E8"/>
<path d="M175.403 79.8654L166.932 75.0453L160.988 84.8068C160.988 84.8068 179.724 90.933 179.918 90.0434C180.778 86.1271 179.055 81.9459 175.403 79.8674V79.8654Z" fill="#DFE3E8"/>
<path d="M169.855 88.0377L179.833 90.4336L179.92 90.0414L170.929 85.9977L169.855 88.0377Z" fill="black"/>
<path d="M152.561 96.3011C152.508 96.3011 152.456 96.291 152.403 96.2728C152.173 96.1859 152.057 95.9291 152.144 95.6986C152.187 95.5894 152.217 95.4742 152.237 95.3569C152.278 95.1143 152.506 94.9505 152.751 94.9909C152.994 95.0314 153.157 95.2619 153.117 95.5045C153.089 95.6784 153.042 95.8502 152.979 96.014C152.913 96.1919 152.743 96.3011 152.563 96.3011H152.561Z" fill="black"/>
<path d="M154.997 99.0488C154.297 99.0488 153.634 98.7859 153.118 98.3047C152.581 97.8013 152.269 97.1159 152.243 96.3759L152.081 91.9076C152.031 90.4943 152.372 89.0992 153.07 87.872L155.622 83.3814C155.743 83.1671 156.016 83.0923 156.231 83.2136C156.445 83.3349 156.52 83.6079 156.398 83.8202L153.846 88.3107C153.23 89.3944 152.928 90.6257 152.975 91.8732L153.137 96.3415C153.155 96.845 153.365 97.31 153.731 97.6517C154.097 97.9934 154.57 98.1774 155.07 98.1551L155.387 98.143C156.053 98.1187 156.659 97.7366 156.973 97.1442C157.088 96.9258 157.357 96.845 157.575 96.9582C157.794 97.0734 157.877 97.3423 157.761 97.5607C157.3 98.4341 156.403 98.9982 155.42 99.0346L155.102 99.0468C155.068 99.0468 155.036 99.0468 155.001 99.0468L154.997 99.0488Z" fill="black"/>
<path d="M159.566 100.171C158.889 100.171 158.248 99.9182 157.748 99.4511C157.227 98.9639 156.925 98.3007 156.901 97.585L156.729 92.8073C156.683 91.5376 156.99 90.284 157.617 89.1801L160.406 84.273C160.527 84.0587 160.8 83.9839 161.014 84.1052C161.229 84.2265 161.303 84.4995 161.182 84.7118L158.393 89.6188C157.847 90.5772 157.581 91.669 157.621 92.7729L157.793 97.5506C157.809 98.0298 158.011 98.4725 158.359 98.7981C158.707 99.1236 159.156 99.2833 159.633 99.2752L160.131 99.257C161.041 99.2247 161.777 98.511 161.841 97.5971C161.86 97.3524 162.072 97.1604 162.317 97.1846C162.561 97.2008 162.747 97.4151 162.729 97.6598C162.632 99.0286 161.53 100.098 160.161 100.147L159.663 100.165C159.631 100.165 159.599 100.165 159.566 100.165V100.171Z" fill="black"/>
<path d="M149.992 97.7609C149.312 97.7609 148.669 97.5061 148.17 97.0391C147.648 96.5498 147.346 95.8866 147.32 95.1688L147.185 91.4102C147.114 89.4793 147.583 87.5707 148.536 85.8905L153.268 77.5645C154.517 75.3668 156.543 73.7897 158.972 73.1245C161.393 72.4614 163.927 72.7849 166.109 74.0323L175.625 79.4772C179.384 81.6163 181.285 85.8986 180.355 90.1364C180.302 90.377 180.066 90.5287 179.825 90.4761C179.585 90.4235 179.433 90.185 179.485 89.9464C180.331 86.0927 178.602 82.1966 175.184 80.2516L165.668 74.8067C163.694 73.6785 161.401 73.3853 159.211 73.9858C157.011 74.5884 155.176 76.0158 154.046 78.0073L149.314 86.3333C148.443 87.8679 148.014 89.6128 148.079 91.3799L148.214 95.1385C148.23 95.6197 148.432 96.0625 148.782 96.39C149.13 96.7156 149.583 96.8793 150.06 96.8692L150.544 96.851C151.261 96.8247 151.892 96.3719 152.147 95.6966C152.234 95.4661 152.493 95.3508 152.722 95.4378C152.952 95.5247 153.067 95.7815 152.98 96.012C152.596 97.0229 151.652 97.7022 150.574 97.7407L150.091 97.7588C150.058 97.7588 150.026 97.7588 149.994 97.7588L149.992 97.7609Z" fill="black"/>
<path d="M164.39 99.3116C162.863 99.3116 161.593 98.0925 161.539 96.5457L161.44 93.7657C161.397 92.5566 161.69 91.3637 162.287 90.3123L165.247 85.096C165.369 84.8816 165.64 84.8068 165.854 84.9281C166.068 85.0494 166.143 85.3224 166.022 85.5347L163.061 90.7511C162.546 91.6589 162.293 92.6901 162.331 93.7333L162.43 96.5134C162.469 97.6011 163.383 98.4362 164.461 98.418L164.592 98.4139C165.672 98.3755 166.519 97.4596 166.481 96.3719L166.368 93.1429L171.185 84.6693C171.306 84.455 171.579 84.3802 171.793 84.5015C172.008 84.6228 172.082 84.8958 171.961 85.1081L167.27 93.3633L167.375 96.3395C167.431 97.9186 166.198 99.249 164.625 99.3035L164.493 99.3076C164.459 99.3076 164.426 99.3076 164.392 99.3076L164.39 99.3116Z" fill="black"/>
<path d="M112.11 166.823L99.7891 159.452L107.753 159.553L110.909 161.364C112.677 162.377 113.308 164.63 112.329 166.423L112.11 166.823Z" fill="#DFE3E8"/>
<path d="M98.6616 184.998L83.9318 180.449L81.6406 161.051L96.5827 157.996C100.601 157.175 104.781 157.848 108.342 159.891L110.52 161.14L98.6616 184.998Z" fill="#DFE3E8"/>
<path d="M17.7409 167.479C11.8563 163.94 9.93717 156.275 13.4578 150.359L27.2695 127.14L48.5816 139.953L34.7699 163.172C31.2513 169.088 23.6255 171.017 17.7409 167.479Z" fill="#DFE3E8"/>
<path d="M24.0911 169.699C21.7938 169.699 19.533 169.076 17.5108 167.861C11.426 164.201 9.43408 156.247 13.0741 150.131L26.8858 126.912C26.9464 126.809 27.0455 126.736 27.1608 126.708C27.2761 126.679 27.3974 126.698 27.4985 126.758L48.8106 139.571C49.0209 139.698 49.0897 139.969 48.9643 140.179L35.1526 163.398C33.3872 166.369 30.5743 168.465 27.2356 169.306C26.1942 169.569 25.1386 169.699 24.0911 169.699ZM17.9698 167.096C20.7099 168.744 23.9212 169.221 27.0172 168.443C30.1254 167.663 32.7421 165.709 34.3861 162.946L47.9714 140.107L27.4217 127.753L13.8385 150.588C10.4492 156.286 12.3016 163.692 17.9678 167.098L17.9698 167.096Z" fill="black"/>
<path d="M23.9453 132.729L27.2698 127.138L48.5819 139.953L23.9453 132.729Z" fill="black"/>
<path d="M113.551 173.742L99.1406 165.477L101.856 160.691L116.267 168.957C117.529 169.68 117.967 171.294 117.248 172.562L117.136 172.756C116.416 174.023 114.811 174.464 113.549 173.742H113.551Z" fill="#DFE3E8"/>
<path d="M112.918 179.723L91.8906 167.663L94.6065 162.877L115.633 174.937C116.948 175.691 117.405 177.374 116.655 178.696C115.904 180.018 114.23 180.477 112.916 179.723H112.918Z" fill="#DFE3E8"/>
<path d="M107.487 189.294L83.8086 175.712L86.5244 170.926L110.203 184.509C111.517 185.263 111.974 186.945 111.224 188.267C110.473 189.59 108.799 190.049 107.485 189.294H107.487Z" fill="#DFE3E8"/>
<path d="M95.8386 187.351L84.041 180.524L86.771 175.714L106.769 187.244L101.687 188.29C99.6889 188.7 97.6101 188.366 95.8406 187.351H95.8386Z" fill="#DFE3E8"/>
<path d="M112.929 182.729L112.782 182.99C112.072 184.24 109.781 184.268 107.664 183.053L86.5234 170.926L89.2393 166.14L110.379 178.267C112.497 179.482 113.639 181.48 112.929 182.729Z" fill="#DFE3E8"/>
<path d="M85.2212 180.902L21.3477 168.936L28.7975 142.416L94.7398 164.128L85.2212 180.902Z" fill="#DFE3E8"/>
<path d="M114.306 180.566C113.777 180.566 113.251 180.427 112.778 180.156L107.659 177.22C107.445 177.099 107.372 176.826 107.496 176.611C107.617 176.399 107.89 176.324 108.104 176.448L113.222 179.383C113.732 179.674 114.323 179.751 114.889 179.596C115.457 179.44 115.93 179.072 116.221 178.558L116.314 178.393C116.917 177.331 116.549 175.976 115.493 175.37L109.68 172.036C109.465 171.915 109.392 171.642 109.516 171.427C109.637 171.215 109.91 171.14 110.124 171.263L115.938 174.598C117.417 175.447 117.934 177.345 117.091 178.831L116.998 178.997C116.587 179.719 115.922 180.236 115.123 180.455C114.854 180.53 114.579 180.566 114.306 180.566Z" fill="black"/>
<path d="M110.526 184.749C110.004 184.749 109.491 184.614 109.026 184.347L104.195 181.577C103.98 181.456 103.907 181.183 104.031 180.968C104.152 180.756 104.425 180.681 104.639 180.805L109.47 183.575C109.968 183.86 110.544 183.932 111.096 183.783C111.65 183.631 112.111 183.271 112.397 182.77L112.544 182.509C113.133 181.474 112.773 180.152 111.743 179.561L107.082 176.886C106.868 176.765 106.795 176.492 106.918 176.278C107.04 176.065 107.313 175.991 107.527 176.114L112.188 178.789C113.642 179.622 114.15 181.488 113.321 182.948L113.173 183.209C112.771 183.918 112.118 184.428 111.333 184.642C111.068 184.715 110.799 184.751 110.53 184.751L110.526 184.749Z" fill="black"/>
<path d="M84.3265 181.175C84.3002 181.175 84.2719 181.173 84.2436 181.167L21.2638 169.375C21.0211 169.329 20.8634 169.096 20.9079 168.855C20.9524 168.613 21.187 168.453 21.4276 168.5L84.4074 180.291C84.65 180.338 84.8078 180.57 84.7633 180.811C84.7228 181.025 84.5368 181.175 84.3265 181.175Z" fill="black"/>
<path d="M114.849 174.537C114.321 174.537 113.799 174.399 113.328 174.128L108.65 171.445C108.436 171.324 108.363 171.051 108.487 170.837C108.608 170.625 108.881 170.55 109.095 170.673L113.773 173.356C114.278 173.645 114.865 173.722 115.427 173.568C115.991 173.415 116.46 173.049 116.751 172.537L116.863 172.343C117.461 171.29 117.095 169.945 116.048 169.343L102.966 161.84C102.752 161.718 102.679 161.445 102.802 161.231C102.924 161.019 103.197 160.944 103.411 161.067L116.493 168.57C117.965 169.413 118.478 171.304 117.639 172.782L117.528 172.976C117.119 173.696 116.458 174.209 115.663 174.428C115.395 174.5 115.122 174.537 114.853 174.537H114.849Z" fill="black"/>
<path d="M84.0392 161.069C83.9926 161.069 83.9482 161.063 83.9037 161.049L26.7479 142.84C26.5133 142.765 26.3839 142.515 26.4587 142.28C26.5335 142.046 26.7843 141.916 27.0189 141.991L84.0614 160.163L96.4899 157.559C100.209 156.797 104.132 157.296 107.543 158.962C107.764 159.07 107.857 159.337 107.748 159.559C107.64 159.781 107.373 159.872 107.151 159.763C103.918 158.184 100.195 157.711 96.6699 158.431L84.1281 161.059C84.0978 161.065 84.0675 161.069 84.0371 161.069H84.0392Z" fill="black"/>
<path d="M108.865 190.129C108.331 190.129 107.801 189.99 107.326 189.717L104.509 188.166L101.773 188.728C99.6677 189.161 97.4796 188.809 95.6152 187.74L84.1027 181.118C83.8884 180.995 83.8155 180.722 83.9389 180.509C84.0623 180.297 84.3353 180.224 84.5476 180.346L96.06 186.967C97.7365 187.93 99.7021 188.245 101.595 187.857L104.491 187.262C104.594 187.242 104.703 187.258 104.796 187.309L107.763 188.943C108.284 189.242 108.883 189.317 109.453 189.161C110.027 189.003 110.507 188.631 110.802 188.112L110.873 187.986C111.481 186.915 111.109 185.544 110.044 184.933L103.453 181.152C103.239 181.031 103.166 180.758 103.289 180.544C103.411 180.332 103.684 180.257 103.898 180.38L110.489 184.161C111.979 185.016 112.501 186.929 111.649 188.427L111.578 188.552C111.166 189.28 110.495 189.802 109.692 190.02C109.419 190.095 109.144 190.131 108.869 190.131L108.865 190.129Z" fill="black"/>
<path d="M90.7415 72.4169H82.7578V83.1145H90.7415V72.4169Z" fill="#B9BEC6"/>
<path d="M80.9069 92.3483C83.5075 92.3483 85.6146 90.2294 85.6146 87.6152V75.017H76.1992V87.6152C76.1992 90.2294 78.3064 92.3483 80.9069 92.3483Z" fill="#DFE3E8"/>
<path d="M80.9066 92.7952C78.0654 92.7952 75.752 90.4721 75.752 87.6172V75.019C75.752 74.7723 75.9522 74.5742 76.1968 74.5742H85.6123C85.859 74.5742 86.0571 74.7744 86.0571 75.019V87.6172C86.0571 90.4721 83.7458 92.7952 80.9025 92.7952H80.9066ZM76.6458 75.4638V87.6172C76.6458 89.9807 78.5588 91.9056 80.9086 91.9056C83.2584 91.9056 85.1714 89.9828 85.1714 87.6172V75.4638H76.6458Z" fill="black"/>
<path d="M76.1973 78.6058V75.017H85.6127V83.1145C84.727 83.1408 83.1537 83.157 81.1234 82.6798C78.0032 81.9439 76.5836 79.2771 76.1953 78.6058H76.1973Z" fill="black"/>
<path d="M82.2279 80.7207C86.3546 80.7207 89.7 77.0029 89.7 72.4169C89.7 67.8309 86.3546 64.1131 82.2279 64.1131C78.1012 64.1131 74.7559 67.8309 74.7559 72.4169C74.7559 77.0029 78.1012 80.7207 82.2279 80.7207Z" fill="#DFE3E8"/>
<path d="M82.2276 81.1655C77.8616 81.1655 74.3086 77.241 74.3086 72.4169C74.3086 67.5927 77.8616 63.6683 82.2276 63.6683C86.5935 63.6683 90.1466 67.5927 90.1466 72.4169C90.1466 77.241 86.5935 81.1655 82.2276 81.1655ZM82.2276 64.5599C78.353 64.5599 75.2004 68.084 75.2004 72.4189C75.2004 76.7538 78.353 80.2758 82.2276 80.2758C86.1021 80.2758 89.2548 76.7517 89.2548 72.4189C89.2548 68.0861 86.1021 64.5599 82.2276 64.5599Z" fill="black"/>
<path d="M82.2277 81.1655C79.7808 81.1655 78.1711 80.7631 76.1732 78.5654C76.0074 78.3834 76.0215 78.1003 76.2035 77.9366C76.3855 77.7708 76.6686 77.7849 76.8324 77.9669C78.618 79.9301 79.9932 80.2758 82.2277 80.2758C86.1023 80.2758 89.2549 76.7517 89.2549 72.4189C89.2549 68.0861 86.1023 64.5599 82.2277 64.5599C79.7444 64.5599 77.4937 65.9813 76.2076 68.3631C76.0903 68.5794 75.8193 68.6603 75.6029 68.543C75.3866 68.4257 75.3057 68.1548 75.423 67.9385C76.8466 65.304 79.4532 63.6683 82.2277 63.6683C86.5936 63.6683 90.1467 67.5927 90.1467 72.4169C90.1467 77.241 86.5936 81.1655 82.2277 81.1655Z" fill="black"/>
<path d="M79.8633 76.1594C80.478 76.7255 81.2707 77.1096 82.1646 77.2006C84.1585 77.4048 85.9542 76.1027 86.4476 74.2143L79.8633 76.1594Z" fill="white"/>
<path d="M83.1546 66.5171C83.1546 66.5171 77.8847 60.6436 77.274 83.1145H68.2812C68.2812 83.1145 71.7574 58.5308 82.2284 63.1103L83.1546 66.5171Z" fill="black"/>
<path d="M83.1548 66.5171C83.1548 66.5171 88.5804 60.8215 89.7007 83.1145H95.2537C95.2537 83.1145 90.7401 57.9424 82.2266 63.1103L83.1527 66.5171H83.1548Z" fill="black"/>
<path d="M354.195 160.491H344.371V369.555H354.195C361.746 369.555 367.865 363.435 367.865 355.887V174.159C367.865 166.609 361.744 160.491 354.195 160.491Z" fill="#020202"/>
<path d="M354.195 370H344.371C344.124 370 343.926 369.8 343.926 369.555V160.491C343.926 160.244 344.126 160.046 344.371 160.046H354.195C361.978 160.046 368.312 166.377 368.312 174.159V355.887C368.312 363.67 361.98 370.002 354.195 370.002V370ZM344.818 369.108H354.195C361.487 369.108 367.42 363.176 367.42 355.885V174.157C367.42 166.866 361.487 160.934 354.195 160.934H344.818V369.106V369.108Z" fill="black"/>
<path d="M369.967 184.278H364.428V201.448H369.967V184.278Z" fill="black"/>
<path d="M366.718 184.278H363.488V201.448H366.718V184.278Z" fill="white"/>
<path d="M366.719 201.895H363.49C363.243 201.895 363.045 201.694 363.045 201.45V184.278C363.045 184.032 363.245 183.833 363.49 183.833H366.719C366.966 183.833 367.164 184.034 367.164 184.278V201.45C367.164 201.697 366.964 201.895 366.719 201.895ZM363.935 201.003H366.274V184.723H363.935V201.003Z" fill="black"/>
<path d="M236.486 160.491H344.355C353.386 160.491 360.707 166.611 360.707 174.159V355.887C360.707 363.437 353.386 369.555 344.355 369.555H236.486C227.455 369.555 220.135 363.435 220.135 355.887V174.159C220.135 166.609 227.455 160.491 236.486 160.491Z" fill="white"/>
<path d="M345.592 370H235.252C226.672 370 219.691 363.021 219.691 354.442V175.604C219.691 167.026 226.672 160.046 235.252 160.046H345.592C354.172 160.046 361.153 167.026 361.153 175.604V354.442C361.153 363.021 354.172 370 345.592 370ZM235.25 160.936C227.161 160.936 220.579 167.515 220.579 175.604V354.442C220.579 362.529 227.159 369.11 235.25 369.11H345.59C353.679 369.11 360.261 362.531 360.261 354.442V175.604C360.261 167.517 353.681 160.936 345.59 160.936H235.25Z" fill="black"/>
<path d="M300.469 166.322H277.398C277.151 166.322 276.953 166.122 276.953 165.877C276.953 165.633 277.153 165.432 277.398 165.432H300.469C300.716 165.432 300.914 165.633 300.914 165.877C300.914 166.122 300.714 166.322 300.469 166.322Z" fill="black"/>
<path d="M304.55 168.02C303.369 168.02 302.406 167.06 302.406 165.877C302.406 164.694 303.367 163.734 304.55 163.734C305.733 163.734 306.693 164.694 306.693 165.877C306.693 167.06 305.733 168.02 304.55 168.02ZM304.55 164.626C303.86 164.626 303.298 165.188 303.298 165.877C303.298 166.567 303.86 167.129 304.55 167.129C305.239 167.129 305.802 166.567 305.802 165.877C305.802 165.188 305.239 164.626 304.55 164.626Z" fill="black"/>
<path d="M293.265 302.126C312.922 302.126 328.858 286.186 328.858 266.523C328.858 246.86 312.922 230.92 293.265 230.92C273.607 230.92 257.672 246.86 257.672 266.523C257.672 286.186 273.607 302.126 293.265 302.126Z" fill="#B9BEC6"/>
<path d="M310.529 275.846L325.97 252.465C324.055 248.015 321.259 244.038 317.801 240.745L296.193 273.458L274.659 244.519L264.01 252.447L296.84 296.564L310.527 275.842L310.529 275.846Z" fill="black"/>
<path d="M289.897 293.79L257.066 249.671L267.713 241.743L289.25 270.682L324.125 217.879L335.199 225.199L289.897 293.79Z" fill="white"/>
<path d="M289.898 294.235C289.756 294.235 289.625 294.168 289.54 294.055L256.709 249.938C256.562 249.742 256.604 249.461 256.8 249.315L267.449 241.388C267.544 241.317 267.664 241.286 267.781 241.305C267.898 241.321 268.003 241.386 268.074 241.479L289.231 269.908L323.756 217.635C323.82 217.536 323.924 217.467 324.039 217.445C324.154 217.42 324.275 217.445 324.375 217.509L335.45 224.829C335.654 224.964 335.711 225.241 335.576 225.445L290.274 294.037C290.193 294.158 290.06 294.233 289.914 294.237H289.902L289.898 294.235ZM257.69 249.762L289.876 293.014L334.581 225.326L324.249 218.498L289.621 270.929C289.54 271.05 289.406 271.125 289.261 271.129C289.111 271.129 288.978 271.066 288.891 270.949L267.621 242.368L257.688 249.764L257.69 249.762Z" fill="black"/>
<path d="M369.554 0.51355H199.258V17.2384H369.554V0.51355Z" fill="#B9BEC6"/>
<path d="M360.698 12.5093C362.738 12.5093 364.391 10.8563 364.391 8.81734C364.391 6.77835 362.738 5.12543 360.698 5.12543C358.659 5.12543 357.006 6.77835 357.006 8.81734C357.006 10.8563 358.659 12.5093 360.698 12.5093Z" fill="white"/>
<path d="M348.556 12.5093C350.595 12.5093 352.248 10.8563 352.248 8.81734C352.248 6.77835 350.595 5.12543 348.556 5.12543C346.516 5.12543 344.863 6.77835 344.863 8.81734C344.863 10.8563 346.516 12.5093 348.556 12.5093Z" fill="white"/>
<path d="M336.411 12.5093C338.451 12.5093 340.104 10.8563 340.104 8.81734C340.104 6.77835 338.451 5.12543 336.411 5.12543C334.372 5.12543 332.719 6.77835 332.719 8.81734C332.719 10.8563 334.372 12.5093 336.411 12.5093Z" fill="white"/>
<path d="M369.556 83.0761H199.259C199.013 83.0761 198.814 82.876 198.814 82.6313V0.513565C198.814 0.266898 199.015 0.0687561 199.259 0.0687561H369.556C369.803 0.0687561 370.001 0.26892 370.001 0.513565V82.6313C370.001 82.878 369.801 83.0761 369.556 83.0761ZM199.704 82.1845H369.111V0.958373H199.704V82.1845Z" fill="black"/>
<path d="M351.659 28.4152H218.806C215.853 28.4152 213.459 30.8086 213.459 33.761V34.228C213.459 37.1804 215.853 39.5738 218.806 39.5738H351.659C354.612 39.5738 357.006 37.1804 357.006 34.228V33.761C357.006 30.8086 354.612 28.4152 351.659 28.4152Z" fill="#B9BEC6"/>
<path d="M351.659 46.9334H218.806C215.853 46.9334 213.459 49.3268 213.459 52.2792V52.7463C213.459 55.6987 215.853 58.092 218.806 58.092H351.659C354.612 58.092 357.006 55.6987 357.006 52.7463V52.2792C357.006 49.3268 354.612 46.9334 351.659 46.9334Z" fill="#B9BEC6"/>
<path d="M258.145 298.778H142.131V310.171H258.145V298.778Z" fill="#B9BEC6"/>
<path d="M253.891 306.214C254.874 305.232 254.874 303.639 253.891 302.657C252.909 301.675 251.316 301.675 250.333 302.657C249.351 303.639 249.351 305.232 250.333 306.214C251.316 307.196 252.909 307.196 253.891 306.214Z" fill="white"/>
<path d="M246.281 304.997C246.6 303.646 245.763 302.291 244.411 301.972C243.059 301.653 241.704 302.49 241.385 303.842C241.065 305.194 241.903 306.549 243.255 306.868C244.607 307.187 245.962 306.349 246.281 304.997Z" fill="white"/>
<path d="M237.344 306.213C238.327 305.231 238.327 303.638 237.344 302.656C236.362 301.674 234.769 301.674 233.787 302.656C232.804 303.638 232.804 305.231 233.787 306.213C234.769 307.195 236.362 307.195 237.344 306.213Z" fill="white"/>
<path d="M258.145 335.101H142.13C141.884 335.101 141.686 334.901 141.686 334.656V298.78C141.686 298.533 141.886 298.335 142.13 298.335H258.145C258.391 298.335 258.59 298.535 258.59 298.78V334.656C258.59 334.903 258.389 335.101 258.145 335.101ZM142.575 334.209H257.7V299.223H142.575V334.209Z" fill="black"/>
<path d="M245.953 317.786H155.447C153.435 317.786 151.805 319.416 151.805 321.427V321.746C151.805 323.757 153.435 325.388 155.447 325.388H245.953C247.964 325.388 249.595 323.757 249.595 321.746V321.427C249.595 319.416 247.964 317.786 245.953 317.786Z" fill="#B9BEC6"/>
<path d="M309.265 151.605C309.018 151.605 308.82 151.405 308.82 151.16V145.814C308.82 145.568 309.021 145.37 309.265 145.37C309.51 145.37 309.71 145.57 309.71 145.814V151.16C309.71 151.407 309.51 151.605 309.265 151.605ZM309.265 140.911C309.018 140.911 308.82 140.711 308.82 140.467V135.121C308.82 134.874 309.021 134.676 309.265 134.676C309.51 134.676 309.71 134.876 309.71 135.121V140.467C309.71 140.713 309.51 140.911 309.265 140.911ZM309.265 130.22C309.018 130.22 308.82 130.02 308.82 129.775V124.429C308.82 124.183 309.021 123.984 309.265 123.984C309.51 123.984 309.71 124.185 309.71 124.429V129.775C309.71 130.022 309.51 130.22 309.265 130.22ZM309.265 119.526C309.018 119.526 308.82 119.326 308.82 119.081V113.736C308.82 113.489 309.021 113.291 309.265 113.291C309.51 113.291 309.71 113.491 309.71 113.736V119.081C309.71 119.328 309.51 119.526 309.265 119.526ZM309.265 108.835C309.018 108.835 308.82 108.634 308.82 108.39V103.044C308.82 102.797 309.021 102.599 309.265 102.599C309.51 102.599 309.71 102.799 309.71 103.044V108.39C309.71 108.636 309.51 108.835 309.265 108.835ZM309.265 98.141C309.018 98.141 308.82 97.9408 308.82 97.6962V92.3504C308.82 92.1037 309.021 91.9056 309.265 91.9056C309.51 91.9056 309.71 92.1057 309.71 92.3504V97.6962C309.71 97.9428 309.51 98.141 309.265 98.141Z" fill="black"/>
<path d="M287.47 211.563H220.134C219.888 211.563 219.689 211.363 219.689 211.118C219.689 210.874 219.89 210.674 220.134 210.674H287.47C287.717 210.674 287.915 210.874 287.915 211.118C287.915 211.363 287.715 211.563 287.47 211.563Z" fill="black"/>
<path d="M255.909 222.623H218.767C218.52 222.623 218.322 222.423 218.322 222.178C218.322 221.933 218.522 221.733 218.767 221.733H255.909C256.156 221.733 256.354 221.933 256.354 222.178C256.354 222.423 256.154 222.623 255.909 222.623Z" fill="black"/>
<path d="M329.421 193.31C329.175 193.31 328.977 193.11 328.977 192.865V159.519C328.977 159.272 329.177 159.074 329.421 159.074C329.666 159.074 329.866 159.274 329.866 159.519V192.865C329.866 193.112 329.666 193.31 329.421 193.31Z" fill="black"/>
<path d="M318.132 203.722C317.886 203.722 317.688 203.522 317.688 203.278V158.123C317.688 157.877 317.888 157.679 318.132 157.679C318.377 157.679 318.577 157.879 318.577 158.123V203.278C318.577 203.524 318.377 203.722 318.132 203.722Z" fill="black"/>
<path d="M31.0349 62.0569C13.9229 62.0569 0 48.1384 0 31.0295C0 13.9205 13.9229 0 31.0349 0C48.1468 0 62.0698 13.9185 62.0698 31.0295C62.0698 48.1404 48.1468 62.0589 31.0349 62.0589V62.0569ZM31.0349 0.891639C14.4143 0.891639 0.891795 14.4098 0.891795 31.0295C0.891795 47.6491 14.4143 61.1673 31.0349 61.1673C47.6554 61.1673 61.178 47.6471 61.178 31.0295C61.178 14.4118 47.6554 0.891639 31.0349 0.891639Z" fill="black"/>
<path d="M31.0345 62.0569C22.1873 62.0569 14.9902 48.1384 14.9902 31.0274C14.9902 13.9165 22.1873 0 31.0345 0C39.8816 0 47.0787 13.9185 47.0787 31.0295C47.0787 48.1404 39.8816 62.0589 31.0345 62.0589V62.0569ZM31.0345 0.891639C22.6787 0.891639 15.88 14.4118 15.88 31.0295C15.88 47.6471 22.6787 61.1673 31.0345 61.1673C39.3902 61.1673 46.1889 47.6471 46.1889 31.0295C46.1889 14.4118 39.3902 0.891639 31.0345 0.891639Z" fill="black"/>
<path d="M31.0353 17.2323C23.1749 17.2323 15.6786 14.2885 9.92338 8.94673C9.7434 8.77892 9.73329 8.49788 9.89911 8.31794C10.067 8.13799 10.348 8.12788 10.528 8.2957C16.1174 13.4858 23.3994 16.3427 31.0332 16.3427C38.6671 16.3427 45.9491 13.4838 51.5405 8.29367C51.7205 8.12586 52.0016 8.13597 52.1694 8.31591C52.3372 8.49586 52.3271 8.77892 52.1451 8.94471C46.3899 14.2885 38.8916 17.2323 31.0312 17.2323H31.0353Z" fill="black"/>
<path d="M10.2243 53.8845C10.105 53.8845 9.9857 53.836 9.89672 53.743C9.72887 53.563 9.73899 53.28 9.92098 53.1142C15.6762 47.7704 23.1746 44.8266 31.0349 44.8266C38.8952 44.8266 46.3916 47.7704 52.1468 53.1142C52.3268 53.282 52.3369 53.563 52.171 53.743C52.0032 53.9229 51.7221 53.933 51.5421 53.7652C45.9528 48.5751 38.6687 45.7162 31.0369 45.7162C23.4051 45.7162 16.1211 48.5751 10.5297 53.7652C10.4447 53.8441 10.3355 53.8845 10.2263 53.8845H10.2243Z" fill="black"/>
<path d="M61.6249 31.4743H0.444887C0.198177 31.4743 0 31.2741 0 31.0295C0 30.7848 0.200199 30.5847 0.444887 30.5847H61.6228C61.8696 30.5847 62.0677 30.7848 62.0677 31.0295C62.0677 31.2741 61.8675 31.4743 61.6228 31.4743H61.6249Z" fill="black"/>
<path d="M31.0347 62.0569C30.788 62.0569 30.5898 61.8567 30.5898 61.6121V0.444809C30.5898 0.198142 30.79 0 31.0347 0C31.2794 0 31.4796 0.200164 31.4796 0.444809V61.6121C31.4796 61.8587 31.2794 62.0569 31.0347 62.0569Z" fill="black"/>
</g>
<defs>
<clipPath id="clip0_1083_39689">
<rect width="370" height="370" fill="white"/>
</clipPath>
</defs>
</svg>
