<svg width="381" height="401" viewBox="0 0 381 401" fill="none" xmlns="http://www.w3.org/2000/svg">
<g clip-path="url(#clip0_1083_39109)">
<path d="M354.915 55.498H130.732C123.661 55.498 117.175 61.2237 116.252 68.2883L76.5326 371.403C75.6068 378.465 80.5892 384.193 87.6625 384.193H311.846C318.917 384.193 325.4 378.467 326.326 371.403L366.045 68.2883C366.971 61.2259 361.989 55.498 354.915 55.498Z" fill="black"/>
<path d="M311.846 384.677H87.6602C84.117 384.677 80.9599 383.301 78.7638 380.805C76.5435 378.279 75.5782 374.917 76.0477 371.339L115.765 68.2248C116.719 60.9389 123.432 55.0115 130.729 55.0115H354.913C358.456 55.0115 361.616 56.3876 363.81 58.8835C366.03 61.41 366.995 64.7714 366.526 68.3497L326.806 371.464C325.852 378.75 319.139 384.677 311.844 384.677H311.846ZM130.732 55.9844C123.906 55.9844 117.627 61.5327 116.734 68.3497L77.0174 371.464C76.5852 374.76 77.4671 377.849 79.5009 380.161C81.5084 382.444 84.4066 383.702 87.6646 383.702H311.848C318.674 383.702 324.953 378.154 325.846 371.337L365.565 68.2226C365.997 64.9269 365.115 61.8373 363.081 59.5255C361.074 57.2422 358.175 55.9844 354.917 55.9844H130.734H130.732Z" fill="black"/>
<path d="M348.253 55.498H124.07C116.999 55.498 110.515 61.2237 109.59 68.2883L69.8705 371.403C68.9446 378.465 73.9271 384.193 81.0004 384.193H305.184C312.255 384.193 318.738 378.467 319.664 371.403L359.383 68.2883C360.309 61.2259 355.327 55.498 348.253 55.498Z" fill="white"/>
<path d="M305.182 384.677H80.9981C77.4549 384.677 74.2956 383.301 72.1017 380.805C69.8814 378.279 68.916 374.917 69.3856 371.339L109.105 68.2248C110.059 60.9389 116.773 55.0115 124.067 55.0115H348.253C351.794 55.0115 354.953 56.3876 357.15 58.8835C359.37 61.41 360.335 64.7714 359.866 68.3497L320.147 371.464C319.192 378.75 312.479 384.677 305.182 384.677ZM124.067 55.9844C117.242 55.9844 110.963 61.5327 110.07 68.3497L70.3509 371.464C69.9187 374.76 70.8006 377.849 72.8344 380.161C74.8419 382.444 77.7401 383.702 80.9981 383.702H305.182C312.007 383.702 318.286 378.154 319.179 371.337L358.898 68.2226C359.33 64.9269 358.448 61.8373 356.415 59.5255C354.407 57.2422 351.509 55.9844 348.251 55.9844H124.065H124.067Z" fill="black"/>
<path d="M293.036 351.872H97.2744C97.134 351.872 97.0002 351.811 96.908 351.705C96.8159 351.6 96.772 351.46 96.7918 351.322L132.904 75.7298C132.935 75.4866 133.143 75.3069 133.387 75.3069H329.148C329.288 75.3069 329.422 75.3683 329.514 75.4734C329.606 75.5786 329.65 75.7189 329.63 75.8569L293.518 351.449C293.487 351.692 293.279 351.872 293.036 351.872ZM97.8295 350.899H292.608L328.593 76.2798H133.815L97.8295 350.899Z" fill="black"/>
<path d="M296.131 123.718H153.97C153.829 123.718 153.696 123.657 153.603 123.552C153.511 123.447 153.467 123.306 153.487 123.168L155.122 110.689C155.152 110.446 155.361 110.266 155.604 110.266H297.765C297.906 110.266 298.039 110.328 298.132 110.433C298.224 110.538 298.268 110.678 298.248 110.816L296.613 123.295C296.583 123.539 296.374 123.718 296.131 123.718ZM154.525 122.745H295.703L297.21 111.239H156.032L154.525 122.745Z" fill="black"/>
<path d="M196.112 197.866H132.72C132.579 197.866 132.446 197.805 132.353 197.7C132.261 197.594 132.217 197.454 132.237 197.316L140.535 134.002C140.565 133.759 140.774 133.579 141.017 133.579H204.409C204.549 133.579 204.683 133.64 204.775 133.746C204.868 133.851 204.911 133.991 204.892 134.129L196.594 197.443C196.563 197.686 196.355 197.866 196.112 197.866ZM133.275 196.891H195.684L203.852 134.55H141.443L133.275 196.891Z" fill="black"/>
<path d="M304.744 145.539H223.057L224.241 136.502H305.926L304.744 145.539Z" fill="black"/>
<path d="M302.847 160.014H221.162L222.345 150.978H304.032L302.847 160.014Z" fill="black"/>
<path d="M300.951 174.49H219.264L220.448 165.453H302.133L300.951 174.49Z" fill="black"/>
<path d="M280.405 331.78H115.173C115.032 331.78 114.899 331.719 114.806 331.614C114.714 331.509 114.67 331.368 114.69 331.23L130.092 213.689C130.122 213.446 130.331 213.266 130.574 213.266H295.807C295.947 213.266 296.081 213.328 296.173 213.433C296.265 213.538 296.309 213.678 296.289 213.816L280.888 331.357C280.857 331.601 280.649 331.78 280.405 331.78ZM115.728 330.807H279.977L295.252 214.239H131.002L115.728 330.807Z" fill="black"/>
<path d="M268.419 267.303C268.419 267.303 269.979 263.735 272.572 263.391C275.167 263.047 277.401 262.701 277.802 265.21C278.204 267.719 277.098 270.576 272.317 270.905C267.541 271.232 268.419 267.303 268.419 267.303Z" fill="white"/>
<path d="M271.772 271.411C270.353 271.411 269.297 271.017 268.626 270.239C267.557 268.996 267.928 267.27 267.944 267.197C267.95 267.167 267.959 267.138 267.972 267.11C268.04 266.954 269.675 263.286 272.509 262.911L272.656 262.892C275.192 262.554 277.816 262.206 278.284 265.135C278.534 266.702 278.2 268.157 277.345 269.231C276.329 270.506 274.648 271.234 272.351 271.392C272.152 271.405 271.959 271.411 271.772 271.411ZM268.887 267.452C268.848 267.688 268.694 268.832 269.37 269.61C269.918 270.243 270.897 270.515 272.285 270.421C274.297 270.283 275.745 269.678 276.583 268.626C277.266 267.767 277.529 266.584 277.323 265.289C277.018 263.385 275.559 263.488 272.786 263.856L272.639 263.876C270.493 264.16 269.076 267.048 268.887 267.454V267.452Z" fill="black"/>
<path d="M274.745 255.172C274.745 255.172 277.435 254.111 277.882 256.261C278.33 258.411 278.001 260.915 275.263 262.333C272.527 263.748 269.662 263.376 269.357 260.155C269.052 256.934 272.514 255.52 274.745 255.172Z" fill="white"/>
<path d="M272.406 263.606C271.74 263.606 271.13 263.466 270.607 263.181C269.91 262.802 269.041 261.976 268.872 260.201C268.576 257.083 271.538 255.194 274.62 254.699C274.916 254.591 276.307 254.142 277.338 254.699C277.867 254.983 278.22 255.49 278.361 256.162C278.982 259.14 277.962 261.487 275.489 262.767C274.41 263.326 273.352 263.608 272.406 263.608V263.606ZM276.136 255.395C275.528 255.395 274.932 255.621 274.923 255.625C274.89 255.639 274.855 255.647 274.82 255.654C274.276 255.739 269.508 256.585 269.842 260.109C269.945 261.191 270.36 261.938 271.073 262.326C272.031 262.848 273.517 262.69 275.039 261.901C277.665 260.543 277.775 258.137 277.404 256.36C277.323 255.965 277.15 255.702 276.873 255.553C276.656 255.435 276.395 255.393 276.134 255.393L276.136 255.395Z" fill="black"/>
<path d="M268.428 253.355C267.864 252.181 267.535 249.06 269.904 247.641C273.007 245.78 274.6 245.153 275.868 246.589C277.138 248.024 278.255 252.111 275.611 254.103C272.781 256.237 269.694 255.996 268.426 253.355H268.428Z" fill="white"/>
<path d="M271.829 256.024C271.467 256.024 271.114 255.985 270.774 255.902C269.541 255.601 268.578 254.795 267.988 253.566C267.292 252.119 267.068 248.773 269.653 247.222C272.584 245.462 274.627 244.448 276.232 246.264C277.101 247.246 277.878 249.26 277.68 251.206C277.542 252.582 276.928 253.717 275.906 254.488C274.578 255.49 273.141 256.022 271.827 256.022L271.829 256.024ZM274.229 246.293C273.378 246.293 272.169 246.849 270.155 248.059C267.972 249.369 268.455 252.288 268.867 253.147C269.328 254.105 270.065 254.729 271.004 254.957C272.288 255.268 273.861 254.817 275.32 253.715C276.132 253.103 276.601 252.227 276.713 251.111C276.88 249.459 276.215 247.715 275.504 246.911C275.146 246.505 274.756 246.293 274.229 246.293Z" fill="black"/>
<path d="M269.635 246.479C269.017 246.562 268.409 246.402 267.992 246.01C267.7 245.734 267.439 245.337 267.369 244.77C267.193 243.339 270.065 240.845 272.343 240.138C274.62 239.428 276.803 241.904 274.738 244.08C273.185 245.719 272.097 246.15 269.635 246.479Z" fill="white"/>
<path d="M269.317 246.988C268.677 246.988 268.089 246.768 267.659 246.365C267.22 245.951 266.961 245.436 266.887 244.831C266.656 242.969 269.936 240.379 272.198 239.675C273.532 239.259 274.954 239.759 275.658 240.885C276.191 241.739 276.323 243.118 275.092 244.415C273.385 246.216 272.104 246.641 269.699 246.961C269.57 246.979 269.44 246.988 269.315 246.988H269.317ZM273.148 240.504C272.931 240.504 272.707 240.536 272.488 240.604C270.193 241.319 267.729 243.698 267.852 244.713C267.898 245.086 268.058 245.405 268.326 245.657C268.624 245.938 269.08 246.063 269.57 245.997C271.873 245.69 272.891 245.322 274.385 243.747C275.118 242.975 275.281 242.119 274.831 241.4C274.475 240.83 273.833 240.504 273.146 240.504H273.148Z" fill="black"/>
<path d="M265.706 240.837C265.706 240.837 264.945 238.334 266.632 236.551C268.319 234.767 269.55 233.698 271.277 234.416C273.001 235.135 274.495 237.642 272.075 239.423C269.658 241.205 266.926 242.625 265.706 240.834V240.837Z" fill="white"/>
<path d="M267.315 242.147C267.151 242.147 266.995 242.134 266.844 242.108C266.201 241.998 265.683 241.661 265.306 241.108C265.277 241.067 265.257 241.023 265.242 240.977C265.207 240.863 264.419 238.181 266.28 236.215C267.976 234.423 269.435 233.121 271.464 233.967C272.697 234.48 273.66 235.687 273.807 236.901C273.941 237.997 273.428 239.033 272.366 239.816C270.242 241.38 268.583 242.149 267.318 242.149L267.315 242.147ZM266.155 240.624C266.374 240.918 266.653 241.089 267.006 241.15C268.035 241.323 269.641 240.613 271.784 239.031C272.574 238.448 272.93 237.771 272.838 237.017C272.719 236.033 271.868 235.19 271.087 234.865C269.733 234.302 268.77 234.999 266.984 236.886C265.655 238.288 266.054 240.236 266.153 240.626L266.155 240.624Z" fill="black"/>
<path d="M263.97 236.228C263.584 236.132 263.298 235.847 263.195 235.47C262.976 234.679 262.82 233.167 264.012 231.495C265.76 229.043 266.565 228.344 268.211 229.398C269.858 230.452 270.433 231.506 269.94 232.558C269.444 233.61 267.43 235.358 266.269 236.058C265.528 236.505 264.569 236.377 263.972 236.228H263.97Z" fill="white"/>
<path d="M265.019 236.855C264.596 236.855 264.19 236.785 263.85 236.7C263.297 236.561 262.876 236.15 262.724 235.6C262.49 234.756 262.294 233.062 263.613 231.213C265.232 228.94 266.336 227.619 268.472 228.989C270.351 230.192 270.991 231.462 270.379 232.764C269.822 233.945 267.72 235.751 266.518 236.474C266.048 236.757 265.522 236.853 265.019 236.853V236.855ZM264.089 235.757C264.548 235.873 265.403 236.009 266.015 235.643C267.204 234.929 269.08 233.235 269.497 232.352C269.635 232.058 270.057 231.16 267.948 229.808C266.781 229.061 266.281 229.155 264.409 231.778C263.326 233.299 263.479 234.664 263.666 235.341C263.725 235.554 263.878 235.705 264.089 235.757Z" fill="black"/>
<path d="M260.455 226.578C260.455 226.578 261.453 224.722 263.524 226.21C265.598 227.698 266.304 228.073 265.402 229.186C264.501 230.299 262.649 232.898 260.431 232.521C258.215 232.146 258.654 228.804 260.455 226.578Z" fill="white"/>
<path d="M260.873 233.045C260.701 233.045 260.528 233.031 260.35 233.001C259.536 232.863 258.929 232.367 258.639 231.605C258.11 230.207 258.705 227.983 260.052 226.3C260.166 226.109 260.647 225.401 261.526 225.198C262.244 225.031 263.012 225.239 263.81 225.813L264.225 226.109C265.478 227.003 266.169 227.496 266.265 228.208C266.335 228.73 266.044 229.168 265.783 229.49L265.561 229.769C264.631 230.941 262.961 233.045 260.873 233.045ZM262.009 226.118C261.921 226.118 261.836 226.127 261.754 226.146C261.188 226.271 260.886 226.806 260.881 226.813C260.868 226.837 260.851 226.863 260.833 226.885C259.692 228.296 259.139 230.178 259.55 231.263C259.718 231.706 260.032 231.962 260.511 232.043C262.274 232.341 263.911 230.277 264.793 229.166L265.021 228.881C265.157 228.712 265.315 228.485 265.295 228.342C265.256 228.048 264.55 227.542 263.654 226.905L263.238 226.607C262.788 226.282 262.375 226.12 262.007 226.12L262.009 226.118Z" fill="black"/>
<path d="M255.042 230.814C253.956 230.814 253.687 230.097 253.511 228.671C253.336 227.244 253.709 224.391 254.165 223.679C254.621 222.967 256.023 223.324 257.425 223.681C258.829 224.038 260.233 224.398 260.139 225.11C260.045 225.824 258.737 230.818 255.04 230.812L255.042 230.814Z" fill="white"/>
<path d="M255.048 231.302H255.039C253.341 231.3 253.15 229.755 253.025 228.732C252.848 227.286 253.194 224.293 253.752 223.418C254.397 222.408 255.998 222.816 257.543 223.212C259.201 223.635 260.77 224.034 260.619 225.176C260.458 226.392 258.964 231.302 255.044 231.302H255.048ZM255.042 230.327H255.048C258.243 230.327 259.55 225.868 259.658 225.049C259.576 224.733 258.043 224.341 257.306 224.155C256.266 223.889 254.842 223.526 254.576 223.942C254.208 224.518 253.824 227.22 253.995 228.614C254.186 230.165 254.46 230.327 255.044 230.33L255.042 230.327Z" fill="black"/>
<path d="M228.212 267.064C228.212 267.064 227.597 263.501 225.123 263.13C222.65 262.76 220.54 262.394 219.493 264.877C218.449 267.36 218.795 270.208 223.422 270.592C228.056 270.977 228.21 267.062 228.21 267.062L228.212 267.064Z" fill="white"/>
<path d="M224.052 271.107C223.837 271.107 223.613 271.098 223.385 271.078C221.23 270.898 219.765 270.193 219.028 268.979C218.348 267.857 218.352 266.334 219.045 264.688C220.217 261.903 222.679 262.272 225.055 262.629L225.195 262.651C227.986 263.067 228.664 266.823 228.692 266.983C228.699 267.016 228.701 267.051 228.699 267.084C228.696 267.156 228.615 268.847 227.284 270.026C226.47 270.745 225.386 271.109 224.052 271.109V271.107ZM222.624 263.356C221.351 263.356 220.5 263.746 219.945 265.065C219.616 265.848 219.168 267.329 219.861 268.473C220.428 269.404 221.641 269.954 223.466 270.107C224.829 270.221 225.89 269.95 226.628 269.303C227.538 268.506 227.696 267.344 227.72 267.092C227.632 266.667 226.992 263.902 225.05 263.613L224.91 263.591C224.028 263.459 223.271 263.356 222.621 263.356H222.624Z" fill="black"/>
<path d="M225.116 254.946C225.116 254.946 222.738 253.868 221.737 255.998C220.739 258.128 220.412 260.615 222.744 262.05C225.076 263.485 228.003 263.146 229.144 259.949C230.285 256.75 227.229 255.312 225.116 254.948V254.946Z" fill="white"/>
<path d="M225.412 263.345C224.447 263.345 223.433 263.045 222.487 262.464C220.324 261.132 219.901 258.763 221.294 255.792C222.226 253.805 224.258 254.052 225.256 254.477C226.048 254.622 228.402 255.187 229.423 256.931C229.964 257.856 230.024 258.925 229.602 260.111C229.063 261.625 228.104 262.662 226.834 263.109C226.384 263.266 225.903 263.345 225.412 263.345ZM223.802 255.152C223.229 255.152 222.573 255.369 222.178 256.206C221.36 257.95 220.84 260.306 222.999 261.636C224.175 262.359 225.454 262.563 226.509 262.193C227.494 261.846 228.244 261.014 228.683 259.787C229.003 258.886 228.971 258.091 228.58 257.424C227.917 256.289 226.312 255.65 225.03 255.426C224.991 255.419 224.951 255.406 224.914 255.391C224.817 255.347 224.346 255.152 223.799 255.152H223.802Z" fill="black"/>
<path d="M231.833 253.198C232.697 252.034 233.834 248.933 231.857 247.502C229.272 245.631 227.859 244.998 226.234 246.416C224.608 247.833 222.447 251.878 224.536 253.879C226.776 256.024 229.889 255.814 231.833 253.2V253.198Z" fill="white"/>
<path d="M227.93 255.825C226.594 255.825 225.284 255.266 224.2 254.23C223.513 253.572 223.165 252.658 223.189 251.587C223.237 249.567 224.613 247.183 225.916 246.047C227.923 244.299 229.764 245.383 232.144 247.108C232.835 247.608 233.257 248.313 233.393 249.201C233.647 250.851 232.833 252.669 232.226 253.487C231.208 254.859 229.825 255.682 228.333 255.807C228.2 255.818 228.066 255.825 227.932 255.825H227.93ZM228.029 246.131C227.495 246.131 227.041 246.356 226.554 246.779C225.435 247.754 224.202 249.878 224.163 251.607C224.143 252.409 224.382 253.055 224.874 253.524C225.861 254.471 227.063 254.937 228.25 254.837C229.459 254.736 230.593 254.05 231.442 252.906C231.934 252.244 232.636 250.693 232.43 249.347C232.333 248.725 232.046 248.237 231.572 247.895C229.902 246.685 228.869 246.131 228.029 246.131Z" fill="black"/>
<path d="M232.424 246.35C233.014 246.435 233.659 246.282 234.173 245.894C234.533 245.622 234.897 245.228 235.114 244.665C235.66 243.243 233.464 240.745 231.393 240.026C229.324 239.309 226.527 241.755 227.999 243.928C229.109 245.568 230.072 246.004 232.424 246.348V246.35Z" fill="white"/>
<path d="M232.75 246.858C232.619 246.858 232.485 246.849 232.355 246.83C230.023 246.488 228.847 246.047 227.597 244.202C226.888 243.157 226.943 241.913 227.742 240.874C228.668 239.671 230.269 239.121 231.555 239.566C233.084 240.096 234.732 241.558 235.385 242.964C235.71 243.661 235.774 244.31 235.57 244.84C235.35 245.412 234.979 245.896 234.468 246.282C233.97 246.657 233.36 246.858 232.75 246.858ZM232.494 245.868C232.974 245.938 233.481 245.806 233.878 245.506C234.24 245.232 234.503 244.89 234.657 244.492C234.764 244.216 234.71 243.828 234.499 243.376C233.953 242.202 232.518 240.933 231.232 240.488C230.35 240.181 229.179 240.604 228.514 241.47C228.198 241.882 227.761 242.715 228.402 243.659C229.387 245.114 230.153 245.526 232.494 245.87V245.868Z" fill="black"/>
<path d="M237.793 240.756C237.793 240.756 239.202 238.266 237.993 236.483C236.782 234.699 235.841 233.63 233.945 234.337C232.049 235.045 229.921 237.53 231.85 239.314C233.78 241.1 236.117 242.53 237.795 240.753L237.793 240.756Z" fill="white"/>
<path d="M236.012 242.066C234.744 242.066 233.241 241.268 231.517 239.673C230.769 238.981 230.468 238.122 230.652 237.193C230.953 235.672 232.449 234.377 233.772 233.882C236.019 233.042 237.151 234.377 238.395 236.209C239.759 238.218 238.281 240.883 238.217 240.994C238.197 241.029 238.175 241.06 238.147 241.089C237.533 241.739 236.82 242.064 236.01 242.064L236.012 242.066ZM235.034 234.603C234.755 234.603 234.454 234.668 234.114 234.795C233.057 235.19 231.831 236.266 231.609 237.381C231.49 237.979 231.677 238.494 232.179 238.959C235.609 242.132 236.927 240.955 237.394 240.469C237.568 240.133 238.529 238.141 237.587 236.757C236.591 235.288 235.935 234.603 235.034 234.603Z" fill="black"/>
<path d="M240.717 236.176C241.127 236.079 241.483 235.799 241.685 235.424C242.11 234.635 242.661 233.13 241.911 231.458C240.814 229.008 240.195 228.309 238.286 229.354C236.378 230.4 235.533 231.447 235.75 232.495C235.967 233.544 237.51 235.295 238.479 235.996C239.1 236.445 240.085 236.323 240.715 236.176H240.717Z" fill="white"/>
<path d="M239.658 236.796C239.14 236.796 238.615 236.693 238.194 236.391C237.17 235.652 235.524 233.805 235.272 232.593C235.009 231.316 235.943 230.082 238.052 228.927C238.978 228.421 239.658 228.285 240.259 228.487C241.108 228.772 241.632 229.644 242.354 231.259C243.194 233.134 242.562 234.817 242.11 235.654C241.838 236.161 241.369 236.522 240.825 236.649C240.476 236.73 240.068 236.796 239.653 236.796H239.658ZM239.704 229.372C239.41 229.372 239.026 229.506 238.523 229.782C237.363 230.417 236.02 231.388 236.228 232.398C236.404 233.251 237.795 234.901 238.767 235.602C239.118 235.856 239.791 235.891 240.608 235.703C240.875 235.641 241.119 235.451 241.257 235.194C241.623 234.515 242.137 233.152 241.468 231.657C240.902 230.395 240.45 229.578 239.952 229.411C239.877 229.387 239.796 229.374 239.704 229.374V229.372Z" fill="black"/>
<path d="M246.736 226.561C246.736 226.561 246.227 224.707 243.777 226.186C241.326 227.665 240.527 228.035 241.133 229.148C241.738 230.262 242.903 232.858 245.207 232.492C247.513 232.126 247.952 228.789 246.736 226.561Z" fill="white"/>
<path d="M244.754 233.016C242.626 233.016 241.485 230.858 240.851 229.659L240.704 229.383C239.917 227.939 240.959 227.312 243.034 226.068L243.523 225.774C244.552 225.152 245.434 224.979 246.143 225.261C246.76 225.507 247.08 226.05 247.187 226.374C248.008 227.915 248.109 229.946 247.426 231.331C246.977 232.243 246.215 232.828 245.283 232.974C245.101 233.003 244.923 233.018 244.754 233.018V233.016ZM245.43 226.1C245.055 226.1 244.579 226.271 244.028 226.604L243.537 226.9C241.305 228.241 241.259 228.362 241.56 228.916L241.713 229.203C242.503 230.7 243.491 232.273 245.129 232.01C245.759 231.909 246.237 231.535 246.553 230.897C247.111 229.766 247.01 228.079 246.31 226.793C246.292 226.762 246.279 226.727 246.268 226.694C246.261 226.67 246.141 226.298 245.774 226.157C245.674 226.118 245.557 226.098 245.432 226.098L245.43 226.1Z" fill="black"/>
<path d="M251.026 230.807C252.112 230.807 252.568 230.097 253.117 228.671C253.665 227.244 254.041 224.391 253.771 223.679C253.503 222.965 252.007 223.322 250.513 223.677C249.019 224.032 247.525 224.387 247.432 225.099C247.338 225.811 247.338 230.801 251.026 230.807Z" fill="white"/>
<path d="M251.031 231.296H251.026C249.912 231.296 248.995 230.891 248.299 230.097C246.86 228.458 246.871 225.645 246.95 225.038C247.086 223.992 248.622 223.627 250.401 223.204C252.154 222.787 253.808 222.393 254.23 223.508C254.563 224.396 254.131 227.4 253.574 228.846C253.058 230.185 252.51 231.294 251.033 231.294L251.031 231.296ZM251.029 230.321H251.033C251.761 230.321 252.115 229.929 252.665 228.495C253.225 227.045 253.508 224.356 253.319 223.85C253.201 223.539 251.334 223.981 250.632 224.15C249.767 224.356 247.97 224.784 247.92 225.163C247.867 225.57 247.845 228.099 249.034 229.455C249.546 230.036 250.197 230.321 251.031 230.321H251.029Z" fill="black"/>
<path d="M267.021 277.994C267.021 277.994 267.645 281.577 270.143 281.953C272.645 282.33 274.784 282.705 275.841 280.207C276.899 277.707 276.545 274.841 271.857 274.448C267.173 274.058 267.021 277.994 267.021 277.994Z" fill="white"/>
<path d="M272.651 282.707C271.865 282.707 271.034 282.582 270.211 282.457L270.071 282.435C267.256 282.01 266.569 278.237 266.541 278.077C266.534 278.044 266.532 278.009 266.534 277.976C266.536 277.904 266.617 276.21 267.953 275.029C268.908 274.185 270.233 273.828 271.896 273.966C274.081 274.148 275.566 274.862 276.31 276.092C276.993 277.22 276.986 278.75 276.288 280.4C275.509 282.243 274.165 282.709 272.651 282.709V282.707ZM267.51 277.965C267.598 278.393 268.25 281.176 270.215 281.474L270.358 281.495C273.006 281.896 274.544 282.024 275.391 280.019C275.722 279.234 276.174 277.746 275.477 276.594C274.904 275.647 273.673 275.09 271.815 274.935C270.439 274.821 269.355 275.095 268.607 275.75C267.692 276.552 267.534 277.713 267.51 277.965Z" fill="black"/>
<path d="M270.155 290.188C270.155 290.188 272.564 291.284 273.573 289.143C274.582 287.002 274.912 284.497 272.549 283.047C270.188 281.596 267.231 281.931 266.081 285.144C264.931 288.354 268.018 289.813 270.155 290.188Z" fill="white"/>
<path d="M271.493 290.962C270.927 290.962 270.394 290.821 270.01 290.657C269.209 290.508 266.827 289.93 265.8 288.163C265.258 287.234 265.199 286.163 265.622 284.98C266.164 283.463 267.125 282.427 268.402 281.977C269.751 281.504 271.355 281.743 272.803 282.633C274.993 283.978 275.423 286.364 274.012 289.351C273.428 290.589 272.417 290.962 271.493 290.962ZM270.357 289.746C270.561 289.835 272.358 290.583 273.134 288.937C273.962 287.182 274.488 284.809 272.296 283.463C271.101 282.727 269.8 282.521 268.729 282.898C267.74 283.246 266.983 284.079 266.544 285.308C266.221 286.209 266.256 287.006 266.647 287.677C267.316 288.827 268.944 289.483 270.245 289.71C270.284 289.717 270.324 289.73 270.361 289.746H270.357Z" fill="black"/>
<path d="M263.377 291.919C262.506 293.083 261.361 296.194 263.355 297.645C265.964 299.543 267.39 300.189 269.033 298.773C270.676 297.358 272.861 293.293 270.744 291.268C268.478 289.101 265.334 289.298 263.377 291.919Z" fill="white"/>
<path d="M267.223 300.023C265.937 300.023 264.614 299.164 263.065 298.037C262.365 297.529 261.942 296.814 261.808 295.918C261.558 294.262 262.374 292.445 262.984 291.628C264.006 290.26 265.395 289.439 266.894 289.314C268.388 289.191 269.871 289.759 271.08 290.918C271.777 291.584 272.131 292.511 272.102 293.596C272.049 295.627 270.661 298.011 269.349 299.142C268.629 299.762 267.931 300.023 267.22 300.023H267.223ZM267.293 290.271C267.188 290.271 267.08 290.276 266.975 290.285C265.759 290.385 264.618 291.069 263.765 292.211C263.271 292.87 262.565 294.419 262.771 295.771C262.866 296.403 263.16 296.9 263.64 297.251C266.402 299.26 267.444 299.499 268.712 298.405C269.84 297.435 271.084 295.309 271.128 293.569C271.15 292.754 270.906 292.099 270.406 291.621C269.489 290.745 268.394 290.271 267.293 290.271Z" fill="black"/>
<path d="M262.783 298.798C262.186 298.708 261.539 298.857 261.021 299.245C260.659 299.516 260.293 299.911 260.076 300.474C259.525 301.9 261.741 304.427 263.827 305.163C265.916 305.902 268.742 303.458 267.252 301.261C266.131 299.604 265.157 299.159 262.785 298.798H262.783Z" fill="white"/>
<path d="M264.63 305.783C264.299 305.783 263.972 305.731 263.663 305.621C262.116 305.073 260.455 303.59 259.799 302.168C259.479 301.471 259.415 300.824 259.619 300.299C259.841 299.724 260.214 299.24 260.729 298.855C261.339 298.401 262.114 298.204 262.857 298.318C265.207 298.675 266.392 299.124 267.653 300.989C268.369 302.043 268.314 303.294 267.509 304.333C266.798 305.251 265.69 305.785 264.63 305.785V305.783ZM262.438 299.26C262.039 299.26 261.64 299.391 261.313 299.635C260.947 299.906 260.683 300.248 260.53 300.649C260.424 300.925 260.477 301.309 260.685 301.762C261.234 302.952 262.684 304.245 263.987 304.705C264.882 305.021 266.065 304.604 266.739 303.737C267.057 303.325 267.495 302.492 266.846 301.534C265.848 300.062 265.076 299.641 262.71 299.28C262.621 299.267 262.531 299.26 262.438 299.26Z" fill="black"/>
<path d="M257.377 304.381C257.377 304.381 255.96 306.87 257.177 308.671C258.395 310.473 259.345 311.557 261.254 310.863C263.165 310.168 265.31 307.685 263.362 305.875C261.416 304.065 259.06 302.61 257.375 304.381H257.377Z" fill="white"/>
<path d="M260.16 311.566C258.69 311.566 257.768 310.413 256.774 308.943C255.403 306.914 256.889 304.252 256.954 304.14C256.974 304.105 256.998 304.074 257.025 304.046C258.609 302.38 260.855 302.876 263.696 305.518C264.455 306.224 264.756 307.091 264.565 308.029C264.256 309.55 262.751 310.836 261.421 311.318C260.956 311.487 260.539 311.564 260.16 311.564V311.566ZM257.777 304.67C257.602 305.005 256.638 306.999 257.584 308.4C258.898 310.343 259.627 310.939 261.09 310.407C262.152 310.021 263.385 308.954 263.611 307.839C263.731 307.243 263.538 306.701 263.034 306.233C259.574 303.014 258.247 304.186 257.777 304.67Z" fill="black"/>
<path d="M254.44 308.956C254.027 309.048 253.67 309.329 253.468 309.703C253.04 310.49 252.489 311.998 253.242 313.683C254.345 316.152 254.964 316.862 256.884 315.832C258.803 314.8 259.655 313.757 259.435 312.701C259.216 311.645 257.665 309.872 256.686 309.158C256.061 308.702 255.071 308.816 254.437 308.958L254.44 308.956Z" fill="white"/>
<path d="M255.476 316.775C255.274 316.775 255.088 316.744 254.906 316.68C254.052 316.389 253.526 315.508 252.799 313.878C251.955 311.989 252.589 310.304 253.043 309.469C253.313 308.969 253.798 308.599 254.337 308.479C255.125 308.303 256.224 308.209 256.979 308.761C258.008 309.513 259.664 311.382 259.917 312.598C260.182 313.884 259.241 315.116 257.117 316.258C256.47 316.606 255.941 316.775 255.478 316.775H255.476ZM254.546 309.432C254.276 309.491 254.035 309.679 253.896 309.936C253.528 310.615 253.012 311.978 253.686 313.486C254.256 314.763 254.713 315.591 255.217 315.762C255.538 315.872 255.994 315.758 256.652 315.403C258.35 314.491 259.127 313.615 258.958 312.798C258.78 311.936 257.378 310.264 256.4 309.548C256.044 309.289 255.369 309.246 254.546 309.43V309.432Z" fill="black"/>
<path d="M248.405 318.545C248.405 318.545 248.917 320.412 251.374 318.953C253.833 317.493 254.636 317.132 254.029 316.008C253.421 314.884 252.251 312.265 249.939 312.611C247.629 312.957 247.19 316.299 248.405 318.545Z" fill="white"/>
<path d="M249.73 319.998C249.471 319.998 249.227 319.952 249.004 319.862C248.383 319.612 248.06 319.062 247.953 318.734C247.126 317.173 247.031 315.129 247.722 313.746C248.174 312.844 248.936 312.269 249.866 312.131C252.347 311.763 253.62 314.191 254.306 315.495L254.456 315.775C255.245 317.233 254.199 317.851 252.112 319.082L251.623 319.371C250.921 319.788 250.287 319.998 249.732 319.998H249.73ZM248.874 318.412C248.881 318.436 249.004 318.817 249.379 318.962C249.782 319.119 250.388 318.972 251.125 318.534L251.617 318.243C253.854 316.921 253.903 316.799 253.598 316.238L253.444 315.946C252.65 314.437 251.663 312.846 250.011 313.091C249.385 313.185 248.909 313.551 248.596 314.178C248.032 315.307 248.13 317.007 248.835 318.311C248.852 318.341 248.865 318.374 248.874 318.409V318.412Z" fill="black"/>
<path d="M244.108 314.244C243.022 314.231 242.568 314.941 242.02 316.363C241.471 317.785 241.098 320.638 241.366 321.354C241.634 322.073 243.128 321.733 244.622 321.394C246.116 321.054 247.612 320.717 247.707 320.002C247.801 319.288 247.801 314.285 244.111 314.242L244.108 314.244Z" fill="white"/>
<path d="M242.298 322.264C241.625 322.264 241.114 322.078 240.907 321.523C240.574 320.631 241.008 317.627 241.563 316.185C242.077 314.855 242.621 313.755 244.08 313.755C244.091 313.755 244.102 313.755 244.115 313.755C245.227 313.768 246.144 314.18 246.84 314.98C248.279 316.637 248.268 319.455 248.189 320.064C248.051 321.113 246.513 321.464 244.729 321.867C243.845 322.067 242.987 322.262 242.298 322.262V322.264ZM244.08 314.73C243.367 314.73 243.018 315.125 242.474 316.538C241.914 317.984 241.631 320.675 241.82 321.186C241.941 321.506 243.808 321.08 244.512 320.923C245.376 320.728 247.171 320.32 247.222 319.943C247.274 319.533 247.296 316.996 246.103 315.622C245.591 315.033 244.938 314.741 244.102 314.732C244.095 314.732 244.086 314.732 244.08 314.732V314.73Z" fill="black"/>
<path d="M226.82 277.702C226.82 277.702 225.274 281.252 222.707 281.587C220.142 281.923 217.939 282.262 217.544 279.769C217.152 277.275 218.242 274.437 222.966 274.115C227.693 273.791 226.82 277.702 226.82 277.702Z" fill="white"/>
<path d="M220.255 282.302C218.671 282.302 217.375 281.824 217.063 279.845C216.817 278.283 217.151 276.832 218.004 275.765C219.011 274.505 220.668 273.787 222.932 273.631C224.626 273.515 225.863 273.898 226.616 274.773C227.682 276.011 227.311 277.735 227.296 277.81C227.289 277.84 227.28 277.869 227.267 277.897C227.199 278.053 225.578 281.704 222.772 282.072L222.627 282.091C221.822 282.197 221.008 282.304 220.258 282.304L220.255 282.302ZM223.507 274.584C223.344 274.584 223.173 274.591 222.998 274.602C221.019 274.738 219.595 275.334 218.766 276.372C218.086 277.225 217.822 278.406 218.026 279.696C218.325 281.585 219.764 281.487 222.498 281.127L222.642 281.108C224.753 280.831 226.164 277.959 226.35 277.556C226.39 277.319 226.541 276.177 225.87 275.404C225.398 274.86 224.604 274.584 223.505 274.584H223.507Z" fill="black"/>
<path d="M220.554 289.756C220.554 289.756 217.898 290.802 217.459 288.663C217.02 286.524 217.345 284.037 220.048 282.635C222.753 281.232 225.585 281.609 225.886 284.817C226.186 288.025 222.759 289.419 220.554 289.756Z" fill="white"/>
<path d="M219.197 290.497C218.798 290.497 218.374 290.429 217.997 290.225C217.47 289.941 217.119 289.434 216.981 288.762C216.373 285.799 217.383 283.47 219.822 282.203C221.637 281.263 223.394 281.112 224.645 281.793C225.34 282.173 226.205 282.996 226.371 284.771C226.663 287.879 223.73 289.748 220.678 290.23C220.494 290.296 219.879 290.495 219.197 290.495V290.497ZM222.868 282.348C222.089 282.348 221.187 282.591 220.272 283.067C217.683 284.41 217.571 286.798 217.936 288.564C218.017 288.957 218.188 289.22 218.46 289.366C219.059 289.693 220.048 289.43 220.377 289.303C220.41 289.29 220.445 289.281 220.481 289.274C221.018 289.191 225.731 288.369 225.399 284.861C225.298 283.779 224.886 283.034 224.177 282.646C223.809 282.444 223.361 282.346 222.865 282.346L222.868 282.348Z" fill="black"/>
<path d="M226.801 291.593C227.359 292.765 227.683 295.877 225.336 297.279C222.267 299.113 220.689 299.727 219.439 298.291C218.186 296.856 217.089 292.787 219.697 290.819C222.495 288.707 225.549 288.959 226.804 291.595L226.801 291.593Z" fill="white"/>
<path d="M221.061 299.58C220.32 299.58 219.664 299.293 219.069 298.611C218.209 297.625 217.446 295.611 217.645 293.672C217.788 292.311 218.393 291.192 219.401 290.431C221.07 289.171 222.915 288.665 224.466 289.044C225.695 289.344 226.654 290.153 227.239 291.387C227.926 292.833 228.148 296.168 225.583 297.7C223.766 298.784 222.297 299.582 221.059 299.582L221.061 299.58ZM223.413 289.89C222.332 289.89 221.125 290.348 219.988 291.205C219.192 291.805 218.729 292.669 218.615 293.769C218.451 295.355 219.089 297.15 219.804 297.969C220.726 299.025 221.86 298.787 225.085 296.861C227.248 295.57 226.77 292.658 226.362 291.801C225.906 290.841 225.171 290.214 224.238 289.987C223.975 289.923 223.698 289.89 223.415 289.89H223.413Z" fill="black"/>
<path d="M225.599 298.436C226.211 298.357 226.815 298.519 227.227 298.914C227.517 299.19 227.776 299.589 227.844 300.154C228.017 301.58 225.169 304.046 222.916 304.736C220.663 305.424 218.511 302.946 220.549 300.794C222.087 299.172 223.162 298.749 225.599 298.438V298.436Z" fill="white"/>
<path d="M222.142 305.338C221.128 305.338 220.174 304.841 219.637 303.978C219.106 303.121 218.972 301.747 220.194 300.459C221.885 298.675 223.156 298.259 225.536 297.954C226.313 297.855 227.052 298.077 227.561 298.563C227.996 298.977 228.252 299.492 228.325 300.095C228.551 301.955 225.299 304.515 223.055 305.2C222.75 305.292 222.443 305.338 222.138 305.338H222.142ZM225.902 298.905C225.824 298.905 225.745 298.909 225.661 298.92C223.384 299.212 222.377 299.571 220.902 301.129C220.178 301.894 220.018 302.746 220.466 303.465C220.929 304.212 221.879 304.543 222.772 304.269C225.042 303.575 227.482 301.223 227.359 300.213C227.313 299.841 227.155 299.521 226.89 299.266C226.644 299.032 226.293 298.905 225.902 298.905Z" fill="black"/>
<path d="M229.494 304.092C229.494 304.092 230.249 306.594 228.575 308.36C226.901 310.124 225.679 311.18 223.972 310.448C222.265 309.717 220.791 307.208 223.184 305.452C225.578 303.695 228.287 302.299 229.496 304.094L229.494 304.092Z" fill="white"/>
<path d="M225.031 311.169C224.637 311.169 224.222 311.084 223.779 310.893C222.555 310.37 221.602 309.153 221.462 307.94C221.337 306.85 221.846 305.827 222.895 305.058C225.268 303.318 227.057 302.582 228.362 302.81C229.007 302.922 229.522 303.261 229.9 303.82C229.926 303.859 229.948 303.905 229.961 303.951C229.996 304.065 230.777 306.747 228.928 308.695C227.614 310.08 226.44 311.172 225.031 311.172V311.169ZM227.868 303.741C226.85 303.741 225.376 304.447 223.472 305.842C222.695 306.412 222.344 307.081 222.429 307.83C222.544 308.816 223.386 309.668 224.163 310.001C225.497 310.573 226.453 309.888 228.219 308.027C229.529 306.647 229.139 304.692 229.044 304.302C228.825 304.006 228.546 303.831 228.193 303.77C228.09 303.752 227.98 303.743 227.866 303.743L227.868 303.741Z" fill="black"/>
<path d="M231.212 308.702C231.596 308.803 231.879 309.09 231.982 309.467C232.2 310.26 232.355 311.77 231.171 313.429C229.433 315.859 228.634 316.549 227.002 315.48C225.37 314.41 224.802 313.354 225.291 312.311C225.782 311.268 227.779 309.539 228.933 308.853C229.67 308.415 230.622 308.549 231.212 308.704V308.702Z" fill="white"/>
<path d="M228.31 316.448C227.838 316.448 227.325 316.273 226.735 315.887C224.877 314.669 224.243 313.396 224.85 312.105C225.403 310.931 227.49 309.147 228.683 308.435C229.548 307.92 230.603 308.04 231.336 308.231C231.884 308.373 232.301 308.788 232.452 309.338C232.685 310.181 232.88 311.875 231.566 313.711C230.408 315.333 229.497 316.448 228.308 316.448H228.31ZM230.142 309.042C229.813 309.042 229.471 309.099 229.183 309.27C228.005 309.973 226.145 311.643 225.732 312.517C225.594 312.811 225.175 313.7 227.268 315.072C228.422 315.828 228.918 315.74 230.772 313.144C231.849 311.634 231.698 310.271 231.511 309.594C231.452 309.381 231.298 309.228 231.088 309.171C230.851 309.11 230.504 309.04 230.142 309.04V309.042Z" fill="black"/>
<path d="M234.705 318.379C234.705 318.379 233.711 320.224 231.651 318.714C229.593 317.204 228.891 316.825 229.786 315.723C230.683 314.621 232.524 312.044 234.729 312.44C236.936 312.837 236.497 316.174 234.703 318.381L234.705 318.379Z" fill="white"/>
<path d="M233.173 319.794C232.594 319.794 231.986 319.564 231.363 319.104L230.953 318.804C229.707 317.897 229.02 317.395 228.928 316.685C228.86 316.165 229.15 315.734 229.409 315.414L229.63 315.136C230.633 313.88 232.495 311.54 234.814 311.958C235.628 312.105 236.232 312.607 236.517 313.374C237.037 314.776 236.444 316.992 235.104 318.655C234.988 318.845 234.512 319.544 233.641 319.742C233.487 319.777 233.331 319.794 233.171 319.794H233.173ZM234.279 312.885C232.673 312.885 231.208 314.724 230.394 315.745L230.165 316.03C229.97 316.271 229.878 316.448 229.893 316.562C229.933 316.86 230.635 317.371 231.526 318.021L231.938 318.324C232.493 318.731 232.991 318.891 233.419 318.797C233.974 318.677 234.275 318.153 234.277 318.146C234.29 318.122 234.308 318.096 234.325 318.074C235.459 316.68 236.01 314.807 235.604 313.716C235.437 313.266 235.122 313.006 234.643 312.918C234.52 312.896 234.4 312.885 234.277 312.885H234.279Z" fill="black"/>
<path d="M240.102 314.196C241.185 314.209 241.455 314.925 241.629 316.356C241.804 317.787 241.429 320.64 240.975 321.348C240.521 322.056 239.121 321.681 237.721 321.308C236.324 320.934 234.924 320.559 235.018 319.847C235.113 319.135 236.416 314.154 240.102 314.196Z" fill="white"/>
<path d="M240 322.233C239.29 322.233 238.436 322.005 237.596 321.779C235.944 321.337 234.386 320.921 234.535 319.785C234.693 318.574 236.176 313.711 240.053 313.711C240.071 313.711 240.088 313.711 240.108 313.711C241.799 313.731 241.988 315.276 242.113 316.299C242.291 317.75 241.944 320.743 241.385 321.613C241.091 322.073 240.597 322.233 240 322.233ZM240.057 314.682C236.905 314.682 235.608 319.093 235.501 319.91C235.569 320.228 237.107 320.64 237.846 320.837C238.882 321.113 240.301 321.495 240.562 321.085C240.928 320.513 241.312 317.811 241.143 316.415C240.953 314.855 240.676 314.689 240.095 314.682C240.082 314.682 240.068 314.682 240.055 314.682H240.057Z" fill="black"/>
<path d="M212.938 232.729H139.943L140.564 227.998H213.557L212.938 232.729Z" fill="black"/>
<path d="M211.944 240.309H138.951L139.57 235.578H212.565L211.944 240.309Z" fill="black"/>
<path d="M210.949 247.888H137.957L138.578 243.157H211.57L210.949 247.888Z" fill="black"/>
<path d="M208.409 267.309H135.414L136.035 262.578H209.027L208.409 267.309Z" fill="black"/>
<path d="M207.415 274.889H134.42L135.041 270.158H208.033L207.415 274.889Z" fill="black"/>
<path d="M206.42 282.468H133.428L134.046 277.737H207.041L206.42 282.468Z" fill="black"/>
<path d="M203.875 301.889H130.883L131.502 297.156H204.496L203.875 301.889Z" fill="black"/>
<path d="M202.883 309.469H129.889L130.51 304.736H203.502L202.883 309.469Z" fill="black"/>
<path d="M201.889 317.049H128.896L129.515 312.315H202.508L201.889 317.049Z" fill="black"/>
<path d="M298.331 91.8158H169.597C164.831 91.8158 161.477 87.9592 162.1 83.1998L164.208 67.1094C165.628 56.2715 175.575 47.4867 186.426 47.4867H293.118C303.969 47.4867 311.613 56.2715 310.193 67.1094L308.085 83.1998C307.462 87.9592 303.094 91.8158 298.331 91.8158Z" fill="black"/>
<path d="M298.332 92.3045H169.598C167.165 92.3045 164.995 91.3579 163.486 89.6421C161.959 87.9044 161.296 85.5949 161.619 83.1407L163.727 67.0503C165.175 55.9976 175.359 47.0046 186.428 47.0046H293.122C298.481 47.0046 303.258 49.0841 306.575 52.8597C309.931 56.679 311.388 61.7649 310.68 67.1795L308.571 83.2699C307.917 88.2551 303.326 92.3089 298.334 92.3089L298.332 92.3045ZM186.426 47.9732C175.829 47.9732 166.077 56.587 164.69 67.173L162.582 83.2634C162.297 85.4371 162.878 87.475 164.216 88.9979C165.537 90.5011 167.448 91.3294 169.596 91.3294H298.33C302.849 91.3294 307.009 87.6546 307.602 83.1363L309.71 67.0459C310.381 61.914 309.008 57.102 305.84 53.4951C302.711 49.9344 298.192 47.9732 293.119 47.9732H186.426Z" fill="black"/>
<path d="M245.932 0.48645C232.641 0.48645 220.458 11.2477 218.718 24.5202L213.808 61.9972C213.255 66.2242 216.237 69.6513 220.467 69.6513H253.268C257.501 69.6513 261.379 66.2242 261.935 61.9972L266.845 24.5202C268.584 11.2455 259.221 0.48645 245.93 0.48645H245.932ZM242.503 26.6566C238.367 26.6566 235.456 23.3084 235.996 19.1801C236.537 15.0495 240.326 11.7035 244.462 11.7035C248.598 11.7035 251.509 15.0517 250.969 19.1801C250.427 23.3106 246.638 26.6566 242.503 26.6566Z" fill="black"/>
<path d="M253.268 70.1377H220.467C218.29 70.1377 216.349 69.2919 214.997 67.7537C213.631 66.1979 213.036 64.1315 213.326 61.9337L218.238 24.4566C220.004 10.9716 232.428 -0.00219727 245.934 -0.00219727C252.465 -0.00219727 258.288 2.5309 262.329 7.13034C266.419 11.7846 268.196 17.9814 267.329 24.5815L262.419 62.0586C261.836 66.5112 257.731 70.1356 253.271 70.1356L253.268 70.1377ZM245.932 0.972912C232.9 0.972912 220.908 11.5654 219.201 24.5837L214.289 62.0608C214.039 63.9759 214.55 65.7706 215.728 67.1116C216.891 68.4351 218.573 69.1648 220.465 69.1648H253.266C257.255 69.1648 260.925 65.9218 261.447 61.9359L266.358 24.4588C267.185 18.1414 265.493 12.2163 261.59 7.77676C257.735 3.38987 252.174 0.975103 245.928 0.975103L245.932 0.972912ZM242.503 27.1431C240.372 27.1431 238.473 26.3148 237.15 24.8094C235.813 23.2887 235.232 21.2661 235.513 19.1143C236.083 14.7581 240.098 11.2127 244.462 11.2127C246.592 11.2127 248.492 12.0409 249.815 13.5463C251.151 15.0671 251.733 17.0896 251.452 19.2392C250.881 23.5954 246.867 27.1409 242.503 27.1409V27.1431ZM244.462 12.19C240.57 12.19 236.989 15.3541 236.478 19.2436C236.235 21.1128 236.733 22.8614 237.88 24.1696C239.014 25.4602 240.655 26.1724 242.501 26.1724C246.393 26.1724 249.975 23.0082 250.484 19.1187C250.728 17.2496 250.23 15.5009 249.082 14.1928C247.948 12.9021 246.307 12.19 244.462 12.19Z" fill="black"/>
<path d="M295.768 91.8158H167.034C162.269 91.8158 158.914 87.9592 159.537 83.1998L161.646 67.1094C163.065 56.2715 173.013 47.4867 183.864 47.4867H290.555C301.406 47.4867 309.05 56.2715 307.631 67.1094L305.522 83.1998C304.899 87.9592 300.531 91.8158 295.768 91.8158Z" fill="white"/>
<path d="M295.768 92.3045H167.034C164.601 92.3045 162.431 91.3579 160.921 89.6421C159.394 87.9044 158.732 85.5949 159.054 83.1407L161.163 67.0503C162.611 55.9976 172.795 47.0046 183.863 47.0046H290.557C295.917 47.0046 300.693 49.0841 304.01 52.8597C307.367 56.679 308.824 61.7649 308.115 67.1795L306.007 83.2699C305.353 88.2551 300.761 92.3089 295.77 92.3089L295.768 92.3045ZM183.863 47.9732C173.267 47.9732 163.515 56.587 162.128 67.173L160.02 83.2634C159.734 85.4371 160.316 87.475 161.654 88.9979C162.975 90.5011 164.886 91.3294 167.034 91.3294H295.768C300.287 91.3294 304.447 87.6546 305.039 83.1363L307.148 67.0459C307.819 61.914 306.446 57.102 303.278 53.4951C300.149 49.9344 295.629 47.9732 290.557 47.9732H183.863Z" fill="black"/>
<path d="M243.371 0.48645C230.08 0.48645 217.897 11.2477 216.158 24.5202L211.248 61.9972C210.695 66.2242 213.676 69.6513 217.906 69.6513H250.708C254.94 69.6513 258.819 66.2242 259.374 61.9972L264.284 24.5202C266.024 11.2455 256.66 0.48645 243.369 0.48645H243.371ZM239.94 26.6566C235.804 26.6566 232.893 23.3084 233.433 19.1801C233.975 15.0495 237.764 11.7035 241.899 11.7035C246.035 11.7035 248.946 15.0517 248.406 19.1801C247.865 23.3106 244.076 26.6566 239.94 26.6566Z" fill="white"/>
<path d="M250.707 70.1377H217.906C215.729 70.1377 213.785 69.2919 212.436 67.7537C211.069 66.1979 210.477 64.1315 210.764 61.9359L215.676 24.4588C217.443 10.9738 229.867 0 243.373 0C249.904 0 255.727 2.53309 259.768 7.13254C263.858 11.7868 265.635 17.9836 264.768 24.5837L259.858 62.0608C259.275 66.5134 255.17 70.1377 250.709 70.1377H250.707ZM243.371 0.972918C230.339 0.972918 218.347 11.5655 216.642 24.5837L211.73 62.0608C211.479 63.9759 211.988 65.7706 213.169 67.1116C214.332 68.4351 216.014 69.1648 217.908 69.1648H250.709C254.698 69.1648 258.368 65.9218 258.891 61.9359L263.801 24.4588C264.628 18.1414 262.936 12.2163 259.033 7.77677C255.178 3.38987 249.617 0.975109 243.371 0.975109V0.972918ZM239.939 27.1431C237.809 27.1431 235.909 26.3148 234.586 24.8094C233.25 23.2887 232.669 21.2661 232.949 19.1143C233.52 14.7581 237.535 11.2127 241.898 11.2127C244.029 11.2127 245.929 12.041 247.252 13.5463C248.588 15.0671 249.169 17.0896 248.888 19.2392C248.318 23.5955 244.303 27.1409 239.939 27.1409V27.1431ZM241.901 12.19C238.009 12.19 234.428 15.3541 233.917 19.2436C233.673 21.1128 234.171 22.8614 235.319 24.1696C236.453 25.4602 238.094 26.1724 239.939 26.1724C243.831 26.1724 247.414 23.0082 247.923 19.1187C248.167 17.2496 247.669 15.5009 246.521 14.1928C245.387 12.9021 243.746 12.19 241.901 12.19Z" fill="black"/>
<path d="M65.4997 345.029C65.1859 345.517 53.1895 362.651 53.1895 362.651C53.1895 362.651 54.8678 368.596 57.9766 369.446L72.2438 354.026L65.5019 345.027L65.4997 345.029Z" fill="white"/>
<path d="M57.9759 369.935C57.932 369.935 57.8903 369.928 57.8464 369.917C54.5116 369.005 52.7916 363.036 52.7192 362.784C52.6797 362.644 52.706 362.493 52.7894 362.372C56.9359 356.45 64.8451 345.147 65.0886 344.766C65.1742 344.632 65.3212 344.547 65.4813 344.542C65.6393 344.536 65.7929 344.61 65.8894 344.737L72.6314 353.737C72.7718 353.925 72.7587 354.186 72.5985 354.359L58.3313 369.779C58.237 369.88 58.1075 369.935 57.9737 369.935H57.9759ZM53.724 362.736C54.0421 363.746 55.5011 367.967 57.8311 368.887L71.609 353.995L65.5165 345.864C63.5529 348.697 54.9724 360.953 53.724 362.736Z" fill="black"/>
<path d="M45.127 367.211C45.127 367.211 48.7053 381.057 54.686 388.179C60.6666 395.298 70.6074 392.737 70.6074 392.737C70.6074 392.737 71.3358 386.715 70.0896 385.148C68.8457 383.584 61.9611 375.215 61.9808 367.691L58.9225 363.05L56.7636 365.841L53.8676 359.912L45.127 367.213V367.211Z" fill="white"/>
<path d="M66.4503 393.653C62.9115 393.653 57.9049 392.765 54.3134 388.49C48.3305 381.369 44.8027 367.901 44.6557 367.331C44.6096 367.149 44.671 366.957 44.8158 366.836L53.5565 359.535C53.6706 359.438 53.8242 359.401 53.9712 359.432C54.1182 359.463 54.241 359.559 54.3068 359.695L56.8584 364.921L58.5368 362.749C58.6333 362.624 58.7869 362.554 58.9404 362.561C59.0984 362.568 59.2432 362.649 59.3288 362.78L62.3871 367.421C62.4398 367.5 62.4683 367.594 62.4683 367.691C62.4595 370.938 63.8198 376.519 70.338 384.675L70.4718 384.844C71.8057 386.52 71.1673 392.156 71.0905 392.794C71.0664 392.993 70.9216 393.157 70.7285 393.206C70.6868 393.217 68.9295 393.653 66.4481 393.653H66.4503ZM45.6803 367.384C46.2397 369.424 49.6996 381.482 55.0616 387.863C60.1778 393.953 68.4358 392.682 70.1646 392.334C70.4082 390.046 70.485 386.422 69.7105 385.449L69.5767 385.282C62.9773 377.025 61.5271 371.258 61.4942 367.835L58.89 363.884L57.148 366.135C57.0449 366.269 56.8803 366.339 56.7136 366.321C56.5468 366.304 56.3999 366.201 56.3253 366.049L53.7013 360.679L45.6781 367.382L45.6803 367.384Z" fill="black"/>
<path d="M68.222 390.708C68.2045 390.708 68.1869 390.708 68.1716 390.705C53.4941 389.163 49.5297 368.528 49.4924 368.32C49.4441 368.054 49.6196 367.802 49.8829 367.752C50.1484 367.704 50.4007 367.879 50.4511 368.142C50.4884 368.344 54.3234 388.271 68.2747 389.737C68.5424 389.765 68.7376 390.004 68.7091 390.272C68.6828 390.521 68.4722 390.708 68.2242 390.708H68.222Z" fill="black"/>
<path d="M75.9034 363.058C75.8266 363.871 76.6669 375.24 80.1969 382.379C80.1969 382.379 77.5335 387.653 72.5422 386.713C72.5422 386.713 66.3487 373.123 65.1289 362.78L75.9034 363.058Z" fill="white"/>
<path d="M73.7119 387.311C73.3082 387.311 72.8891 387.274 72.4503 387.191C72.2946 387.162 72.1629 387.059 72.0971 386.915C72.0357 386.779 65.8575 373.136 64.6443 362.837C64.6267 362.697 64.6728 362.557 64.7693 362.451C64.8637 362.346 65.0019 362.289 65.1423 362.294L75.9146 362.572C76.0484 362.576 76.1778 362.635 76.2656 362.736C76.3556 362.837 76.3994 362.971 76.3863 363.104C76.3336 363.657 77.1147 375.049 80.6315 382.164C80.6996 382.302 80.6996 382.462 80.6315 382.598C80.6052 382.648 78.1941 387.311 73.7119 387.311ZM72.8804 386.277C76.7636 386.844 79.1199 383.271 79.6487 382.366C76.5201 375.857 75.5021 366.038 75.4165 363.534L65.6842 363.282C66.9304 372.617 72.0774 384.467 72.8804 386.277Z" fill="black"/>
<path d="M68.5848 379.326C68.5848 379.326 67.795 388.593 68.5673 393.491C68.7603 394.718 69.6467 395.719 70.8358 396.087C74.6203 397.262 85.9411 400.836 96.6958 400.489C99.1618 400.411 100.472 398.756 100.794 397.82C101.68 395.241 100.452 391.735 96.6366 388.286C91.0881 383.271 78.2447 375.711 78.2447 375.711L74.3439 380.391L75.3509 384.986L68.5848 379.328V379.326Z" fill="white"/>
<path d="M95.1945 401C85.0168 401 74.8303 397.838 70.8791 396.611L70.6926 396.554C69.3082 396.124 68.31 394.981 68.0884 393.567C67.3139 388.668 68.0686 379.666 68.1015 379.287C68.1169 379.105 68.231 378.949 68.3999 378.879C68.5666 378.809 68.7597 378.838 68.9001 378.956L74.5715 383.7L73.8694 380.496C73.8365 380.35 73.8738 380.196 73.9703 380.08L77.8712 375.4C78.0247 375.218 78.2858 375.169 78.492 375.292C78.6215 375.369 91.4429 382.937 96.965 387.927C100.666 391.271 102.27 395.029 101.256 397.98C100.914 398.977 99.5232 400.888 96.7127 400.978C96.2081 400.993 95.6991 401.002 95.1945 401.002V401ZM68.9988 380.308C68.8255 382.782 68.4372 389.54 69.0493 393.414C69.2139 394.457 69.9554 395.305 70.9822 395.623L71.1687 395.68C75.2757 396.955 86.184 400.34 96.682 400.001C99.0449 399.924 100.12 398.285 100.335 397.66C101.217 395.09 99.714 391.72 96.3112 388.643C91.3771 384.184 80.4644 377.595 78.3538 376.337L74.8698 380.516L75.8264 384.879C75.8703 385.083 75.7803 385.291 75.6026 385.398C75.4249 385.506 75.1967 385.488 75.0388 385.354L69.001 380.304L68.9988 380.308Z" fill="black"/>
<path d="M96.0026 397.961C96.0026 397.961 95.996 397.961 95.9916 397.961C82.4068 397.63 73.4533 393.666 73.3655 393.626C73.1198 393.517 73.0101 393.228 73.122 392.982C73.2339 392.737 73.5213 392.627 73.767 392.739C73.8548 392.778 82.6415 396.661 96.0158 396.988C96.2856 396.994 96.4962 397.218 96.4919 397.485C96.4853 397.75 96.2681 397.961 96.0048 397.961H96.0026Z" fill="black"/>
<path d="M98.9441 200.956C98.9441 200.956 118.962 249.12 119.038 282.002C119.115 314.884 71.8819 360.254 71.8819 360.254L63.0293 351.918C63.0293 351.918 82.1627 324.646 85.1793 300.097C88.196 275.548 75.6664 238.332 75.6664 238.332L72.246 205.597L98.9419 200.956H98.9441Z" fill="black"/>
<path d="M50.9818 200.956C50.9818 200.956 40.181 273.219 63.3973 368.482L79.8804 365.581C79.8804 365.581 70.747 282.823 88.8448 238.799L92.8751 199.006L50.984 200.956H50.9818Z" fill="black"/>
<path d="M80.0621 282.552C79.7945 282.552 79.5773 282.335 79.5751 282.067C79.518 271.218 82.2692 250.307 86.5518 243.51C86.6966 243.282 86.9972 243.214 87.2232 243.357C87.4513 243.499 87.5194 243.799 87.3767 244.027C83.3333 250.447 80.4922 271.201 80.5492 282.061C80.5492 282.33 80.3342 282.549 80.0643 282.549H80.0621V282.552Z" fill="white"/>
<path d="M78.692 346.744C78.4353 346.744 78.2203 346.545 78.2071 346.284C77.685 336.963 77.9658 325.211 77.968 325.093C77.9746 324.825 78.2115 324.613 78.4682 324.617C78.7381 324.624 78.9509 324.847 78.9443 325.117C78.9421 325.233 78.6613 336.947 79.1812 346.23C79.1966 346.497 78.9904 346.727 78.7227 346.742C78.7139 346.742 78.7052 346.742 78.6942 346.742L78.692 346.744Z" fill="white"/>
<path d="M63.0363 204.102C56.9152 208.857 47.8564 215.891 34.9955 215.628C32.9573 215.587 16.347 214.995 8.70989 202.597C7.70506 200.967 3.12631 193.534 5.69103 186.621C8.42248 179.258 16.8165 179.052 17.218 174.284C17.7489 167.955 3.12192 166.457 0.436533 157.422C-2.46166 147.678 9.58747 132.702 23.146 125.592C39.4755 117.031 54.6642 121.626 58.1526 113.152C60.1754 108.239 55.6471 105.292 57.9069 98.5956C60.3136 91.4565 69.1311 83.912 76.9217 86.5371C81.8844 88.209 85.8357 93.8077 85.3728 98.8958C84.8046 105.126 78.0319 106.07 74.2057 111.557C64.4404 125.559 90.1249 145.802 85.307 172.272C82.2267 189.2 68.2381 200.064 63.0385 204.102H63.0363Z" fill="black"/>
<path d="M151.725 139.936C151.725 139.936 152.484 142.294 145.5 150.82C138.517 159.346 116.918 158.649 107.321 146.24C98.4974 134.83 91.2091 131.572 90.0902 131.12C80.3162 126.808 67.5014 128.905 61.3759 129.911C53.0411 131.278 46.1346 132.411 41.4395 137.694C40.1934 139.097 39.307 140.567 38.7015 142.129V142.123C29.7283 158.995 37.0012 176.416 41.4856 184.464C42.225 216.731 29.4365 226.429 37.859 238.38C46.977 251.32 120.198 232.194 114.43 215.587C112.376 209.67 110.395 192.813 107.694 175.883C111.475 176.994 115.584 177.818 118.967 178.395C152.229 184.066 154.276 147.248 154.276 147.248L151.727 139.936H151.725Z" fill="white"/>
<path d="M52.5303 243.12C45.2946 243.12 39.676 241.803 37.4601 238.658C32.8747 232.15 34.3907 226.324 36.6856 217.502C38.647 209.966 41.3302 199.656 41.0011 184.594C36.1218 175.8 29.36 158.658 38.2674 141.899C38.9168 140.247 39.8361 138.763 41.0757 137.37C45.887 131.96 53.0283 130.787 61.2973 129.431C67.4886 128.414 80.3714 126.3 90.288 130.676C91.6395 131.221 98.897 134.548 107.708 145.942C112.416 152.032 120.874 155.89 129.781 156.015C136.49 156.114 142.223 154.052 145.123 150.511C151.67 142.519 151.258 140.083 151.253 140.059C151.172 139.804 151.313 139.546 151.565 139.46C151.819 139.375 152.096 139.524 152.184 139.774L154.733 147.086C154.755 147.145 154.764 147.209 154.759 147.272C154.75 147.447 153.651 164.94 142.254 174.016C136.187 178.848 128.324 180.481 118.884 178.872C114.882 178.191 111.324 177.413 108.294 176.56C109.046 181.315 109.735 186.005 110.404 190.545C112.043 201.683 113.458 211.303 114.889 215.425C116.602 220.359 112.109 225.732 101.896 230.961C88.9212 237.602 67.3438 243.118 52.5303 243.12ZM39.1033 142.405C30.4131 158.811 37.131 175.647 41.9116 184.228C41.9511 184.296 41.9708 184.374 41.973 184.453C42.3218 199.718 39.6101 210.139 37.629 217.75C35.4021 226.309 33.93 231.962 38.2565 238.1C44.2218 246.567 81.0164 240.556 101.451 230.095C111.034 225.191 115.479 220.094 113.969 215.745C112.508 211.537 111.087 201.876 109.441 190.687C108.739 185.908 108.011 180.967 107.212 175.958C107.186 175.794 107.245 175.627 107.372 175.515C107.497 175.406 107.671 175.366 107.831 175.414C110.979 176.339 114.753 177.181 119.048 177.912C128.202 179.473 135.804 177.908 141.644 173.258C152.276 164.796 153.682 148.69 153.783 147.312L151.876 141.844C151.277 143.534 149.728 146.424 145.88 151.124C142.793 154.893 136.747 157.082 129.77 156.986C120.573 156.857 111.826 152.853 106.94 146.536C98.0984 135.102 90.7224 131.898 89.9106 131.57C80.2463 127.305 67.5566 129.389 61.4574 130.388C53.0371 131.771 46.3872 132.862 41.8063 138.014C40.6325 139.335 39.7659 140.738 39.1582 142.302C39.1428 142.337 39.1253 142.372 39.1055 142.403L39.1033 142.405Z" fill="black"/>
<path d="M94.9384 177.148C94.9384 177.148 114.14 170.158 120.134 157.376L132.494 145.872C132.494 145.872 132.319 151.431 128.651 153.754C128.651 153.754 131.801 160.091 127.152 164.465C127.152 164.465 123.666 167.232 121.588 167.283C121.588 167.283 115.502 187.252 99.0674 193.197C99.0674 193.197 94.4514 186.189 94.9406 177.148H94.9384Z" fill="white"/>
<path d="M99.0672 193.683C98.9071 193.683 98.7513 193.604 98.6592 193.464C98.4683 193.172 93.9619 186.217 94.4512 177.121C94.4621 176.926 94.5872 176.758 94.7715 176.69C94.9624 176.62 113.854 169.616 119.692 157.168C119.719 157.111 119.756 157.06 119.802 157.019L132.163 145.517C132.308 145.383 132.518 145.348 132.696 145.429C132.876 145.51 132.988 145.692 132.981 145.887C132.975 146.117 132.768 151.392 129.258 153.929C129.866 155.428 131.66 160.891 127.485 164.818C127.316 164.953 124.164 167.438 121.95 167.738C121.075 170.333 114.565 188.104 99.234 193.652C99.1791 193.672 99.1243 193.681 99.0672 193.681V193.683ZM95.4099 177.49C95.1028 185.043 98.4112 191.148 99.2713 192.6C115.004 186.642 121.059 167.335 121.119 167.14C121.18 166.939 121.362 166.801 121.573 166.796C123.144 166.759 125.912 164.826 126.847 164.083C131.14 160.041 128.334 154.216 128.212 153.971C128.102 153.747 128.176 153.478 128.387 153.344C130.754 151.847 131.577 148.839 131.86 147.128L120.533 157.67C114.824 169.7 97.979 176.512 95.4077 177.492L95.4099 177.49Z" fill="black"/>
<path d="M77.5061 199.474C72.1331 199.474 67.6663 198.589 64.2459 197.533C56.6461 195.186 52.55 191.606 52.3789 191.454C52.177 191.277 52.1595 190.968 52.3372 190.769C52.5149 190.567 52.8221 190.549 53.0239 190.727C53.1863 190.869 69.5596 204.942 96.8106 194.844C97.0629 194.75 97.3437 194.879 97.4359 195.131C97.5302 195.383 97.4008 195.664 97.1485 195.756C89.7242 198.506 83.1204 199.474 77.5039 199.474H77.5061Z" fill="black"/>
<path d="M87.4544 177.836C73.5514 177.836 65.4557 169.93 61.0218 162.957C55.8046 154.751 54.4136 146.034 54.4005 145.946C54.3588 145.681 54.5409 145.431 54.8085 145.392C55.0762 145.353 55.3241 145.532 55.3636 145.8C55.3768 145.885 56.7414 154.429 61.8599 162.462C68.6852 173.177 78.5997 177.954 91.3179 176.663C91.5966 176.637 91.8247 176.832 91.8533 177.1C91.8796 177.367 91.6843 177.606 91.4189 177.632C90.0476 177.77 88.7269 177.838 87.4544 177.838V177.836Z" fill="black"/>
<path d="M145.057 130.318L129.357 186.149L147.767 180.838L165.059 125.824L145.057 130.318Z" fill="white"/>
<path d="M129.357 186.636C129.23 186.636 129.107 186.585 129.015 186.496C128.89 186.371 128.841 186.189 128.89 186.018L144.587 130.187C144.635 130.014 144.774 129.882 144.949 129.843L164.954 125.346C165.125 125.309 165.3 125.364 165.419 125.491C165.537 125.618 165.577 125.8 165.526 125.967L148.234 180.982C148.185 181.138 148.06 181.259 147.904 181.305L129.495 186.616C129.451 186.629 129.405 186.636 129.359 186.636H129.357ZM145.447 130.73L130.063 185.439L147.38 180.443L164.341 126.484L145.447 130.73Z" fill="black"/>
<path d="M155.035 157.952C155.035 157.952 159.759 152.987 160.853 149.047C161.948 145.105 155.035 136.432 155.035 136.432V157.952Z" fill="white"/>
<path d="M155.036 158.439C154.974 158.439 154.913 158.428 154.856 158.404C154.672 158.329 154.549 158.152 154.549 157.952V136.432C154.549 136.226 154.68 136.042 154.876 135.972C155.071 135.904 155.288 135.965 155.418 136.127C155.707 136.489 162.473 145.041 161.326 149.174C160.211 153.186 155.587 158.079 155.389 158.285C155.295 158.384 155.168 158.437 155.036 158.437V158.439ZM155.523 137.876V156.679C156.914 155.071 159.612 151.696 160.385 148.916C161.117 146.277 157.673 140.812 155.523 137.876Z" fill="black"/>
<path d="M98.261 167.769C98.2369 167.769 98.215 167.769 98.1908 167.765C97.9254 167.725 97.7411 167.478 97.7784 167.213C100.293 150.053 92.4252 140.343 92.3462 140.247C92.175 140.041 92.2036 139.734 92.4098 139.561C92.616 139.39 92.9232 139.416 93.0965 139.625C93.1799 139.723 101.324 149.739 98.7437 167.353C98.7086 167.594 98.5002 167.769 98.2632 167.769H98.261Z" fill="black"/>
<path d="M81.8231 145.41C81.766 145.41 81.7068 145.399 81.6476 145.377L59.5107 136.886C59.2584 136.789 59.1333 136.509 59.2299 136.257C59.3264 136.005 59.6072 135.88 59.8595 135.976L81.9964 144.467C82.2487 144.564 82.3737 144.844 82.2772 145.096C82.2026 145.289 82.0183 145.41 81.8231 145.41Z" fill="black"/>
<path d="M76.2514 143.271C76.122 143.271 75.9948 143.221 75.8982 143.12C75.7117 142.925 75.7205 142.618 75.9158 142.432L84.4963 134.265C84.6915 134.079 84.9987 134.087 85.1852 134.282C85.3717 134.477 85.3629 134.784 85.1676 134.97L76.5871 143.137C76.4928 143.227 76.3721 143.271 76.2514 143.271Z" fill="black"/>
<path d="M83.6172 111.022C81.1073 108.43 76.296 100.235 76.3026 100.513C76.3618 103.224 70.7234 103.988 66.9323 106.475C63.1411 108.962 68.3386 113.61 68.3386 113.61C68.3386 113.61 64.5738 110.626 63.9529 114.62C63.5931 116.939 66.3245 117.646 68.5207 117.819C68.4505 118.516 68.2157 119.373 68.264 120.318C68.7291 129.273 56.0547 130.838 56.0547 130.838L76.2521 139.32L84.8326 130.121L79.633 128.664C78.2289 128.088 76.9432 127.871 76.7172 126.372L76.2499 121.054C77.1955 121.304 78.3386 121.547 79.2227 121.538C80.9866 121.518 82.3601 120.348 82.6891 118.617C83.1411 116.244 83.0468 114.009 82.439 112.205L83.6128 111.024L83.6172 111.022Z" fill="white"/>
<path d="M76.2513 139.807C76.1876 139.807 76.124 139.793 76.0626 139.769L55.8651 131.287C55.6611 131.201 55.5404 130.991 55.5712 130.772C55.6019 130.553 55.7752 130.382 55.9946 130.356C56.1174 130.34 68.2148 128.741 67.7761 120.344C67.741 119.645 67.8441 119.009 67.9362 118.446C67.9472 118.38 67.9582 118.317 67.9669 118.256C66.5211 118.089 64.8164 117.657 63.9696 116.588C63.5154 116.016 63.3487 115.328 63.4693 114.546C63.6624 113.301 64.1692 112.51 64.9744 112.197C65.4241 112.021 65.9046 112.021 66.3653 112.116C65.6413 111.11 64.9744 109.819 65.0687 108.561C65.1433 107.553 65.6808 106.716 66.6637 106.07C68.0898 105.134 69.7835 104.431 71.2776 103.809C73.7282 102.79 75.8454 101.909 75.8147 100.524C75.8103 100.305 75.9551 100.103 76.1635 100.04C76.4253 99.9607 76.9913 100.608 77.8616 101.981C79.3996 104.407 82.2627 108.921 83.9674 110.683C84.1516 110.873 84.1494 111.176 83.963 111.364L82.9976 112.337C83.5549 114.184 83.6163 116.38 83.1731 118.707C82.8002 120.67 81.2161 122.003 79.2328 122.025C78.5944 122.029 77.7826 121.919 76.7997 121.691L77.2056 126.328C77.3438 127.235 77.9669 127.509 79.1538 127.954C79.3623 128.033 79.5773 128.114 79.7967 128.202L84.9678 129.652C85.1323 129.698 85.2596 129.825 85.3057 129.99C85.3517 130.154 85.31 130.329 85.1938 130.452L76.6133 139.651C76.5189 139.752 76.3895 139.807 76.2578 139.807H76.2513ZM57.73 131.013L76.1262 138.739L83.93 130.373L79.5005 129.131C79.4829 129.126 79.4654 129.12 79.4478 129.113C79.2306 129.023 79.0156 128.942 78.8072 128.866C77.6576 128.434 76.4685 127.989 76.2359 126.444L75.7664 121.098C75.7532 120.94 75.8169 120.784 75.9375 120.683C76.0582 120.58 76.2249 120.545 76.3763 120.585C77.5786 120.903 78.5527 121.063 79.2197 121.054C80.7488 121.036 81.9226 120.046 82.2122 118.527C82.6488 116.24 82.5676 114.11 81.9796 112.361C81.9204 112.186 81.9665 111.993 82.0959 111.864L82.9406 111.013C81.1547 109.002 78.5022 104.817 77.0367 102.507C76.8502 102.213 76.6681 101.926 76.5079 101.674C75.8015 102.985 73.8445 103.798 71.6506 104.711C70.1236 105.347 68.5461 106.002 67.1969 106.887C66.4685 107.365 66.0911 107.937 66.0385 108.636C65.909 110.382 67.8879 112.558 68.6624 113.251C68.8577 113.426 68.8796 113.726 68.7107 113.926C68.5417 114.127 68.2412 114.158 68.0349 113.994C67.5764 113.632 66.1942 112.764 65.3276 113.104C64.8713 113.284 64.5685 113.818 64.4325 114.697C64.3535 115.208 64.4522 115.628 64.7331 115.985C65.3035 116.709 66.6637 117.186 68.5571 117.337C68.6887 117.348 68.8094 117.41 68.8928 117.511C68.9761 117.611 69.0178 117.741 69.0047 117.872C68.9805 118.102 68.941 118.348 68.8994 118.606C68.8116 119.145 68.7194 119.7 68.7524 120.296C69.1319 127.588 61.2271 130.215 57.7322 131.017L57.73 131.013Z" fill="black"/>
<path d="M76.2514 121.54C76.1987 121.54 76.1461 121.531 76.0934 121.514L74.6849 121.034C74.4304 120.946 74.2944 120.67 74.3821 120.416C74.4699 120.162 74.7463 120.026 75.0008 120.112L76.4093 120.591C76.6638 120.679 76.7999 120.955 76.7121 121.209C76.6441 121.411 76.4532 121.538 76.2514 121.538V121.54Z" fill="black"/>
<path d="M281.113 55.1758C281.113 28.4096 302.82 6.71179 329.597 6.71179C356.374 6.71179 378.079 28.4096 378.079 55.1758C378.079 81.942 356.372 103.64 329.597 103.64C302.822 103.64 281.113 81.942 281.113 55.1758Z" fill="white"/>
<path d="M295.467 90.4178C304.199 98.6482 315.965 103.703 328.92 103.703C341.875 103.703 353.641 98.6482 362.373 90.4178C352.27 87.2931 340.921 85.5357 328.92 85.5357C316.919 85.5357 305.568 87.2931 295.467 90.4178Z" fill="black"/>
<path d="M344.545 26.8626C342.349 25.4492 339.788 24.6976 337.175 24.6976H321.787C318.351 24.6976 315.043 25.9949 312.526 28.3307L311.682 29.113C307.682 32.8206 306.289 38.5551 308.139 43.6827L313.198 57.7067L345.64 57.5029L350.218 42.1795C351.949 36.3814 349.637 30.1385 344.545 26.8626Z" fill="black"/>
<path d="M336.522 32.9784C336.452 32.9477 336.312 32.8864 336.312 32.8864L313.027 47.9907V57.0997C313.027 62.3105 315.467 66.9494 319.26 69.9537V83.8331C319.26 89.32 323.714 93.7682 329.208 93.7682C334.701 93.7682 339.155 89.32 339.155 83.8331V70.3108C343.223 67.3263 345.873 62.5275 345.873 57.0997V47.4385C345.873 41.005 342.036 35.4655 336.52 32.9784H336.522Z" fill="white"/>
<path d="M329.45 73.9878C329.18 73.9878 328.963 73.7708 328.963 73.5013C328.963 73.2318 329.18 73.0148 329.45 73.0148C338.236 73.0148 345.387 65.8757 345.387 57.0976V47.4363C345.387 38.9627 338.484 32.069 330 32.069H313.515V57.0976C313.515 63.3229 317.181 69.0114 322.855 71.5927C323.1 71.7045 323.208 71.9937 323.096 72.2369C322.984 72.4824 322.695 72.5897 322.451 72.478C316.431 69.7411 312.541 63.7042 312.541 57.0976V31.5826C312.541 31.313 312.758 31.0961 313.028 31.0961H330C339.022 31.0961 346.361 38.4259 346.361 47.4385V57.0997C346.361 66.4126 338.774 73.99 329.45 73.99V73.9878Z" fill="black"/>
<path d="M328.913 104.153C328.797 104.153 328.683 104.153 328.569 104.153C315.414 104.063 303.08 98.8629 293.839 89.5084C274.767 70.1969 274.977 38.989 294.313 19.9382C312.731 1.79024 342.288 1.01234 361.601 18.1677C361.803 18.3452 361.82 18.6542 361.64 18.8558C361.46 19.0573 361.153 19.0749 360.951 18.8952C342.022 2.07949 313.051 2.84423 294.995 20.6329C276.044 39.3068 275.835 69.8967 294.53 88.827C303.586 97.9974 315.677 103.094 328.571 103.182C328.683 103.182 328.797 103.182 328.909 103.182C341.68 103.182 353.705 98.2559 362.805 89.2893C372.742 79.501 377.946 65.8998 377.088 51.9744C377.07 51.7071 377.277 51.4748 377.544 51.4595C377.818 51.4441 378.044 51.6479 378.06 51.9152C378.937 66.1212 373.626 79.9962 363.49 89.9818C354.205 99.1281 341.937 104.155 328.909 104.155L328.913 104.153Z" fill="black"/>
<path d="M329.21 94.2525C323.455 94.2525 318.775 89.5764 318.775 83.8309V69.9515C318.775 69.682 318.993 69.465 319.262 69.465C319.532 69.465 319.75 69.682 319.75 69.9515V83.8309C319.75 89.0417 323.993 93.2796 329.21 93.2796C334.427 93.2796 338.67 89.0417 338.67 83.8309V70.6549C338.67 70.3854 338.887 70.1684 339.157 70.1684C339.427 70.1684 339.644 70.3854 339.644 70.6549V83.8309C339.644 89.5786 334.962 94.2525 329.21 94.2525Z" fill="black"/>
<path d="M61.9424 25.7385C61.7734 25.7385 61.6111 25.6508 61.5211 25.4952C61.3851 25.263 61.4663 24.965 61.6989 24.8313L63.9411 23.5341C64.1736 23.3982 64.472 23.4793 64.6058 23.7116C64.7419 23.9438 64.6607 24.2418 64.4281 24.3755L62.1859 25.6727C62.1091 25.7166 62.0258 25.7385 61.9424 25.7385Z" fill="black"/>
<path d="M54.0928 30.2788C53.9238 30.2788 53.7615 30.1911 53.6715 30.0355C53.5355 29.8033 53.6167 29.5052 53.8492 29.3716L56.0915 28.0744C56.324 27.9385 56.6224 28.0196 56.7562 28.2518C56.8922 28.4841 56.8111 28.7821 56.5785 28.9158L54.3363 30.213C54.2595 30.2568 54.1761 30.2788 54.0928 30.2788Z" fill="black"/>
<path d="M57.5765 24.5793C57.4053 24.5793 57.2408 24.4895 57.1508 24.3317L55.9003 22.1076C55.7687 21.8731 55.852 21.5773 56.0868 21.4458C56.3193 21.3143 56.6177 21.3976 56.7494 21.6321L57.9999 23.8562C58.1315 24.0907 58.0482 24.3865 57.8134 24.518C57.7388 24.5596 57.6555 24.5793 57.5765 24.5793Z" fill="black"/>
<path d="M61.9495 32.367C61.7784 32.367 61.6138 32.2772 61.5239 32.1194L60.2733 29.8953C60.1417 29.6608 60.2251 29.365 60.4598 29.2335C60.6924 29.1021 60.9908 29.1853 61.1224 29.4198L62.3729 31.6439C62.5046 31.8784 62.4212 32.1742 62.1865 32.3057C62.1119 32.3473 62.0285 32.367 61.9495 32.367Z" fill="black"/>
<path d="M368.397 181.598C368.276 181.598 368.153 181.554 368.059 181.462C367.864 181.276 367.857 180.969 368.044 180.774L369.836 178.905C370.023 178.71 370.332 178.706 370.525 178.89C370.72 179.076 370.727 179.383 370.541 179.578L368.748 181.447C368.652 181.546 368.524 181.596 368.397 181.596V181.598Z" fill="black"/>
<path d="M362.12 188.141C361.999 188.141 361.876 188.095 361.782 188.005C361.587 187.819 361.58 187.512 361.766 187.317L363.559 185.448C363.745 185.253 364.055 185.249 364.248 185.433C364.443 185.619 364.45 185.926 364.263 186.121L362.471 187.99C362.374 188.091 362.247 188.139 362.12 188.139V188.141Z" fill="black"/>
<path d="M363.879 181.699C363.756 181.699 363.631 181.653 363.537 181.559L361.716 179.769C361.525 179.58 361.521 179.271 361.709 179.08C361.898 178.89 362.207 178.885 362.398 179.076L364.219 180.866C364.41 181.055 364.415 181.364 364.226 181.554C364.129 181.651 364.004 181.699 363.879 181.699Z" fill="black"/>
<path d="M370.25 187.962C370.127 187.962 370.002 187.916 369.908 187.821L368.087 186.031C367.896 185.843 367.892 185.534 368.08 185.343C368.269 185.152 368.579 185.148 368.769 185.336L370.59 187.127C370.781 187.315 370.786 187.624 370.597 187.815C370.5 187.911 370.375 187.959 370.25 187.959V187.962Z" fill="black"/>
<path d="M371.247 28.105C370.982 28.105 370.767 27.8947 370.76 27.6295L370.705 25.0417C370.699 24.7721 370.914 24.5508 371.181 24.5442C371.467 24.5377 371.673 24.7524 371.679 25.0197L371.734 27.6076C371.741 27.8771 371.526 28.0985 371.258 28.105C371.254 28.105 371.252 28.105 371.247 28.105Z" fill="black"/>
<path d="M371.442 37.1637C371.177 37.1637 370.962 36.9533 370.955 36.6882L370.901 34.1003C370.894 33.8308 371.109 33.6095 371.377 33.6029C371.657 33.5985 371.868 33.8111 371.875 34.0784L371.93 36.6663C371.936 36.9358 371.721 37.1571 371.453 37.1637C371.449 37.1637 371.447 37.1637 371.442 37.1637Z" fill="black"/>
<path d="M365.571 31.3853C365.303 31.3853 365.086 31.1706 365.084 30.9033C365.084 30.6337 365.299 30.4146 365.567 30.4124L368.12 30.3927C368.401 30.3927 368.61 30.6074 368.612 30.8748C368.612 31.1443 368.397 31.3634 368.129 31.3656L365.575 31.3853H365.571Z" fill="black"/>
<path d="M374.509 31.3152C374.241 31.3152 374.024 31.1005 374.021 30.8332C374.021 30.5636 374.236 30.3445 374.504 30.3423L377.058 30.3226H377.062C377.33 30.3226 377.547 30.5373 377.549 30.8047C377.549 31.0742 377.334 31.2933 377.067 31.2955L374.513 31.3152H374.509Z" fill="black"/>
<path d="M14.0205 61.8307C12.8072 61.8307 11.6356 61.4362 10.6528 60.6868C9.43732 59.7599 8.66285 58.4035 8.46979 56.8697C8.07488 53.7362 10.2688 50.8327 13.3623 50.3967C14.8542 50.1863 16.3285 50.5742 17.5198 51.4857C18.733 52.4126 19.5097 53.769 19.7028 55.3029C20.0977 58.4364 17.9037 61.3398 14.8103 61.7759C14.5448 61.8131 14.2815 61.8307 14.0205 61.8307ZM13.4983 51.3608C10.9292 51.7224 9.10822 54.1393 9.43732 56.7469C9.59747 58.0201 10.2403 59.1464 11.2451 59.9133C12.2302 60.6649 13.45 60.9826 14.6743 60.8095C17.2434 60.448 19.0643 58.031 18.7352 55.4234C18.5751 54.1503 17.9323 53.0262 16.9274 52.2571C15.9424 51.5055 14.7225 51.1877 13.4961 51.3586L13.4983 51.3608Z" fill="black"/>
<path d="M371.319 148.436C370.65 148.436 369.981 148.311 369.338 148.061C367.94 147.518 366.837 146.45 366.235 145.057C365.007 142.21 366.282 138.873 369.079 137.617C370.426 137.013 371.922 136.975 373.298 137.508C374.695 138.051 375.799 139.118 376.4 140.512C377.629 143.359 376.354 146.696 373.557 147.951C372.839 148.274 372.08 148.434 371.319 148.434V148.436ZM371.314 138.111C370.689 138.111 370.064 138.244 369.476 138.507C367.161 139.546 366.108 142.311 367.128 144.671C367.626 145.824 368.537 146.707 369.691 147.154C370.821 147.592 372.052 147.559 373.157 147.064C375.472 146.025 376.525 143.26 375.505 140.9C375.007 139.747 374.096 138.864 372.942 138.417C372.414 138.211 371.865 138.111 371.314 138.111Z" fill="black"/>
<path d="M28.6682 359.679C27.9201 359.679 27.1741 359.541 26.4545 359.261C24.8924 358.654 23.6594 357.462 22.9881 355.904C21.6147 352.722 23.0385 348.993 26.1649 347.59C27.6699 346.915 29.3417 346.872 30.8775 347.468C32.4396 348.075 33.6726 349.267 34.3439 350.825C35.7173 354.006 34.2935 357.736 31.1671 359.138C30.3663 359.498 29.5172 359.677 28.6682 359.677V359.679ZM28.6638 348.026C27.9486 348.026 27.2355 348.178 26.562 348.48C23.9205 349.665 22.716 352.823 23.881 355.52C24.4492 356.837 25.4892 357.843 26.8055 358.356C28.0956 358.858 29.5019 358.82 30.7656 358.253C33.4093 357.067 34.6116 353.91 33.4466 351.212C32.8784 349.896 31.8384 348.89 30.5221 348.377C29.9187 348.142 29.2891 348.026 28.6616 348.026H28.6638Z" fill="black"/>
<path d="M34.4333 34.3041C33.6127 34.3041 32.8185 34.0368 32.1559 33.5306C31.3354 32.9039 30.8111 31.9879 30.6816 30.9515C30.414 28.8369 31.8971 26.8757 33.9857 26.5821C34.9905 26.4397 35.991 26.7026 36.7983 27.3184C37.6189 27.9451 38.1432 28.861 38.2727 29.8975C38.5381 32.012 37.0572 33.971 34.9686 34.2668C34.7887 34.2909 34.611 34.3041 34.4333 34.3041ZM34.1195 27.5484C32.5552 27.7698 31.4451 29.2423 31.6469 30.831C31.7435 31.6067 32.1362 32.2903 32.7461 32.7593C33.3429 33.215 34.0822 33.4101 34.8304 33.3049C36.3946 33.0858 37.5048 31.611 37.3029 30.0224C37.2064 29.2467 36.8137 28.563 36.2038 28.0963C35.6048 27.6405 34.8655 27.4455 34.1195 27.5506V27.5484Z" fill="black"/>
<path d="M252.127 36.6246C252.007 36.6246 251.884 36.5808 251.79 36.4888C251.594 36.3025 251.588 35.9958 251.774 35.8007L253.567 33.9316C253.753 33.7366 254.063 33.73 254.256 33.9163C254.451 34.1025 254.457 34.4093 254.271 34.6043L252.479 36.4734C252.382 36.5742 252.255 36.6225 252.127 36.6225V36.6246Z" fill="black"/>
<path d="M245.85 43.1677C245.729 43.1677 245.607 43.1239 245.512 43.0319C245.317 42.8456 245.31 42.5389 245.497 42.3438L247.289 40.4747C247.476 40.2797 247.785 40.2753 247.978 40.4594C248.174 40.6456 248.18 40.9524 247.994 41.1474L246.201 43.0165C246.105 43.1173 245.977 43.1656 245.85 43.1656V43.1677Z" fill="black"/>
<path d="M247.61 36.7255C247.487 36.7255 247.362 36.6794 247.267 36.5852L245.446 34.795C245.256 34.6065 245.251 34.2975 245.44 34.1069C245.629 33.9163 245.938 33.9119 246.129 34.1003L247.95 35.8906C248.141 36.079 248.145 36.388 247.956 36.5786C247.86 36.6751 247.735 36.7233 247.61 36.7233V36.7255Z" fill="black"/>
<path d="M253.981 42.988C253.858 42.988 253.733 42.942 253.638 42.8478L251.818 41.0575C251.627 40.8691 251.622 40.5601 251.811 40.3695C252 40.1789 252.309 40.1745 252.5 40.3651L254.321 42.1554C254.512 42.3438 254.516 42.6528 254.327 42.8434C254.231 42.9398 254.106 42.988 253.981 42.988Z" fill="black"/>
<path d="M15.1464 245.495C10.5742 245.495 6.85547 241.781 6.85547 237.214C6.85547 232.648 10.5742 228.934 15.1464 228.934C19.7186 228.934 23.4373 232.648 23.4373 237.214C23.4373 241.781 19.7186 245.495 15.1464 245.495ZM15.1464 229.909C11.1117 229.909 7.82958 233.187 7.82958 237.214C7.82958 241.242 11.1117 244.522 15.1464 244.522C19.181 244.522 22.4632 241.244 22.4632 237.214C22.4632 233.185 19.181 229.909 15.1464 229.909Z" fill="black"/>
<path d="M176.154 22.3552C173.466 22.3552 171.281 20.1727 171.281 17.4884C171.281 14.8041 173.466 12.6216 176.154 12.6216C178.842 12.6216 181.027 14.8041 181.027 17.4884C181.027 20.1727 178.842 22.3552 176.154 22.3552ZM176.154 13.5945C174.004 13.5945 172.255 15.341 172.255 17.4884C172.255 19.6358 174.004 21.3823 176.154 21.3823C178.304 21.3823 180.053 19.6358 180.053 17.4884C180.053 15.341 178.304 13.5945 176.154 13.5945Z" fill="black"/>
<path d="M37.8134 80.5812C37.7103 80.5812 37.6072 80.5484 37.5194 80.4826C37.3044 80.3205 37.2627 80.0159 37.4251 79.8012C37.5326 79.6587 48.5023 65.317 68.25 49.9541C86.4772 35.7744 116.133 17.7864 153.901 12.6282C154.167 12.5909 154.413 12.7772 154.45 13.0445C154.485 13.3119 154.299 13.5573 154.033 13.5923C116.49 18.7199 86.9994 36.6049 68.8709 50.7035C49.2153 65.9897 38.307 80.2482 38.1995 80.3906C38.103 80.5177 37.9582 80.5834 37.8112 80.5834L37.8134 80.5812Z" fill="black"/>
<path d="M83.5115 47.0879C83.3623 47.0879 83.2153 47.02 83.121 46.8907C82.9608 46.6738 83.0069 46.3692 83.2219 46.2092C83.5949 45.9331 120.995 18.5775 165.686 16.9998C165.934 16.9932 166.181 17.1992 166.19 17.4687C166.199 17.7382 165.988 17.9617 165.721 17.9727C121.331 19.5394 84.1741 46.7154 83.8033 46.9893C83.7155 47.055 83.6146 47.0857 83.5137 47.0857L83.5115 47.0879Z" fill="black"/>
<path d="M342.441 325.592C342.325 325.592 342.209 325.551 342.115 325.467C341.915 325.288 341.897 324.981 342.079 324.779C372.977 290.473 379.964 246.17 380.03 245.725C380.07 245.46 380.315 245.278 380.585 245.318C380.851 245.357 381.035 245.605 380.996 245.872C380.928 246.319 373.896 290.911 342.803 325.43C342.707 325.537 342.575 325.592 342.441 325.592Z" fill="black"/>
<path d="M360.383 281.09C360.302 281.09 360.218 281.07 360.144 281.026C359.909 280.895 359.828 280.597 359.959 280.363C378.259 248.081 375.813 220.167 375.787 219.888C375.76 219.621 375.958 219.382 376.225 219.358C376.491 219.332 376.732 219.529 376.756 219.796C376.783 220.077 379.257 248.298 360.808 280.842C360.719 281 360.554 281.09 360.385 281.09H360.383Z" fill="black"/>
</g>
<defs>
<clipPath id="clip0_1083_39109">
<rect width="381" height="401" fill="white"/>
</clipPath>
</defs>
</svg>
